SplineFontDB: 3.0
FontName: PTSans-Narrow
FullName: PT Sans Narrow
FamilyName: PT Sans Narrow
Weight: Book
Copyright: Copyright (c) 2009 ParaType Ltd. All rights reserved.
Version: 2.003W OFL
ItalicAngle: 0
UnderlinePosition: -51.2
UnderlineWidth: 51.2
Ascent: 819
Descent: 205
sfntRevision: 0x000200c5
LayerCount: 2
Layer: 0 1 "Back"  1
Layer: 1 1 "Fore"  0
XUID: [1021 631 875253810 1746777]
FSType: 0
OS2Version: 3
OS2_WeightWidthSlopeOnly: 0
OS2_UseTypoMetrics: 1
CreationTime: 1293016736
ModificationTime: 1476944541
PfmFamily: 17
TTFWeight: 400
TTFWidth: 3
LineGap: 0
VLineGap: 0
Panose: 2 11 5 6 2 2 3 2 2 4
OS2TypoAscent: 1042
OS2TypoAOffset: 0
OS2TypoDescent: -283
OS2TypoDOffset: 0
OS2TypoLinegap: 0
OS2WinAscent: 1042
OS2WinAOffset: 0
OS2WinDescent: 283
OS2WinDOffset: 0
HheadAscent: 1042
HheadAOffset: 0
HheadDescent: -283
HheadDOffset: 0
OS2SubXSize: 666
OS2SubYSize: 614
OS2SubXOff: 0
OS2SubYOff: 77
OS2SupXSize: 666
OS2SupYSize: 614
OS2SupXOff: 0
OS2SupYOff: 358
OS2StrikeYSize: 51
OS2StrikeYPos: 256
OS2FamilyClass: 2050
OS2Vendor: 'PARA'
OS2CodePages: 20000097.00000000
OS2UnicodeRanges: a00002ef.5000204b.00000000.00000000
Lookup: 1 0 0 "'aalt' Access All Alternates lookup 0"  {"'aalt' Access All Alternates lookup 0 subtable"  } ['aalt' ('cyrl' <'BSH ' 'CHU ' 'dflt' > 'latn' <'MOL ' 'ROM ' 'dflt' > ) ]
Lookup: 3 0 0 "'aalt' Access All Alternates lookup 1"  {"'aalt' Access All Alternates lookup 1 subtable"  } ['aalt' ('cyrl' <'BSH ' 'CHU ' 'dflt' > 'latn' <'MOL ' 'ROM ' 'dflt' > ) ]
Lookup: 6 0 0 "'ccmp' Glyph Composition/Decomposition lookup 2"  {"'ccmp' Glyph Composition/Decomposition lookup 2 contextual 0"  "'ccmp' Glyph Composition/Decomposition lookup 2 contextual 1"  } ['ccmp' ('cyrl' <'BSH ' 'CHU ' 'dflt' > 'latn' <'MOL ' 'ROM ' 'dflt' > ) ]
Lookup: 1 0 0 "'locl' Localized Forms in Latin lookup 3"  {"'locl' Localized Forms in Latin lookup 3 subtable"  } ['locl' ('latn' <'ROM ' > ) ]

StartChar: .notdef
Encoding: 65536 -1 0
Width: 768
Flags: W
LayerCount: 2
Fore
SplineSet
51 717 m 1,0,-1
 717 717 l 1,1,-1
 717 0 l 1,2,-1
 51 0 l 1,3,-1
 51 717 l 1,0,-1
584 635 m 1,4,-1
 384 413 l 1,5,-1
 184 635 l 1,6,-1
 133 584 l 1,7,-1
 335 358 l 1,8,-1
 133 133 l 1,9,-1
 184 82 l 1,10,-1
 384 304 l 1,11,-1
 584 82 l 1,12,-1
 635 133 l 1,13,-1
 432 358 l 1,14,-1
 635 584 l 1,15,-1
 584 635 l 1,4,-1
132 28 m 1,16,-1
 140 28 l 1,17,-1
 140 40 l 1,18,-1
 144 40 l 2,19,20
 150 40 150 40 155.5 42.5 c 128,-1,21
 161 45 161 45 161 52 c 0,22,23
 161 60 161 60 155.5 62.5 c 128,-1,24
 150 65 150 65 143 65 c 2,25,-1
 132 65 l 1,26,-1
 132 28 l 1,16,-1
144 58 m 2,27,28
 152 58 152 58 153 53 c 256,29,30
 153 48 153 48 150 47.5 c 128,-1,31
 147 47 147 47 143 47 c 2,32,-1
 140 47 l 1,33,-1
 140 58 l 1,34,-1
 144 58 l 2,27,28
194 65 m 1,35,-1
 162 65 l 1,36,-1
 162 58 l 1,37,-1
 174 58 l 1,38,-1
 174 28 l 1,39,-1
 181 28 l 1,40,-1
 181 58 l 1,41,-1
 194 58 l 1,42,-1
 194 65 l 1,35,-1
227 38 m 0,43,44
 227 34 227 34 220 34 c 256,45,46
 213 34 213 34 211 36 c 1,47,-1
 208 29 l 1,48,49
 210 29 210 29 213 28 c 128,-1,50
 216 27 216 27 221 27 c 0,51,52
 235 27 235 27 236 39 c 0,53,54
 236 48 236 48 226.5 49 c 128,-1,55
 217 50 217 50 217 55 c 0,56,57
 217 58 217 58 223 58 c 0,58,59
 228 58 228 58 232 56 c 1,60,-1
 234 63 l 1,61,62
 228 65 228 65 223 66 c 0,63,64
 209 66 209 66 209 54 c 0,65,66
 209 49 209 49 212 47 c 128,-1,67
 215 45 215 45 218 43.5 c 128,-1,68
 221 42 221 42 224 41 c 128,-1,69
 227 40 227 40 227 38 c 0,43,44
243 48 m 1,70,71
 247 50 247 50 252 50 c 256,72,73
 257 50 257 50 257 46 c 2,74,-1
 257 44 l 1,75,76
 256 44 256 44 255 44.5 c 128,-1,77
 254 45 254 45 252 45 c 0,78,79
 240 45 240 45 240 35 c 0,80,81
 240 27 240 27 248 27 c 0,82,83
 254 27 254 27 257 32 c 1,84,-1
 259 28 l 1,85,-1
 265 28 l 1,86,87
 264 30 264 30 264 35 c 2,88,-1
 264 46 l 2,89,90
 264 56 264 56 254 56 c 0,91,92
 250 56 250 56 246.5 55 c 128,-1,93
 243 54 243 54 241 53 c 1,94,-1
 243 48 l 1,70,71
251 33 m 256,95,96
 247 33 247 33 247 37 c 256,97,98
 247 41 247 41 252 41 c 0,99,100
 254 41 254 41 255 40.5 c 128,-1,101
 256 40 256 40 257 40 c 1,102,-1
 257 37 l 1,103,104
 255 33 255 33 251 33 c 256,95,96
299 28 m 1,105,-1
 299 44 l 2,106,107
 299 56 299 56 290 56 c 0,108,109
 283 56 283 56 280 51 c 1,110,-1
 278 55 l 1,111,-1
 272 55 l 1,112,-1
 272 28 l 1,113,-1
 280 28 l 1,114,-1
 280 45 l 1,115,116
 282 49 282 49 286 49 c 0,117,118
 291 49 291 49 291 43 c 2,119,-1
 291 28 l 1,120,-1
 299 28 l 1,105,-1
304 29 m 1,121,122
 308 27 308 27 314 27 c 0,123,124
 325 27 325 27 326 36 c 0,125,126
 326 41 326 41 323.5 42 c 128,-1,127
 321 43 321 43 317 45 c 0,128,129
 312 47 312 47 312 48 c 0,130,131
 312 50 312 50 315 50 c 0,132,133
 319 50 319 50 324 48 c 1,134,-1
 326 54 l 1,135,136
 322 56 322 56 315 56 c 0,137,138
 305 56 305 56 305 47 c 0,139,140
 305 42 305 42 308 40.5 c 128,-1,141
 311 39 311 39 313 38 c 1,142,143
 318 38 318 38 318 35 c 0,144,145
 318 33 318 33 315 33 c 0,146,147
 310 33 310 33 306 35 c 1,148,-1
 304 29 l 1,121,122
346 43 m 0,149,150
 346 21 346 21 367 22 c 256,151,152
 387 22 387 22 387 43 c 0,153,154
 387 63 387 63 367 63 c 0,155,156
 359 63 359 63 352.5 57.5 c 128,-1,157
 346 52 346 52 346 43 c 0,149,150
352 43 m 256,158,159
 352 58 352 58 367 58 c 256,160,161
 381 58 381 58 381 43 c 256,162,163
 381 28 381 28 367 28 c 256,164,165
 352 28 352 28 352 43 c 256,158,159
373 39 m 1,166,167
 371 38 371 38 369 38 c 0,168,169
 365 38 365 38 365 43 c 0,170,171
 365 47 365 47 369 47 c 2,172,-1
 372 47 l 1,173,-1
 374 51 l 1,174,175
 370 53 370 53 367 53 c 0,176,177
 358 53 358 53 357 43 c 0,178,179
 357 32 357 32 367 32 c 0,180,181
 372 32 372 32 374 34 c 1,182,-1
 373 39 l 1,166,167
409 28 m 1,183,-1
 417 28 l 1,184,-1
 417 40 l 1,185,-1
 421 40 l 2,186,187
 427 40 427 40 432 42.5 c 128,-1,188
 437 45 437 45 437 52 c 0,189,190
 437 60 437 60 431.5 62.5 c 128,-1,191
 426 65 426 65 420 65 c 2,192,-1
 409 65 l 1,193,-1
 409 28 l 1,183,-1
421 58 m 2,194,195
 429 58 429 58 429 53 c 256,196,197
 429 48 429 48 426.5 47.5 c 128,-1,198
 424 47 424 47 420 47 c 2,199,-1
 417 47 l 1,200,-1
 417 58 l 1,201,-1
 421 58 l 2,194,195
442 48 m 1,202,203
 446 50 446 50 452 50 c 256,204,205
 457 50 457 50 457 46 c 2,206,-1
 457 44 l 1,207,208
 456 44 456 44 455 44.5 c 128,-1,209
 454 45 454 45 452 45 c 0,210,211
 439 45 439 45 438 35 c 0,212,213
 438 27 438 27 447 27 c 0,214,215
 453 27 453 27 457 32 c 1,216,-1
 459 28 l 1,217,-1
 465 28 l 1,218,219
 464 30 464 30 464 35 c 2,220,-1
 464 46 l 2,221,222
 464 56 464 56 454 56 c 0,223,224
 450 56 450 56 446 55 c 128,-1,225
 442 54 442 54 440 53 c 1,226,-1
 442 48 l 1,202,203
451 33 m 256,227,228
 447 33 447 33 446 37 c 256,229,230
 446 41 446 41 452 41 c 0,231,232
 454 41 454 41 455 40.5 c 128,-1,233
 456 40 456 40 457 40 c 1,234,-1
 457 37 l 1,235,236
 455 33 455 33 451 33 c 256,227,228
489 55 m 1,237,238
 488 56 488 56 485 56 c 0,239,240
 481 56 481 56 479 51 c 1,241,-1
 478 51 l 1,242,-1
 477 55 l 1,243,-1
 471 55 l 1,244,-1
 471 28 l 1,245,-1
 479 28 l 1,246,-1
 479 45 l 2,247,248
 479 49 479 49 485 49 c 2,249,-1
 486 49 l 2,250,251
 487 49 487 49 487 48.5 c 128,-1,252
 487 48 487 48 488 48 c 2,253,-1
 489 55 l 1,237,238
495 48 m 1,254,255
 501 50 501 50 504 50 c 0,256,257
 509 50 509 50 509 46 c 2,258,-1
 509 44 l 1,259,260
 508 44 508 44 507 44.5 c 128,-1,261
 506 45 506 45 504 45 c 0,262,263
 491 45 491 45 490 35 c 0,264,265
 490 27 490 27 500 27 c 0,266,267
 507 27 507 27 509 32 c 1,268,-1
 510 32 l 1,269,-1
 511 28 l 1,270,-1
 517 28 l 1,271,272
 516 30 516 30 516 35 c 2,273,-1
 516 46 l 2,274,275
 516 56 516 56 506 56 c 0,276,277
 502 56 502 56 499 55 c 128,-1,278
 496 54 496 54 494 53 c 1,279,-1
 495 48 l 1,254,255
503 33 m 256,280,281
 499 33 499 33 499 37 c 256,282,283
 499 41 499 41 504 41 c 0,284,285
 506 41 506 41 507 40.5 c 128,-1,286
 508 40 508 40 509 40 c 1,287,-1
 509 37 l 1,288,289
 507 33 507 33 503 33 c 256,280,281
546 65 m 1,290,-1
 514 65 l 1,291,-1
 514 58 l 1,292,-1
 525 58 l 1,293,-1
 525 28 l 1,294,-1
 534 28 l 1,295,-1
 534 58 l 1,296,-1
 546 58 l 1,297,-1
 546 65 l 1,290,-1
554 55 m 1,298,-1
 546 55 l 1,299,-1
 558 28 l 1,300,301
 557 23 557 23 553 23 c 1,302,-1
 552 24 l 1,303,-1
 550 17 l 1,304,305
 552 16 552 16 555 16 c 0,306,307
 560 16 560 16 565 30 c 2,308,-1
 575 55 l 1,309,-1
 567 55 l 1,310,-1
 562 40 l 1,311,-1
 562 35 l 1,312,-1
 561 35 l 1,313,-1
 560 40 l 1,314,-1
 554 55 l 1,298,-1
579 16 m 1,315,-1
 587 16 l 1,316,-1
 587 29 l 1,317,318
 588 27 588 27 592 27 c 0,319,320
 606 27 606 27 606 42 c 0,321,322
 606 56 606 56 595 56 c 0,323,324
 590 56 590 56 586 52 c 1,325,-1
 585 52 l 1,326,-1
 584 55 l 1,327,-1
 579 55 l 1,328,-1
 579 16 l 1,315,-1
593 50 m 0,329,330
 598 50 598 50 598 42 c 0,331,332
 598 33 598 33 591 33 c 0,333,334
 589 33 589 33 587 35 c 1,335,-1
 587 45 l 2,336,337
 587 50 587 50 593 50 c 0,329,330
633 35 m 1,338,339
 631 33 631 33 626 33 c 0,340,341
 619 33 619 33 617 39 c 1,342,-1
 637 39 l 1,343,-1
 637 45 l 2,344,345
 637 51 637 51 633.5 53.5 c 128,-1,346
 630 56 630 56 625 56 c 0,347,348
 611 56 611 56 610 41 c 0,349,350
 610 27 610 27 625 27 c 0,351,352
 628 27 628 27 631 28 c 128,-1,353
 634 29 634 29 636 30 c 1,354,-1
 633 35 l 1,338,339
625 50 m 256,355,356
 631 50 631 50 630 44 c 1,357,-1
 618 44 l 1,358,359
 619 50 619 50 625 50 c 256,355,356
EndSplineSet
EndChar

StartChar: exclam
Encoding: 33 33 4
Width: 252
Flags: W
LayerCount: 2
Fore
SplineSet
103 717 m 1,0,-1
 180 717 l 1,1,-1
 180 361 l 1,2,-1
 165 181 l 1,3,-1
 119 181 l 1,4,-1
 103 361 l 1,5,-1
 103 717 l 1,0,-1
90 46 m 0,6,7
 90 75 90 75 104 89 c 128,-1,8
 118 103 118 103 141 103 c 256,9,10
 165 103 165 103 179 89 c 128,-1,11
 193 75 193 75 193 46 c 0,12,13
 193 16 193 16 179 2 c 128,-1,14
 165 -12 165 -12 141 -12 c 256,15,16
 117 -12 117 -12 103.5 2 c 128,-1,17
 90 16 90 16 90 46 c 0,6,7
EndSplineSet
EndChar

StartChar: numbersign
Encoding: 35 35 6
Width: 460
Flags: W
LayerCount: 2
Fore
SplineSet
236 230 m 1,0,-1
 152 230 l 1,1,-1
 119 59 l 1,2,-1
 56 59 l 1,3,-1
 89 230 l 1,4,-1
 25 230 l 1,5,-1
 38 292 l 1,6,-1
 100 292 l 1,7,-1
 128 435 l 1,8,-1
 66 435 l 1,9,-1
 79 497 l 1,10,-1
 140 497 l 1,11,-1
 171 657 l 1,12,-1
 233 657 l 1,13,-1
 203 497 l 1,14,-1
 287 497 l 1,15,-1
 318 657 l 1,16,-1
 381 657 l 1,17,-1
 350 497 l 1,18,-1
 413 497 l 1,19,-1
 398 435 l 1,20,-1
 338 435 l 1,21,-1
 310 292 l 1,22,-1
 372 292 l 1,23,-1
 357 230 l 1,24,-1
 299 230 l 1,25,-1
 266 59 l 1,26,-1
 203 59 l 1,27,-1
 236 230 l 1,0,-1
163 292 m 1,28,-1
 248 292 l 1,29,-1
 275 435 l 1,30,-1
 190 435 l 1,31,-1
 163 292 l 1,28,-1
EndSplineSet
EndChar

StartChar: dollar
Encoding: 36 36 7
Width: 460
Flags: W
LayerCount: 2
Fore
SplineSet
201 -12 m 1,0,1
 156 -10 156 -10 121.5 -3 c 128,-1,2
 87 4 87 4 65 18 c 1,3,-1
 88 88 l 1,4,5
 104 77 104 77 133 66.5 c 128,-1,6
 162 56 162 56 201 54 c 1,7,-1
 201 345 l 1,8,9
 175 361 175 361 151 379.5 c 128,-1,10
 127 398 127 398 108 422.5 c 128,-1,11
 89 447 89 447 77.5 479.5 c 128,-1,12
 66 512 66 512 66 556 c 0,13,14
 66 624 66 624 100 669.5 c 128,-1,15
 134 715 134 715 201 726 c 1,16,-1
 201 819 l 1,17,-1
 263 819 l 1,18,-1
 263 728 l 1,19,20
 303 726 303 726 329.5 720.5 c 128,-1,21
 356 715 356 715 380 703 c 1,22,-1
 356 637 l 1,23,24
 339 646 339 646 317.5 652.5 c 128,-1,25
 296 659 296 659 263 662 c 1,26,-1
 263 397 l 1,27,28
 289 380 289 380 314.5 360.5 c 128,-1,29
 340 341 340 341 360 316 c 128,-1,30
 380 291 380 291 392 258.5 c 128,-1,31
 404 226 404 226 404 183 c 0,32,33
 404 109 404 109 368 58 c 128,-1,34
 332 7 332 7 263 -7 c 1,35,-1
 263 -102 l 1,36,-1
 201 -102 l 1,37,-1
 201 -12 l 1,0,1
247 58 m 1,38,39
 284 66 284 66 306 96.5 c 128,-1,40
 328 127 328 127 328 178 c 0,41,42
 328 227 328 227 304.5 258 c 128,-1,43
 281 289 281 289 247 313 c 1,44,-1
 247 58 l 1,38,39
217 659 m 1,45,46
 175 651 175 651 158.5 621.5 c 128,-1,47
 142 592 142 592 142 559 c 0,48,49
 142 514 142 514 163 484.5 c 128,-1,50
 184 455 184 455 217 430 c 1,51,-1
 217 659 l 1,45,46
EndSplineSet
EndChar

StartChar: ampersand
Encoding: 38 38 9
Width: 671
Flags: W
LayerCount: 2
Fore
SplineSet
93 193 m 0,0,1
 93 234 93 234 105.5 270 c 128,-1,2
 118 306 118 306 138 337.5 c 128,-1,3
 158 369 158 369 183.5 394.5 c 128,-1,4
 209 420 209 420 236 440 c 1,5,6
 216 477 216 477 200 516 c 128,-1,7
 184 555 184 555 184 598 c 0,8,9
 184 623 184 623 191 646.5 c 128,-1,10
 198 670 198 670 213 688.5 c 128,-1,11
 228 707 228 707 251.5 718 c 128,-1,12
 275 729 275 729 309 729 c 0,13,14
 344 729 344 729 368 719 c 128,-1,15
 392 709 392 709 406.5 692.5 c 128,-1,16
 421 676 421 676 427.5 655 c 128,-1,17
 434 634 434 634 434 611 c 0,18,19
 434 567 434 567 406.5 521 c 128,-1,20
 379 475 379 475 323 431 c 1,21,22
 336 402 336 402 353 371 c 128,-1,23
 370 340 370 340 389 309 c 128,-1,24
 408 278 408 278 427.5 247.5 c 128,-1,25
 447 217 447 217 467 191 c 1,26,27
 485 217 485 217 501.5 260 c 128,-1,28
 518 303 518 303 528 343 c 1,29,-1
 588 319 l 1,30,31
 583 302 583 302 573.5 277.5 c 128,-1,32
 564 253 564 253 553.5 228 c 128,-1,33
 543 203 543 203 531 180 c 128,-1,34
 519 157 519 157 509 141 c 1,35,36
 543 101 543 101 566 79 c 128,-1,37
 589 57 589 57 612 41 c 1,38,-1
 566 -12 l 1,39,40
 520 15 520 15 466 83 c 1,41,42
 452 65 452 65 434 48 c 128,-1,43
 416 31 416 31 394 17.5 c 128,-1,44
 372 4 372 4 344.5 -4 c 128,-1,45
 317 -12 317 -12 286 -12 c 0,46,47
 246 -12 246 -12 210.5 0.5 c 128,-1,48
 175 13 175 13 149 39 c 128,-1,49
 123 65 123 65 108 103.5 c 128,-1,50
 93 142 93 142 93 193 c 0,0,1
423 133 m 1,51,52
 399 163 399 163 376.5 196.5 c 128,-1,53
 354 230 354 230 333.5 264 c 128,-1,54
 313 298 313 298 296.5 329.5 c 128,-1,55
 280 361 280 361 268 388 c 1,56,57
 246 368 246 368 228 347.5 c 128,-1,58
 210 327 210 327 196 304 c 128,-1,59
 182 281 182 281 174.5 253.5 c 128,-1,60
 167 226 167 226 167 194 c 0,61,62
 167 160 167 160 177 134 c 128,-1,63
 187 108 187 108 205 90.5 c 128,-1,64
 223 73 223 73 246 63.5 c 128,-1,65
 269 54 269 54 295 54 c 0,66,67
 314 54 314 54 333.5 61.5 c 128,-1,68
 353 69 353 69 370 80 c 128,-1,69
 387 91 387 91 400.5 105 c 128,-1,70
 414 119 414 119 423 133 c 1,51,52
258 598 m 0,71,72
 258 567 258 567 268 537.5 c 128,-1,73
 278 508 278 508 293 477 c 1,74,75
 335 513 335 513 351 542.5 c 128,-1,76
 367 572 367 572 367 596 c 0,77,78
 367 625 367 625 355 646 c 128,-1,79
 343 667 343 667 312 667 c 0,80,81
 283 667 283 667 270.5 647.5 c 128,-1,82
 258 628 258 628 258 598 c 0,71,72
EndSplineSet
EndChar

StartChar: quotesingle
Encoding: 39 39 10
Width: 185
Flags: W
LayerCount: 2
Fore
SplineSet
74 717 m 1,0,-1
 144 717 l 1,1,-1
 118 519 l 1,2,-1
 74 519 l 1,3,-1
 74 717 l 1,0,-1
EndSplineSet
Substitution2: "'aalt' Access All Alternates lookup 0 subtable" uniF634
EndChar

StartChar: parenleft
Encoding: 40 40 11
Width: 238
Flags: W
LayerCount: 2
Fore
SplineSet
187 -225 m 1,0,1
 148 -176 148 -176 122 -117 c 128,-1,2
 96 -58 96 -58 79.5 4 c 128,-1,3
 63 66 63 66 56 128.5 c 128,-1,4
 49 191 49 191 49 249 c 0,5,6
 49 305 49 305 56 367.5 c 128,-1,7
 63 430 63 430 79.5 493 c 128,-1,8
 96 556 96 556 123.5 616.5 c 128,-1,9
 151 677 151 677 189 729 c 1,10,-1
 236 701 l 1,11,12
 203 649 203 649 181.5 592 c 128,-1,13
 160 535 160 535 147 476 c 128,-1,14
 134 417 134 417 128.5 359 c 128,-1,15
 123 301 123 301 123 249 c 0,16,17
 123 200 123 200 129 141 c 128,-1,18
 135 82 135 82 149 22.5 c 128,-1,19
 163 -37 163 -37 184.5 -93.5 c 128,-1,20
 206 -150 206 -150 236 -195 c 1,21,-1
 187 -225 l 1,0,1
EndSplineSet
Position2: "'case' Case-Sensitive Forms lookup 1 per glyph data 3" dx=0 dy=102 dh=0 dv=0
EndChar

StartChar: parenright
Encoding: 41 41 12
Width: 238
Flags: W
LayerCount: 2
Fore
SplineSet
49 -195 m 1,0,1
 79 -150 79 -150 100.5 -93.5 c 128,-1,2
 122 -37 122 -37 136 22.5 c 128,-1,3
 150 82 150 82 156 141 c 128,-1,4
 162 200 162 200 162 249 c 0,5,6
 162 301 162 301 156.5 359 c 128,-1,7
 151 417 151 417 138 476 c 128,-1,8
 125 535 125 535 103 592 c 128,-1,9
 81 649 81 649 49 701 c 1,10,-1
 95 729 l 1,11,12
 134 677 134 677 161 616.5 c 128,-1,13
 188 556 188 556 204.5 493 c 128,-1,14
 221 430 221 430 228.5 367.5 c 128,-1,15
 236 305 236 305 236 249 c 0,16,17
 236 192 236 192 228.5 129 c 128,-1,18
 221 66 221 66 204.5 4 c 128,-1,19
 188 -58 188 -58 161.5 -117 c 128,-1,20
 135 -176 135 -176 97 -225 c 1,21,-1
 49 -195 l 1,0,1
EndSplineSet
Position2: "'case' Case-Sensitive Forms lookup 1 per glyph data 3" dx=0 dy=102 dh=0 dv=0
EndChar

StartChar: asterisk
Encoding: 42 42 13
Width: 297
Flags: W
LayerCount: 2
Fore
SplineSet
111 720 m 1,0,-1
 131 681 l 1,1,-1
 146 628 l 1,2,-1
 163 681 l 1,3,-1
 184 719 l 1,4,-1
 229 694 l 1,5,-1
 206 653 l 1,6,-1
 167 609 l 1,7,-1
 223 621 l 1,8,-1
 266 621 l 1,9,-1
 266 568 l 1,10,-1
 226 568 l 1,11,-1
 171 580 l 1,12,-1
 211 535 l 1,13,-1
 231 499 l 1,14,-1
 187 473 l 1,15,-1
 166 512 l 1,16,-1
 146 568 l 1,17,-1
 131 514 l 1,18,-1
 110 476 l 1,19,-1
 65 502 l 1,20,-1
 88 541 l 1,21,-1
 124 580 l 1,22,-1
 76 568 l 1,23,-1
 31 568 l 1,24,-1
 31 621 l 1,25,-1
 76 621 l 1,26,-1
 127 609 l 1,27,-1
 88 651 l 1,28,-1
 66 693 l 1,29,-1
 111 720 l 1,0,-1
EndSplineSet
EndChar

StartChar: plus
Encoding: 43 43 14
Width: 424
Flags: W
LayerCount: 2
Fore
SplineSet
36 382 m 1,0,-1
 177 382 l 1,1,-1
 177 542 l 1,2,-1
 247 542 l 1,3,-1
 247 382 l 1,4,-1
 388 382 l 1,5,-1
 388 313 l 1,6,-1
 247 313 l 1,7,-1
 247 154 l 1,8,-1
 177 154 l 1,9,-1
 177 313 l 1,10,-1
 36 313 l 1,11,-1
 36 382 l 1,0,-1
EndSplineSet
EndChar

StartChar: comma
Encoding: 44 44 15
Width: 190
Flags: W
LayerCount: 2
Fore
SplineSet
37 44 m 4,0,1
 37 70 37 70 52 85 c 132,-1,2
 67 100 67 100 90 100 c 4,3,4
 117 100 117 100 134 78.5 c 132,-1,5
 151 57 151 57 151 11 c 4,6,7
 151 -23 151 -23 142 -50 c 132,-1,8
 133 -77 133 -77 119 -97.5 c 132,-1,9
 105 -118 105 -118 89 -131 c 132,-1,10
 73 -144 73 -144 57 -151 c 5,11,-1
 32 -116 l 5,12,13
 45 -109 45 -109 57 -97 c 132,-1,14
 69 -85 69 -85 76.5 -70.5 c 132,-1,15
 84 -56 84 -56 88 -40.5 c 132,-1,16
 92 -25 92 -25 92 -9 c 5,17,18
 72 -15 72 -15 54.5 -1 c 132,-1,19
 37 13 37 13 37 44 c 4,0,1
EndSplineSet
EndChar

StartChar: hyphen
Encoding: 45 45 16
Width: 297
Flags: W
LayerCount: 2
Fore
SplineSet
48 328 m 1,0,-1
 250 328 l 1,1,-1
 250 257 l 1,2,-1
 48 257 l 1,3,-1
 48 328 l 1,0,-1
EndSplineSet
Position2: "'case' Case-Sensitive Forms lookup 1 per glyph data 2" dx=0 dy=82 dh=0 dv=0
EndChar

StartChar: period
Encoding: 46 46 17
Width: 182
Flags: W
LayerCount: 2
Fore
SplineSet
40 46 m 4,0,1
 40 75 40 75 54 89 c 132,-1,2
 68 103 68 103 91 103 c 260,3,4
 115 103 115 103 128.5 89 c 132,-1,5
 142 75 142 75 142 46 c 4,6,7
 142 16 142 16 128.5 2 c 132,-1,8
 115 -12 115 -12 91 -12 c 260,9,10
 67 -12 67 -12 53.5 2 c 132,-1,11
 40 16 40 16 40 46 c 4,0,1
EndSplineSet
EndChar

StartChar: slash
Encoding: 47 47 18
Width: 302
Flags: W
LayerCount: 2
Fore
SplineSet
272 729 m 1,0,-1
 330 707 l 1,1,-1
 31 -143 l 1,2,-1
 -29 -122 l 1,3,-1
 272 729 l 1,0,-1
EndSplineSet
EndChar

StartChar: zero
Encoding: 48 48 19
Width: 460
Flags: W
LayerCount: 2
Fore
SplineSet
39 358 m 0,0,1
 39 456 39 456 51 527 c 128,-1,2
 63 598 63 598 88 642.5 c 128,-1,3
 113 687 113 687 148.5 708 c 128,-1,4
 184 729 184 729 230 729 c 0,5,6
 279 729 279 729 315.5 708 c 128,-1,7
 352 687 352 687 375.5 642.5 c 128,-1,8
 399 598 399 598 410.5 527.5 c 128,-1,9
 422 457 422 457 422 358 c 256,10,11
 422 259 422 259 409.5 189 c 128,-1,12
 397 119 397 119 372.5 74.5 c 128,-1,13
 348 30 348 30 313 9 c 128,-1,14
 278 -12 278 -12 231 -12 c 0,15,16
 181 -12 181 -12 145 9.5 c 128,-1,17
 109 31 109 31 85 76 c 128,-1,18
 61 121 61 121 50 191 c 128,-1,19
 39 261 39 261 39 358 c 0,0,1
116 358 m 0,20,21
 116 212 116 212 143.5 133 c 128,-1,22
 171 54 171 54 232 54 c 0,23,24
 291 54 291 54 318.5 126.5 c 128,-1,25
 346 199 346 199 346 358 c 0,26,27
 346 503 346 503 320 583 c 128,-1,28
 294 663 294 663 230 663 c 0,29,30
 171 663 171 663 143.5 591 c 128,-1,31
 116 519 116 519 116 358 c 0,20,21
EndSplineSet
EndChar

StartChar: one
Encoding: 49 49 20
Width: 460
Flags: W
LayerCount: 2
Fore
SplineSet
96 69 m 1,0,-1
 212 69 l 1,1,-1
 212 567 l 1,2,-1
 221 628 l 1,3,-1
 186 579 l 1,4,-1
 100 509 l 1,5,-1
 61 555 l 1,6,-1
 248 729 l 1,7,-1
 286 729 l 1,8,-1
 286 69 l 1,9,-1
 397 69 l 1,10,-1
 397 0 l 1,11,-1
 96 0 l 1,12,-1
 96 69 l 1,0,-1
EndSplineSet
Substitution2: "'sups' Superscript lookup 8 subtable" onesuperior
AlternateSubs2: "'aalt' Access All Alternates lookup 1 subtable" one.numerator onesuperior
EndChar

StartChar: two
Encoding: 50 50 21
Width: 460
Flags: W
LayerCount: 2
Fore
SplineSet
377 560 m 0,0,1
 377 504 377 504 360 442.5 c 128,-1,2
 343 381 343 381 317 321 c 128,-1,3
 291 261 291 261 258.5 206 c 128,-1,4
 226 151 226 151 196 108 c 1,5,-1
 155 62 l 1,6,-1
 155 59 l 1,7,-1
 209 69 l 1,8,-1
 388 69 l 1,9,-1
 388 0 l 1,10,-1
 56 0 l 1,11,-1
 56 33 l 1,12,13
 75 57 75 57 101 92.5 c 128,-1,14
 127 128 127 128 154 170.5 c 128,-1,15
 181 213 181 213 207 260.5 c 128,-1,16
 233 308 233 308 253.5 357.5 c 128,-1,17
 274 407 274 407 287 455 c 128,-1,18
 300 503 300 503 300 547 c 0,19,20
 300 599 300 599 276 629.5 c 128,-1,21
 252 660 252 660 206 660 c 0,22,23
 176 660 176 660 148 649.5 c 128,-1,24
 120 639 120 639 99 623 c 1,25,-1
 71 677 l 1,26,27
 99 702 99 702 138.5 715.5 c 128,-1,28
 178 729 178 729 222 729 c 0,29,30
 298 729 298 729 337.5 682.5 c 128,-1,31
 377 636 377 636 377 560 c 0,0,1
EndSplineSet
Substitution2: "'sups' Superscript lookup 8 subtable" twosuperior
Substitution2: "'aalt' Access All Alternates lookup 0 subtable" twosuperior
EndChar

StartChar: three
Encoding: 51 51 22
Width: 460
Flags: W
LayerCount: 2
Fore
SplineSet
95 78 m 1,0,1
 114 67 114 67 139.5 60.5 c 128,-1,2
 165 54 165 54 198 54 c 0,3,4
 226 54 226 54 248.5 65.5 c 128,-1,5
 271 77 271 77 288 97.5 c 128,-1,6
 305 118 305 118 314.5 146 c 128,-1,7
 324 174 324 174 324 208 c 0,8,9
 324 284 324 284 290.5 318.5 c 128,-1,10
 257 353 257 353 198 353 c 2,11,-1
 136 353 l 1,12,-1
 136 383 l 1,13,-1
 255 612 l 1,14,-1
 295 655 l 1,15,-1
 239 648 l 1,16,-1
 78 648 l 1,17,-1
 78 717 l 1,18,-1
 375 717 l 1,19,-1
 375 687 l 1,20,-1
 244 442 l 1,21,-1
 213 413 l 1,22,-1
 213 411 l 1,23,-1
 243 417 l 1,24,25
 275 417 275 417 303.5 404 c 128,-1,26
 332 391 332 391 352.5 366 c 128,-1,27
 373 341 373 341 385 304 c 128,-1,28
 397 267 397 267 397 218 c 0,29,30
 397 163 397 163 381.5 120 c 128,-1,31
 366 77 366 77 338.5 47.5 c 128,-1,32
 311 18 311 18 275 3 c 128,-1,33
 239 -12 239 -12 198 -12 c 0,34,35
 162 -12 162 -12 130 -6 c 128,-1,36
 98 0 98 0 75 11 c 1,37,-1
 95 78 l 1,0,1
EndSplineSet
Substitution2: "'sups' Superscript lookup 8 subtable" threesuperior
Substitution2: "'aalt' Access All Alternates lookup 0 subtable" threesuperior
EndChar

StartChar: four
Encoding: 52 52 23
Width: 460
Flags: W
LayerCount: 2
Fore
SplineSet
441 220 m 1,0,-1
 346 220 l 1,1,-1
 346 0 l 1,2,-1
 272 0 l 1,3,-1
 272 220 l 1,4,-1
 20 220 l 1,5,-1
 20 255 l 1,6,-1
 292 728 l 1,7,-1
 346 728 l 1,8,-1
 346 287 l 1,9,-1
 441 287 l 1,10,-1
 441 220 l 1,0,-1
272 516 m 1,11,-1
 285 604 l 1,12,-1
 282 604 l 1,13,-1
 251 525 l 1,14,-1
 138 330 l 1,15,-1
 99 280 l 1,16,-1
 156 287 l 1,17,-1
 272 287 l 1,18,-1
 272 516 l 1,11,-1
EndSplineSet
EndChar

StartChar: five
Encoding: 53 53 24
Width: 460
Flags: W
LayerCount: 2
Fore
SplineSet
366 717 m 1,0,-1
 366 645 l 1,1,-1
 171 645 l 1,2,-1
 171 436 l 1,3,-1
 206 439 l 1,4,5
 288 438 288 438 335 383 c 128,-1,6
 382 328 382 328 383 224 c 1,7,8
 382 167 382 167 366 123 c 128,-1,9
 350 79 350 79 322.5 48.5 c 128,-1,10
 295 18 295 18 258 3 c 128,-1,11
 221 -12 221 -12 179 -12 c 0,12,13
 108 -12 108 -12 66 7 c 1,14,-1
 84 73 l 1,15,16
 102 64 102 64 124.5 60 c 128,-1,17
 147 56 147 56 177 56 c 0,18,19
 235 56 235 56 271.5 98.5 c 128,-1,20
 308 141 308 141 309 218 c 1,21,22
 308 297 308 297 272 335 c 128,-1,23
 236 373 236 373 171 373 c 1,24,-1
 103 368 l 1,25,-1
 103 717 l 1,26,-1
 366 717 l 1,0,-1
EndSplineSet
EndChar

StartChar: six
Encoding: 54 54 25
Width: 460
Flags: W
LayerCount: 2
Fore
SplineSet
415 216 m 1,0,1
 414 165 414 165 402 122.5 c 128,-1,2
 390 80 390 80 367 50 c 128,-1,3
 344 20 344 20 311 4 c 128,-1,4
 278 -12 278 -12 236 -12 c 0,5,6
 150 -12 150 -12 101 50.5 c 128,-1,7
 52 113 52 113 52 241 c 0,8,9
 52 350 52 350 74 434.5 c 128,-1,10
 96 519 96 519 134 580.5 c 128,-1,11
 172 642 172 642 223 679.5 c 128,-1,12
 274 717 274 717 333 729 c 1,13,-1
 353 670 l 1,14,15
 307 658 307 658 269 629 c 128,-1,16
 231 600 231 600 202.5 559 c 128,-1,17
 174 518 174 518 155 467 c 128,-1,18
 136 416 136 416 129 357 c 1,19,20
 142 385 142 385 173.5 405.5 c 128,-1,21
 205 426 205 426 251 426 c 0,22,23
 325 426 325 426 369.5 373.5 c 128,-1,24
 414 321 414 321 415 216 c 1,0,1
340 209 m 0,25,26
 340 360 340 360 231 359 c 0,27,28
 192 359 192 359 164.5 334.5 c 128,-1,29
 137 310 137 310 126 280 c 1,30,31
 124 267 124 267 124 254 c 128,-1,32
 124 241 124 241 125 229 c 1,33,34
 124 195 124 195 130.5 164 c 128,-1,35
 137 133 137 133 151 108.5 c 128,-1,36
 165 84 165 84 186 69 c 128,-1,37
 207 54 207 54 236 54 c 0,38,39
 282 54 282 54 311 95 c 128,-1,40
 340 136 340 136 340 209 c 0,25,26
EndSplineSet
EndChar

StartChar: seven
Encoding: 55 55 26
Width: 460
Flags: W
LayerCount: 2
Fore
SplineSet
97 0 m 1,0,-1
 304 605 l 1,1,-1
 341 655 l 1,2,-1
 292 646 l 1,3,-1
 57 646 l 1,4,-1
 57 717 l 1,5,-1
 407 717 l 1,6,-1
 407 689 l 1,7,-1
 171 0 l 1,8,-1
 97 0 l 1,0,-1
EndSplineSet
EndChar

StartChar: eight
Encoding: 56 56 27
Width: 460
Flags: W
LayerCount: 2
Fore
SplineSet
59 166 m 0,0,1
 59 235 59 235 87.5 283 c 128,-1,2
 116 331 116 331 171 370 c 1,3,4
 151 385 151 385 133 402 c 128,-1,5
 115 419 115 419 101.5 440.5 c 128,-1,6
 88 462 88 462 80.5 488.5 c 128,-1,7
 73 515 73 515 73 550 c 0,8,9
 73 633 73 633 116.5 681 c 128,-1,10
 160 729 160 729 236 729 c 0,11,12
 307 729 307 729 348 685.5 c 128,-1,13
 389 642 389 642 389 566 c 0,14,15
 389 508 389 508 366.5 463 c 128,-1,16
 344 418 344 418 296 375 c 1,17,18
 318 360 318 360 337 341.5 c 128,-1,19
 356 323 356 323 371 299.5 c 128,-1,20
 386 276 386 276 394 247 c 128,-1,21
 402 218 402 218 402 180 c 0,22,23
 402 93 402 93 355.5 40.5 c 128,-1,24
 309 -12 309 -12 226 -12 c 0,25,26
 186 -12 186 -12 155.5 1 c 128,-1,27
 125 14 125 14 103.5 37.5 c 128,-1,28
 82 61 82 61 70.5 94 c 128,-1,29
 59 127 59 127 59 166 c 0,0,1
219 341 m 1,30,31
 172 306 172 306 151 263 c 128,-1,32
 130 220 130 220 130 177 c 0,33,34
 130 125 130 125 155.5 89.5 c 128,-1,35
 181 54 181 54 230 54 c 0,36,37
 270 54 270 54 299.5 83.5 c 128,-1,38
 329 113 329 113 329 176 c 0,39,40
 329 208 329 208 319.5 232.5 c 128,-1,41
 310 257 310 257 295 276 c 128,-1,42
 280 295 280 295 260.5 311 c 128,-1,43
 241 327 241 327 219 341 c 1,30,31
247 401 m 1,44,45
 282 436 282 436 300 471.5 c 128,-1,46
 318 507 318 507 318 550 c 0,47,48
 318 606 318 606 293 634.5 c 128,-1,49
 268 663 268 663 234 663 c 0,50,51
 212 663 212 663 195.5 654 c 128,-1,52
 179 645 179 645 168 629.5 c 128,-1,53
 157 614 157 614 150.5 594 c 128,-1,54
 144 574 144 574 144 552 c 0,55,56
 144 524 144 524 152.5 502 c 128,-1,57
 161 480 161 480 175 462 c 128,-1,58
 189 444 189 444 208 429 c 128,-1,59
 227 414 227 414 247 401 c 1,44,45
EndSplineSet
EndChar

StartChar: nine
Encoding: 57 57 28
Width: 460
Flags: W
LayerCount: 2
Fore
SplineSet
47 500 m 0,0,1
 47 606 47 606 92.5 667.5 c 128,-1,2
 138 729 138 729 228 729 c 0,3,4
 314 729 314 729 362 665.5 c 128,-1,5
 410 602 410 602 410 471 c 0,6,7
 410 355 410 355 388.5 269.5 c 128,-1,8
 367 184 367 184 329 125.5 c 128,-1,9
 291 67 291 67 239.5 33 c 128,-1,10
 188 -1 188 -1 129 -12 c 1,11,-1
 110 48 l 1,12,13
 208 74 208 74 262 151 c 128,-1,14
 316 228 316 228 331 345 c 1,15,16
 309 315 309 315 283 303 c 128,-1,17
 257 291 257 291 214 291 c 0,18,19
 181 291 181 291 151 303.5 c 128,-1,20
 121 316 121 316 98 342.5 c 128,-1,21
 75 369 75 369 61 408.5 c 128,-1,22
 47 448 47 448 47 500 c 0,0,1
122 508 m 0,23,24
 122 435 122 435 151.5 396 c 128,-1,25
 181 357 181 357 230 357 c 0,26,27
 269 357 269 357 296.5 374 c 128,-1,28
 324 391 324 391 336 418 c 1,29,30
 338 431 338 431 338 443.5 c 128,-1,31
 338 456 338 456 338 467 c 0,32,33
 338 506 338 506 331.5 541.5 c 128,-1,34
 325 577 325 577 311 604 c 128,-1,35
 297 631 297 631 275.5 647 c 128,-1,36
 254 663 254 663 224 663 c 0,37,38
 176 663 176 663 149 621 c 128,-1,39
 122 579 122 579 122 508 c 0,23,24
EndSplineSet
EndChar

StartChar: less
Encoding: 60 60 31
Width: 424
Flags: W
LayerCount: 2
Fore
SplineSet
37 312 m 1,0,-1
 37 342 l 1,1,-1
 344 570 l 1,2,-1
 384 515 l 1,3,-1
 188 367 l 1,4,-1
 113 328 l 1,5,-1
 187 295 l 1,6,-1
 388 147 l 1,7,-1
 349 92 l 1,8,-1
 37 312 l 1,0,-1
EndSplineSet
EndChar

StartChar: greater
Encoding: 62 62 33
Width: 424
Flags: W
LayerCount: 2
Fore
SplineSet
388 352 m 1,0,-1
 388 323 l 1,1,-1
 83 94 l 1,2,-1
 41 148 l 1,3,-1
 238 297 l 1,4,-1
 312 336 l 1,5,-1
 239 369 l 1,6,-1
 37 516 l 1,7,-1
 78 570 l 1,8,-1
 388 352 l 1,0,-1
EndSplineSet
EndChar

StartChar: question
Encoding: 63 63 34
Width: 366
Flags: W
LayerCount: 2
Fore
SplineSet
126 181 m 1,0,1
 123 226 123 226 131.5 261 c 128,-1,2
 140 296 140 296 155.5 325 c 128,-1,3
 171 354 171 354 189 380 c 128,-1,4
 207 406 207 406 223.5 433 c 128,-1,5
 240 460 240 460 250.5 490 c 128,-1,6
 261 520 261 520 261 558 c 0,7,8
 261 605 261 605 240.5 634 c 128,-1,9
 220 663 220 663 171 663 c 0,10,11
 141 663 141 663 112.5 652 c 128,-1,12
 84 641 84 641 61 625 c 1,13,-1
 33 682 l 1,14,15
 64 702 64 702 100 715.5 c 128,-1,16
 136 729 136 729 188 729 c 0,17,18
 262 729 262 729 300 686 c 128,-1,19
 338 643 338 643 338 568 c 0,20,21
 338 524 338 524 326.5 489.5 c 128,-1,22
 315 455 315 455 299 425.5 c 128,-1,23
 283 396 283 396 263.5 369.5 c 128,-1,24
 244 343 244 343 227 315 c 128,-1,25
 210 287 210 287 198.5 254.5 c 128,-1,26
 187 222 187 222 187 181 c 1,27,-1
 126 181 l 1,0,1
111 46 m 0,28,29
 111 75 111 75 124.5 89 c 128,-1,30
 138 103 138 103 162 103 c 256,31,32
 186 103 186 103 199.5 89 c 128,-1,33
 213 75 213 75 213 46 c 0,34,35
 213 16 213 16 199 2 c 128,-1,36
 185 -12 185 -12 162 -12 c 256,37,38
 138 -12 138 -12 124.5 2 c 128,-1,39
 111 16 111 16 111 46 c 0,28,29
EndSplineSet
EndChar

StartChar: at
Encoding: 64 64 35
Width: 877
Flags: W
LayerCount: 2
Fore
SplineSet
579 503 m 1,0,-1
 612 503 l 1,1,-1
 570 205 l 2,2,3
 561 136 561 136 564.5 103 c 128,-1,4
 568 70 568 70 595 70 c 256,5,6
 622 70 622 70 648.5 87 c 128,-1,7
 675 104 675 104 696 138 c 128,-1,8
 717 172 717 172 729.5 221 c 128,-1,9
 742 270 742 270 742 334 c 0,10,11
 742 407 742 407 721 461.5 c 128,-1,12
 700 516 700 516 663 553 c 128,-1,13
 626 590 626 590 572.5 609 c 128,-1,14
 519 628 519 628 455 628 c 0,15,16
 388 628 388 628 329.5 600.5 c 128,-1,17
 271 573 271 573 228 523 c 128,-1,18
 185 473 185 473 160 403.5 c 128,-1,19
 135 334 135 334 135 248 c 0,20,21
 135 159 135 159 158 93.5 c 128,-1,22
 181 28 181 28 223 -16 c 128,-1,23
 265 -60 265 -60 322.5 -81.5 c 128,-1,24
 380 -103 380 -103 450 -103 c 0,25,26
 475 -103 475 -103 507 -97 c 128,-1,27
 539 -91 539 -91 562 -79 c 1,28,-1
 581 -136 l 1,29,30
 546 -152 546 -152 511.5 -159 c 128,-1,31
 477 -166 477 -166 439 -166 c 0,32,33
 364 -166 364 -166 297 -142.5 c 128,-1,34
 230 -119 230 -119 179.5 -69 c 128,-1,35
 129 -19 129 -19 99.5 58 c 128,-1,36
 70 135 70 135 70 242 c 0,37,38
 70 347 70 347 101 430.5 c 128,-1,39
 132 514 132 514 185 571.5 c 128,-1,40
 238 629 238 629 308.5 659.5 c 128,-1,41
 379 690 379 690 458 690 c 0,42,43
 534 690 534 690 598 667.5 c 128,-1,44
 662 645 662 645 709 600 c 128,-1,45
 756 555 756 555 782 488.5 c 128,-1,46
 808 422 808 422 808 334 c 0,47,48
 808 263 808 263 789.5 202.5 c 128,-1,49
 771 142 771 142 740 98 c 128,-1,50
 709 54 709 54 667.5 29 c 128,-1,51
 626 4 626 4 579 4 c 0,52,53
 560 4 560 4 543.5 9 c 128,-1,54
 527 14 527 14 517.5 26.5 c 128,-1,55
 508 39 508 39 504 59.5 c 128,-1,56
 500 80 500 80 504 110 c 1,57,-1
 500 110 l 1,58,59
 489 90 489 90 473.5 70.5 c 128,-1,60
 458 51 458 51 440 36.5 c 128,-1,61
 422 22 422 22 401 13 c 128,-1,62
 380 4 380 4 357 4 c 0,63,64
 314 4 314 4 284 42.5 c 128,-1,65
 254 81 254 81 254 154 c 0,66,67
 254 230 254 230 271 295 c 128,-1,68
 288 360 288 360 317 408.5 c 128,-1,69
 346 457 346 457 385 484 c 128,-1,70
 424 511 424 511 468 511 c 0,71,72
 498 511 498 511 517 500.5 c 128,-1,73
 536 490 536 490 553 473 c 1,74,-1
 579 503 l 1,0,-1
531 410 m 1,75,76
 518 428 518 428 504 436 c 128,-1,77
 490 444 490 444 470 444 c 0,78,79
 439 444 439 444 412.5 421 c 128,-1,80
 386 398 386 398 366.5 360 c 128,-1,81
 347 322 347 322 336 272.5 c 128,-1,82
 325 223 325 223 325 171 c 0,83,84
 325 125 325 125 338.5 98 c 128,-1,85
 352 71 352 71 385 71 c 0,86,87
 400 71 400 71 416.5 82 c 128,-1,88
 433 93 433 93 449 111 c 128,-1,89
 465 129 465 129 479.5 151.5 c 128,-1,90
 494 174 494 174 504 197 c 1,91,-1
 531 410 l 1,75,76
EndSplineSet
Position2: "'case' Case-Sensitive Forms lookup 1 per glyph data 0" dx=0 dy=52 dh=0 dv=0
Position2: "'cpsp' Capital Spacing lookup 0 subtable" dx=41 dy=0 dh=82 dv=0
EndChar

StartChar: A
Encoding: 65 65 36
Width: 484
Flags: W
LayerCount: 2
Fore
SplineSet
341 201 m 5,0,-1
 138 201 l 5,1,-1
 81 0 l 5,2,-1
 5 0 l 5,3,-1
 221 728 l 5,4,-1
 263 728 l 5,5,-1
 479 0 l 5,6,-1
 399 0 l 5,7,-1
 341 201 l 5,0,-1
159 269 m 5,8,-1
 323 269 l 5,9,-1
 260 490 l 5,10,-1
 241 598 l 5,11,-1
 239 598 l 5,12,-1
 219 488 l 5,13,-1
 159 269 l 5,8,-1
EndSplineSet
Position2: "'cpsp' Capital Spacing lookup 0 subtable" dx=41 dy=0 dh=82 dv=0
EndChar

StartChar: B
Encoding: 66 66 37
Width: 482
Flags: W
LayerCount: 2
Fore
SplineSet
421 554 m 0,0,1
 421 527 421 527 415 500.5 c 128,-1,2
 409 474 409 474 395.5 450.5 c 128,-1,3
 382 427 382 427 362 408.5 c 128,-1,4
 342 390 342 390 313 381 c 1,5,-1
 313 377 l 1,6,7
 338 372 338 372 360.5 360 c 128,-1,8
 383 348 383 348 400.5 327 c 128,-1,9
 418 306 418 306 428 276 c 128,-1,10
 438 246 438 246 438 204 c 0,11,12
 438 149 438 149 420.5 108.5 c 128,-1,13
 403 68 403 68 373 42 c 128,-1,14
 343 16 343 16 303.5 4 c 128,-1,15
 264 -8 264 -8 220 -8 c 0,16,17
 206 -8 206 -8 187 -8 c 128,-1,18
 168 -8 168 -8 146.5 -6.5 c 128,-1,19
 125 -5 125 -5 104 -2.5 c 128,-1,20
 83 0 83 0 66 5 c 1,21,-1
 66 711 l 1,22,23
 97 717 97 717 138 721 c 128,-1,24
 179 725 179 725 227 725 c 0,25,26
 262 725 262 725 297 718.5 c 128,-1,27
 332 712 332 712 359.5 693.5 c 128,-1,28
 387 675 387 675 404 641.5 c 128,-1,29
 421 608 421 608 421 554 c 0,0,1
226 62 m 0,30,31
 254 62 254 62 277.5 71 c 128,-1,32
 301 80 301 80 319 97.5 c 128,-1,33
 337 115 337 115 347 140 c 128,-1,34
 357 165 357 165 357 199 c 0,35,36
 357 241 357 241 344.5 267 c 128,-1,37
 332 293 332 293 311.5 307.5 c 128,-1,38
 291 322 291 322 265 327 c 128,-1,39
 239 332 239 332 211 332 c 2,40,-1
 142 332 l 1,41,-1
 142 70 l 1,42,43
 148 68 148 68 158 67 c 128,-1,44
 168 66 168 66 179.5 64.5 c 128,-1,45
 191 63 191 63 203.5 62.5 c 128,-1,46
 216 62 216 62 226 62 c 0,30,31
184 398 m 2,47,48
 198 398 198 398 217 399 c 128,-1,49
 236 400 236 400 248 402 c 1,50,51
 286 417 286 417 313 451.5 c 128,-1,52
 340 486 340 486 340 537 c 0,53,54
 340 571 340 571 331 593.5 c 128,-1,55
 322 616 322 616 306 629.5 c 128,-1,56
 290 643 290 643 268.5 648.5 c 128,-1,57
 247 654 247 654 223 654 c 0,58,59
 196 654 196 654 175 652.5 c 128,-1,60
 154 651 154 651 142 649 c 1,61,-1
 142 398 l 1,62,-1
 184 398 l 2,47,48
EndSplineSet
Position2: "'cpsp' Capital Spacing lookup 0 subtable" dx=41 dy=0 dh=82 dv=0
EndChar

StartChar: C
Encoding: 67 67 38
Width: 468
Flags: W
LayerCount: 2
Fore
SplineSet
440 28 m 1,0,1
 414 6 414 6 375.5 -3 c 128,-1,2
 337 -12 337 -12 294 -12 c 0,3,4
 240 -12 240 -12 193.5 8.5 c 128,-1,5
 147 29 147 29 114 73.5 c 128,-1,6
 81 118 81 118 62.5 188.5 c 128,-1,7
 44 259 44 259 44 358 c 0,8,9
 44 460 44 460 65 531 c 128,-1,10
 86 602 86 602 121 646 c 128,-1,11
 156 690 156 690 201.5 709.5 c 128,-1,12
 247 729 247 729 295 729 c 0,13,14
 344 729 344 729 376.5 722 c 128,-1,15
 409 715 409 715 432 705 c 1,16,-1
 414 635 l 1,17,18
 394 646 394 646 366 652 c 128,-1,19
 338 658 338 658 302 658 c 256,20,21
 266 658 266 658 234.5 642.5 c 128,-1,22
 203 627 203 627 178.5 591.5 c 128,-1,23
 154 556 154 556 139.5 498.5 c 128,-1,24
 125 441 125 441 125 358 c 0,25,26
 125 208 125 208 176 133 c 128,-1,27
 227 58 227 58 312 58 c 0,28,29
 347 58 347 58 374.5 68 c 128,-1,30
 402 78 402 78 422 91 c 1,31,-1
 440 28 l 1,0,1
EndSplineSet
Position2: "'cpsp' Capital Spacing lookup 0 subtable" dx=41 dy=0 dh=82 dv=0
EndChar

StartChar: D
Encoding: 68 68 39
Width: 537
Flags: W
LayerCount: 2
Fore
SplineSet
66 717 m 1,0,1
 82 720 82 720 102 721.5 c 128,-1,2
 122 723 122 723 142.5 723.5 c 128,-1,3
 163 724 163 724 183 724.5 c 128,-1,4
 203 725 203 725 220 725 c 0,5,6
 295 725 295 725 347 699.5 c 128,-1,7
 399 674 399 674 432 626.5 c 128,-1,8
 465 579 465 579 479.5 512 c 128,-1,9
 494 445 494 445 494 364 c 0,10,11
 494 290 494 290 480 222.5 c 128,-1,12
 466 155 466 155 433 103.5 c 128,-1,13
 400 52 400 52 346.5 21.5 c 128,-1,14
 293 -9 293 -9 212 -9 c 0,15,16
 199 -9 199 -9 178.5 -8.5 c 128,-1,17
 158 -8 158 -8 136 -6.5 c 128,-1,18
 114 -5 114 -5 95 -4 c 128,-1,19
 76 -3 76 -3 66 -1 c 1,20,-1
 66 717 l 1,0,1
224 654 m 0,21,22
 214 654 214 654 202 654 c 128,-1,23
 190 654 190 654 179 653 c 128,-1,24
 168 652 168 652 158 651 c 128,-1,25
 148 650 148 650 142 649 c 1,26,-1
 142 66 l 1,27,28
 146 65 146 65 157 64 c 128,-1,29
 168 63 168 63 179.5 62.5 c 128,-1,30
 191 62 191 62 202 61.5 c 128,-1,31
 213 61 213 61 218 61 c 0,32,33
 274 61 274 61 312 86 c 128,-1,34
 350 111 350 111 372 152.5 c 128,-1,35
 394 194 394 194 403.5 248.5 c 128,-1,36
 413 303 413 303 413 365 c 0,37,38
 413 419 413 419 404.5 471 c 128,-1,39
 396 523 396 523 375 563.5 c 128,-1,40
 354 604 354 604 317.5 629 c 128,-1,41
 281 654 281 654 224 654 c 0,21,22
EndSplineSet
Position2: "'cpsp' Capital Spacing lookup 0 subtable" dx=41 dy=0 dh=82 dv=0
EndChar

StartChar: E
Encoding: 69 69 40
Width: 439
Flags: W
LayerCount: 2
Fore
SplineSet
66 717 m 5,0,-1
 384 717 l 5,1,-1
 384 646 l 5,2,-1
 142 646 l 5,3,-1
 142 403 l 5,4,-1
 365 403 l 5,5,-1
 365 333 l 5,6,-1
 142 333 l 5,7,-1
 142 71 l 5,8,-1
 389 71 l 5,9,-1
 389 0 l 5,10,-1
 66 0 l 5,11,-1
 66 717 l 5,0,-1
EndSplineSet
Position2: "'cpsp' Capital Spacing lookup 0 subtable" dx=41 dy=0 dh=82 dv=0
EndChar

StartChar: F
Encoding: 70 70 41
Width: 422
Flags: W
LayerCount: 2
Fore
SplineSet
66 717 m 1,0,-1
 384 717 l 1,1,-1
 384 646 l 1,2,-1
 142 646 l 1,3,-1
 142 393 l 1,4,-1
 368 393 l 1,5,-1
 368 323 l 1,6,-1
 142 323 l 1,7,-1
 142 0 l 1,8,-1
 66 0 l 1,9,-1
 66 717 l 1,0,-1
EndSplineSet
Position2: "'cpsp' Capital Spacing lookup 0 subtable" dx=41 dy=0 dh=82 dv=0
EndChar

StartChar: G
Encoding: 71 71 42
Width: 503
Flags: W
LayerCount: 2
Fore
SplineSet
263 357 m 1,0,-1
 461 357 l 1,1,-1
 461 42 l 1,2,3
 432 15 432 15 387 1.5 c 128,-1,4
 342 -12 342 -12 296 -12 c 0,5,6
 239 -12 239 -12 192 9.5 c 128,-1,7
 145 31 145 31 112.5 76.5 c 128,-1,8
 80 122 80 122 62 191.5 c 128,-1,9
 44 261 44 261 44 358 c 0,10,11
 44 458 44 458 65.5 528.5 c 128,-1,12
 87 599 87 599 123.5 643.5 c 128,-1,13
 160 688 160 688 206.5 708.5 c 128,-1,14
 253 729 253 729 302 729 c 256,15,16
 351 729 351 729 384.5 722.5 c 128,-1,17
 418 716 418 716 441 705 c 1,18,-1
 423 635 l 1,19,20
 403 646 403 646 374.5 652 c 128,-1,21
 346 658 346 658 309 658 c 0,22,23
 273 658 273 658 240.5 643 c 128,-1,24
 208 628 208 628 182 592.5 c 128,-1,25
 156 557 156 557 140.5 499.5 c 128,-1,26
 125 442 125 442 125 358 c 0,27,28
 125 204 125 204 173.5 131 c 128,-1,29
 222 58 222 58 307 58 c 0,30,31
 360 58 360 58 395 84 c 1,32,-1
 395 293 l 1,33,-1
 263 312 l 1,34,-1
 263 357 l 1,0,-1
EndSplineSet
Position2: "'cpsp' Capital Spacing lookup 0 subtable" dx=41 dy=0 dh=82 dv=0
EndChar

StartChar: H
Encoding: 72 72 43
Width: 548
Flags: W
LayerCount: 2
Fore
SplineSet
407 331 m 1,0,-1
 142 331 l 1,1,-1
 142 0 l 1,2,-1
 66 0 l 1,3,-1
 66 717 l 1,4,-1
 142 717 l 1,5,-1
 142 401 l 1,6,-1
 407 401 l 1,7,-1
 407 717 l 1,8,-1
 483 717 l 1,9,-1
 483 0 l 1,10,-1
 407 0 l 1,11,-1
 407 331 l 1,0,-1
EndSplineSet
Position2: "'cpsp' Capital Spacing lookup 0 subtable" dx=41 dy=0 dh=82 dv=0
EndChar

StartChar: I
Encoding: 73 73 44
Width: 238
Flags: W
LayerCount: 2
Fore
SplineSet
81 717 m 5,0,-1
 158 717 l 5,1,-1
 158 0 l 5,2,-1
 81 0 l 5,3,-1
 81 717 l 5,0,-1
EndSplineSet
Position2: "'cpsp' Capital Spacing lookup 0 subtable" dx=41 dy=0 dh=82 dv=0
EndChar

StartChar: J
Encoding: 74 74 45
Width: 246
Flags: W
LayerCount: 2
Fore
SplineSet
95 717 m 1,0,-1
 172 717 l 1,1,-1
 172 161 l 2,2,3
 172 77 172 77 145 33.5 c 128,-1,4
 118 -10 118 -10 50 -10 c 0,5,6
 34 -10 34 -10 11 -6 c 128,-1,7
 -12 -2 -12 -2 -27 6 c 1,8,-1
 -10 73 l 1,9,10
 0 67 0 67 13 63.5 c 128,-1,11
 26 60 26 60 39 60 c 0,12,13
 57 60 57 60 68.5 68.5 c 128,-1,14
 80 77 80 77 86 91.5 c 128,-1,15
 92 106 92 106 93.5 127 c 128,-1,16
 95 148 95 148 95 175 c 2,17,-1
 95 717 l 1,0,-1
EndSplineSet
Position2: "'cpsp' Capital Spacing lookup 0 subtable" dx=41 dy=0 dh=82 dv=0
EndChar

StartChar: K
Encoding: 75 75 46
Width: 504
Flags: W
LayerCount: 2
Fore
SplineSet
179 332 m 1,0,-1
 142 332 l 1,1,-1
 142 0 l 1,2,-1
 66 0 l 1,3,-1
 66 717 l 1,4,-1
 142 717 l 1,5,-1
 142 383 l 1,6,-1
 178 397 l 1,7,-1
 365 717 l 1,8,-1
 453 717 l 1,9,-1
 265 408 l 1,10,-1
 229 375 l 1,11,-1
 271 334 l 1,12,-1
 479 0 l 1,13,-1
 382 0 l 1,14,-1
 179 332 l 1,0,-1
EndSplineSet
Position2: "'cpsp' Capital Spacing lookup 0 subtable" dx=41 dy=0 dh=82 dv=0
EndChar

StartChar: L
Encoding: 76 76 47
Width: 424
Flags: W
LayerCount: 2
Fore
SplineSet
411 0 m 1,0,-1
 66 0 l 1,1,-1
 66 717 l 1,2,-1
 142 717 l 1,3,-1
 142 71 l 1,4,-1
 411 71 l 1,5,-1
 411 0 l 1,0,-1
EndSplineSet
Position2: "'cpsp' Capital Spacing lookup 0 subtable" dx=41 dy=0 dh=82 dv=0
EndChar

StartChar: M
Encoding: 77 77 48
Width: 652
Flags: W
LayerCount: 2
Fore
SplineSet
510 471 m 1,0,-1
 519 580 l 1,1,-1
 515 580 l 1,2,-1
 482 478 l 1,3,-1
 338 167 l 1,4,-1
 312 167 l 1,5,-1
 161 478 l 1,6,-1
 129 580 l 1,7,-1
 125 580 l 1,8,-1
 139 471 l 1,9,-1
 139 0 l 1,10,-1
 66 0 l 1,11,-1
 66 717 l 1,12,-1
 130 717 l 1,13,-1
 303 365 l 1,14,-1
 329 281 l 1,15,-1
 331 281 l 1,16,-1
 355 366 l 1,17,-1
 519 717 l 1,18,-1
 587 717 l 1,19,-1
 587 0 l 1,20,-1
 510 0 l 1,21,-1
 510 471 l 1,0,-1
EndSplineSet
Position2: "'cpsp' Capital Spacing lookup 0 subtable" dx=41 dy=0 dh=82 dv=0
EndChar

StartChar: N
Encoding: 78 78 49
Width: 550
Flags: W
LayerCount: 2
Fore
SplineSet
175 455 m 1,0,-1
 131 567 l 1,1,-1
 128 567 l 1,2,-1
 139 455 l 1,3,-1
 139 0 l 1,4,-1
 66 0 l 1,5,-1
 66 728 l 1,6,-1
 112 728 l 1,7,-1
 377 263 l 1,8,-1
 419 156 l 1,9,-1
 423 156 l 1,10,-1
 412 263 l 1,11,-1
 412 717 l 1,12,-1
 485 717 l 1,13,-1
 485 -11 l 1,14,-1
 438 -11 l 1,15,-1
 175 455 l 1,0,-1
EndSplineSet
Position2: "'cpsp' Capital Spacing lookup 0 subtable" dx=41 dy=0 dh=82 dv=0
EndChar

StartChar: O
Encoding: 79 79 50
Width: 562
Flags: W
LayerCount: 2
Fore
SplineSet
44 358 m 4,0,1
 44 540 44 540 102.5 634.5 c 132,-1,2
 161 729 161 729 281 729 c 4,3,4
 346 729 346 729 390.5 703 c 132,-1,5
 435 677 435 677 463.5 629 c 132,-1,6
 492 581 492 581 505 512 c 132,-1,7
 518 443 518 443 518 358 c 4,8,9
 518 176 518 176 459 82 c 132,-1,10
 400 -12 400 -12 281 -12 c 4,11,12
 218 -12 218 -12 172.5 14 c 132,-1,13
 127 40 127 40 98.5 88 c 132,-1,14
 70 136 70 136 57 204.5 c 132,-1,15
 44 273 44 273 44 358 c 4,0,1
125 358 m 4,16,17
 125 298 125 298 133.5 243.5 c 132,-1,18
 142 189 142 189 160.5 148.5 c 132,-1,19
 179 108 179 108 209 83 c 132,-1,20
 239 58 239 58 281 58 c 4,21,22
 358 58 358 58 397.5 132 c 132,-1,23
 437 206 437 206 437 358 c 4,24,25
 437 417 437 417 428.5 471.5 c 132,-1,26
 420 526 420 526 401.5 567.5 c 132,-1,27
 383 609 383 609 353.5 633.5 c 132,-1,28
 324 658 324 658 281 658 c 4,29,30
 205 658 205 658 165 584.5 c 132,-1,31
 125 511 125 511 125 358 c 4,16,17
EndSplineSet
Position2: "'cpsp' Capital Spacing lookup 0 subtable" dx=41 dy=0 dh=82 dv=0
EndChar

StartChar: P
Encoding: 80 80 51
Width: 461
Flags: W
LayerCount: 2
Fore
SplineSet
66 710 m 1,0,1
 99 719 99 719 135.5 722 c 128,-1,2
 172 725 172 725 208 725 c 0,3,4
 249 725 249 725 289 716 c 128,-1,5
 329 707 329 707 361 682 c 128,-1,6
 393 657 393 657 413 614 c 128,-1,7
 433 571 433 571 433 505 c 0,8,9
 433 440 433 440 414 395 c 128,-1,10
 395 350 395 350 364 322 c 128,-1,11
 333 294 333 294 292.5 281 c 128,-1,12
 252 268 252 268 209 268 c 0,13,14
 205 268 205 268 195.5 268 c 128,-1,15
 186 268 186 268 176 268.5 c 128,-1,16
 166 269 166 269 156 270 c 128,-1,17
 146 271 146 271 142 272 c 1,18,-1
 142 0 l 1,19,-1
 66 0 l 1,20,-1
 66 710 l 1,0,1
212 654 m 0,21,22
 192 654 192 654 173 652.5 c 128,-1,23
 154 651 154 651 142 648 c 1,24,-1
 142 343 l 1,25,26
 146 341 146 341 155 340.5 c 128,-1,27
 164 340 164 340 173 339.5 c 128,-1,28
 182 339 182 339 191 339 c 128,-1,29
 200 339 200 339 204 339 c 0,30,31
 233 339 233 339 259.5 346 c 128,-1,32
 286 353 286 353 306.5 372 c 128,-1,33
 327 391 327 391 339.5 423.5 c 128,-1,34
 352 456 352 456 352 505 c 0,35,36
 352 548 352 548 340.5 576.5 c 128,-1,37
 329 605 329 605 310 622.5 c 128,-1,38
 291 640 291 640 265.5 647 c 128,-1,39
 240 654 240 654 212 654 c 0,21,22
EndSplineSet
Position2: "'cpsp' Capital Spacing lookup 0 subtable" dx=41 dy=0 dh=82 dv=0
EndChar

StartChar: Q
Encoding: 81 81 52
Width: 562
Flags: W
LayerCount: 2
Fore
SplineSet
580 -170 m 1,0,1
 560 -177 560 -177 540.5 -179.5 c 128,-1,2
 521 -182 521 -182 502 -182 c 0,3,4
 461 -182 461 -182 421.5 -171.5 c 128,-1,5
 382 -161 382 -161 345.5 -148.5 c 128,-1,6
 309 -136 309 -136 275.5 -125.5 c 128,-1,7
 242 -115 242 -115 211 -115 c 0,8,9
 193 -115 193 -115 174 -121 c 1,10,-1
 174 -51 l 1,11,12
 197 -45 197 -45 219 -45 c 0,13,14
 253 -45 253 -45 287.5 -55.5 c 128,-1,15
 322 -66 322 -66 356.5 -78 c 128,-1,16
 391 -90 391 -90 428.5 -100.5 c 128,-1,17
 466 -111 466 -111 506 -111 c 0,18,19
 543 -111 543 -111 580 -100 c 1,20,-1
 580 -170 l 1,0,1
44 358 m 0,21,22
 44 540 44 540 102.5 634.5 c 128,-1,23
 161 729 161 729 281 729 c 0,24,25
 346 729 346 729 390.5 703 c 128,-1,26
 435 677 435 677 463.5 629 c 128,-1,27
 492 581 492 581 505 512 c 128,-1,28
 518 443 518 443 518 358 c 0,29,30
 518 176 518 176 459 82 c 128,-1,31
 400 -12 400 -12 281 -12 c 0,32,33
 218 -12 218 -12 172.5 14 c 128,-1,34
 127 40 127 40 98.5 88 c 128,-1,35
 70 136 70 136 57 204.5 c 128,-1,36
 44 273 44 273 44 358 c 0,21,22
125 358 m 0,37,38
 125 298 125 298 133.5 243.5 c 128,-1,39
 142 189 142 189 160.5 148.5 c 128,-1,40
 179 108 179 108 209 83 c 128,-1,41
 239 58 239 58 281 58 c 0,42,43
 358 58 358 58 397.5 132 c 128,-1,44
 437 206 437 206 437 358 c 0,45,46
 437 417 437 417 428.5 471.5 c 128,-1,47
 420 526 420 526 401.5 567.5 c 128,-1,48
 383 609 383 609 353.5 633.5 c 128,-1,49
 324 658 324 658 281 658 c 0,50,51
 205 658 205 658 165 584.5 c 128,-1,52
 125 511 125 511 125 358 c 0,37,38
EndSplineSet
Position2: "'cpsp' Capital Spacing lookup 0 subtable" dx=41 dy=0 dh=82 dv=0
EndChar

StartChar: R
Encoding: 82 82 53
Width: 491
Flags: W
LayerCount: 2
Fore
SplineSet
66 710 m 1,0,1
 100 718 100 718 140 721.5 c 128,-1,2
 180 725 180 725 214 725 c 0,3,4
 254 725 254 725 290 715.5 c 128,-1,5
 326 706 326 706 352.5 682.5 c 128,-1,6
 379 659 379 659 395 622 c 128,-1,7
 411 585 411 585 411 528 c 0,8,9
 411 443 411 443 375.5 392 c 128,-1,10
 340 341 340 341 282 324 c 1,11,-1
 321 286 l 1,12,-1
 462 0 l 1,13,-1
 373 0 l 1,14,-1
 219 312 l 1,15,-1
 142 328 l 1,16,-1
 142 0 l 1,17,-1
 66 0 l 1,18,-1
 66 710 l 1,0,1
142 379 m 1,19,-1
 204 379 l 2,20,21
 262 379 262 379 296 415 c 128,-1,22
 330 451 330 451 330 524 c 0,23,24
 330 580 330 580 301.5 617 c 128,-1,25
 273 654 273 654 218 654 c 0,26,27
 198 654 198 654 176 652.5 c 128,-1,28
 154 651 154 651 142 648 c 1,29,-1
 142 379 l 1,19,-1
EndSplineSet
Position2: "'cpsp' Capital Spacing lookup 0 subtable" dx=41 dy=0 dh=82 dv=0
EndChar

StartChar: S
Encoding: 83 83 54
Width: 438
Flags: W
LayerCount: 2
Fore
SplineSet
60 95 m 1,0,1
 79 82 79 82 115 70 c 128,-1,2
 151 58 151 58 196 58 c 0,3,4
 253 58 253 58 289 86.5 c 128,-1,5
 325 115 325 115 325 175 c 0,6,7
 325 215 325 215 304.5 244.5 c 128,-1,8
 284 274 284 274 253 299.5 c 128,-1,9
 222 325 222 325 187 349 c 128,-1,10
 152 373 152 373 121 402 c 128,-1,11
 90 431 90 431 69.5 469 c 128,-1,12
 49 507 49 507 49 560 c 0,13,14
 49 646 49 646 101 687.5 c 128,-1,15
 153 729 153 729 236 729 c 0,16,17
 287 729 287 729 327 720 c 128,-1,18
 367 711 367 711 391 696 c 1,19,-1
 367 629 l 1,20,21
 349 640 349 640 314.5 649 c 128,-1,22
 280 658 280 658 234 658 c 0,23,24
 179 658 179 658 152.5 631 c 128,-1,25
 126 604 126 604 126 563 c 0,26,27
 126 527 126 527 146.5 499.5 c 128,-1,28
 167 472 167 472 197.5 447.5 c 128,-1,29
 228 423 228 423 263.5 398 c 128,-1,30
 299 373 299 373 329.5 342 c 128,-1,31
 360 311 360 311 380.5 272 c 128,-1,32
 401 233 401 233 401 180 c 0,33,34
 401 90 401 90 348 39 c 128,-1,35
 295 -12 295 -12 198 -12 c 0,36,37
 137 -12 137 -12 97 -1 c 128,-1,38
 57 10 57 10 34 25 c 1,39,-1
 60 95 l 1,0,1
EndSplineSet
Position2: "'cpsp' Capital Spacing lookup 0 subtable" dx=41 dy=0 dh=82 dv=0
EndChar

StartChar: T
Encoding: 84 84 55
Width: 457
Flags: W
LayerCount: 2
Fore
SplineSet
443 646 m 1,0,-1
 267 646 l 1,1,-1
 267 0 l 1,2,-1
 190 0 l 1,3,-1
 190 646 l 1,4,-1
 14 646 l 1,5,-1
 14 717 l 1,6,-1
 443 717 l 1,7,-1
 443 646 l 1,0,-1
EndSplineSet
Position2: "'cpsp' Capital Spacing lookup 0 subtable" dx=41 dy=0 dh=82 dv=0
EndChar

StartChar: U
Encoding: 85 85 56
Width: 533
Flags: W
LayerCount: 2
Fore
SplineSet
394 717 m 5,0,-1
 468 717 l 5,1,-1
 468 237 l 6,2,3
 468 107 468 107 417.5 49 c 132,-1,4
 367 -9 367 -9 273 -9 c 4,5,6
 164 -9 164 -9 115 47 c 132,-1,7
 66 103 66 103 66 220 c 6,8,-1
 66 717 l 5,9,-1
 142 717 l 5,10,-1
 142 260 l 6,11,12
 142 205 142 205 149.5 167 c 132,-1,13
 157 129 157 129 173 105.5 c 132,-1,14
 189 82 189 82 214 71.5 c 132,-1,15
 239 61 239 61 274 61 c 4,16,17
 342 61 342 61 368 108.5 c 132,-1,18
 394 156 394 156 394 260 c 6,19,-1
 394 717 l 5,0,-1
EndSplineSet
Position2: "'cpsp' Capital Spacing lookup 0 subtable" dx=41 dy=0 dh=82 dv=0
EndChar

StartChar: V
Encoding: 86 86 57
Width: 474
Flags: W
LayerCount: 2
Fore
SplineSet
223 226 m 1,0,-1
 242 117 l 1,1,-1
 244 117 l 1,2,-1
 264 228 l 1,3,-1
 397 717 l 1,4,-1
 476 717 l 1,5,-1
 259 -11 l 1,6,-1
 218 -11 l 1,7,-1
 -2 717 l 1,8,-1
 83 717 l 1,9,-1
 223 226 l 1,0,-1
EndSplineSet
Position2: "'cpsp' Capital Spacing lookup 0 subtable" dx=41 dy=0 dh=82 dv=0
EndChar

StartChar: W
Encoding: 87 87 58
Width: 688
Flags: W
LayerCount: 2
Fore
SplineSet
186 243 m 1,0,-1
 199 123 l 1,1,-1
 201 123 l 1,2,-1
 213 245 l 1,3,-1
 328 717 l 1,4,-1
 372 717 l 1,5,-1
 486 244 l 1,6,-1
 499 123 l 1,7,-1
 500 123 l 1,8,-1
 514 245 l 1,9,-1
 605 717 l 1,10,-1
 682 717 l 1,11,-1
 522 -11 l 1,12,-1
 475 -11 l 1,13,-1
 361 461 l 1,14,-1
 347 570 l 1,15,-1
 344 570 l 1,16,-1
 330 460 l 1,17,-1
 216 -11 l 1,18,-1
 168 -11 l 1,19,-1
 5 717 l 1,20,-1
 88 717 l 1,21,-1
 186 243 l 1,0,-1
EndSplineSet
Position2: "'cpsp' Capital Spacing lookup 0 subtable" dx=41 dy=0 dh=82 dv=0
EndChar

StartChar: X
Encoding: 88 88 59
Width: 512
Flags: W
LayerCount: 2
Fore
SplineSet
208 365 m 1,0,-1
 36 717 l 1,1,-1
 128 717 l 1,2,-1
 240 474 l 1,3,-1
 260 414 l 1,4,-1
 281 474 l 1,5,-1
 398 717 l 1,6,-1
 483 717 l 1,7,-1
 305 372 l 1,8,-1
 492 0 l 1,9,-1
 401 0 l 1,10,-1
 278 257 l 1,11,-1
 254 321 l 1,12,-1
 232 257 l 1,13,-1
 105 0 l 1,14,-1
 19 0 l 1,15,-1
 208 365 l 1,0,-1
EndSplineSet
Position2: "'cpsp' Capital Spacing lookup 0 subtable" dx=41 dy=0 dh=82 dv=0
EndChar

StartChar: Y
Encoding: 89 89 60
Width: 465
Flags: W
LayerCount: 2
Fore
SplineSet
196 285 m 1,0,-1
 5 717 l 1,1,-1
 95 717 l 1,2,-1
 224 404 l 1,3,-1
 238 342 l 1,4,-1
 240 342 l 1,5,-1
 253 407 l 1,6,-1
 378 717 l 1,7,-1
 461 717 l 1,8,-1
 272 286 l 1,9,-1
 272 0 l 1,10,-1
 196 0 l 1,11,-1
 196 285 l 1,0,-1
EndSplineSet
Position2: "'cpsp' Capital Spacing lookup 0 subtable" dx=41 dy=0 dh=82 dv=0
EndChar

StartChar: Z
Encoding: 90 90 61
Width: 449
Flags: W
LayerCount: 2
Fore
SplineSet
30 71 m 1,0,-1
 314 605 l 1,1,-1
 348 646 l 1,2,-1
 30 646 l 1,3,-1
 30 717 l 1,4,-1
 420 717 l 1,5,-1
 420 646 l 1,6,-1
 134 109 l 1,7,-1
 101 71 l 1,8,-1
 420 71 l 1,9,-1
 420 0 l 1,10,-1
 30 0 l 1,11,-1
 30 71 l 1,0,-1
EndSplineSet
Position2: "'cpsp' Capital Spacing lookup 0 subtable" dx=41 dy=0 dh=82 dv=0
EndChar

StartChar: bracketleft
Encoding: 91 91 62
Width: 253
Flags: W
LayerCount: 2
Fore
SplineSet
66 717 m 1,0,-1
 225 717 l 1,1,-1
 225 650 l 1,2,-1
 139 650 l 1,3,-1
 139 -169 l 1,4,-1
 225 -169 l 1,5,-1
 225 -236 l 1,6,-1
 66 -236 l 1,7,-1
 66 717 l 1,0,-1
EndSplineSet
Position2: "'case' Case-Sensitive Forms lookup 1 per glyph data 3" dx=0 dy=102 dh=0 dv=0
EndChar

StartChar: backslash
Encoding: 92 92 63
Width: 323
Flags: W
LayerCount: 2
Fore
SplineSet
338 -120 m 1,0,-1
 276 -143 l 1,1,-1
 -29 706 l 1,2,-1
 34 729 l 1,3,-1
 338 -120 l 1,0,-1
EndSplineSet
EndChar

StartChar: bracketright
Encoding: 93 93 64
Width: 253
Flags: W
LayerCount: 2
Fore
SplineSet
188 -236 m 1,0,-1
 30 -236 l 1,1,-1
 30 -169 l 1,2,-1
 115 -169 l 1,3,-1
 115 650 l 1,4,-1
 30 650 l 1,5,-1
 30 717 l 1,6,-1
 188 717 l 1,7,-1
 188 -236 l 1,0,-1
EndSplineSet
Position2: "'case' Case-Sensitive Forms lookup 1 per glyph data 3" dx=0 dy=102 dh=0 dv=0
EndChar

StartChar: asciicircum
Encoding: 94 94 65
Width: 421
Flags: W
LayerCount: 2
Fore
SplineSet
196 728 m 1,0,-1
 226 728 l 1,1,-1
 369 445 l 1,2,-1
 292 445 l 1,3,-1
 228 584 l 1,4,-1
 210 654 l 1,5,-1
 185 583 l 1,6,-1
 112 445 l 1,7,-1
 41 445 l 1,8,-1
 196 728 l 1,0,-1
EndSplineSet
EndChar

StartChar: underscore
Encoding: 95 95 66
Width: 342
Flags: W
LayerCount: 2
Fore
SplineSet
0 -143 m 1,0,-1
 342 -143 l 1,1,-1
 342 -210 l 1,2,-1
 0 -210 l 1,3,-1
 0 -143 l 1,0,-1
EndSplineSet
EndChar

StartChar: grave
Encoding: 96 96 67
Width: 261
Flags: W
LayerCount: 2
Fore
SplineSet
200 585 m 1,0,-1
 158 585 l 1,1,-1
 61 716 l 1,2,-1
 61 737 l 1,3,-1
 146 737 l 1,4,-1
 200 585 l 1,0,-1
EndSplineSet
EndChar

StartChar: a
Encoding: 97 97 68
Width: 409
Flags: W
LayerCount: 2
Fore
SplineSet
55 481 m 5,0,1
 85 499 85 499 127.5 509.5 c 132,-1,2
 170 520 170 520 217 520 c 4,3,4
 260 520 260 520 286 507.5 c 132,-1,5
 312 495 312 495 327 473 c 132,-1,6
 342 451 342 451 346.5 422.5 c 132,-1,7
 351 394 351 394 351 364 c 4,8,9
 351 303 351 303 348.5 244 c 132,-1,10
 346 185 346 185 346 133 c 4,11,12
 346 94 346 94 348.5 61 c 132,-1,13
 351 28 351 28 358 -2 c 5,14,-1
 302 -2 l 5,15,-1
 285 58 l 5,16,-1
 281 58 l 5,17,18
 266 31 266 31 236 12 c 132,-1,19
 206 -7 206 -7 156 -7 c 4,20,21
 101 -7 101 -7 65.5 31.5 c 132,-1,22
 30 70 30 70 30 137 c 4,23,24
 30 181 30 181 44.5 211 c 132,-1,25
 59 241 59 241 86.5 259.5 c 132,-1,26
 114 278 114 278 151 285.5 c 132,-1,27
 188 293 188 293 234 293 c 4,28,29
 244 293 244 293 254.5 293 c 132,-1,30
 265 293 265 293 276 292 c 5,31,32
 279 324 279 324 280 348 c 4,33,34
 280 406 280 406 262.5 430 c 132,-1,35
 245 454 245 454 199 454 c 4,36,37
 170 454 170 454 136 445 c 132,-1,38
 102 436 102 436 80 423 c 5,39,-1
 55 481 l 5,0,1
278 233 m 5,40,41
 268 234 268 234 257.5 235 c 132,-1,42
 247 236 247 236 237 236 c 4,43,44
 212 236 212 236 188.5 231.5 c 132,-1,45
 165 227 165 227 146.5 217 c 132,-1,46
 128 207 128 207 117 189.5 c 132,-1,47
 106 172 106 172 106 145 c 4,48,49
 106 104 106 104 126 81.5 c 132,-1,50
 146 59 146 59 178 59 c 4,51,52
 221 59 221 59 244.5 79.5 c 132,-1,53
 268 100 268 100 278 125 c 5,54,-1
 278 233 l 5,40,41
EndSplineSet
Substitution2: "Single Substitution lookup 13 subtable" ordfeminine
EndChar

StartChar: b
Encoding: 98 98 69
Width: 444
Flags: W
LayerCount: 2
Fore
SplineSet
60 717 m 1,0,-1
 134 717 l 1,1,-1
 134 473 l 1,2,-1
 137 473 l 1,3,4
 179 524 179 524 249 524 c 0,5,6
 328 524 328 524 367.5 461.5 c 128,-1,7
 407 399 407 399 407 264 c 0,8,9
 407 126 407 126 354 58.5 c 128,-1,10
 301 -9 301 -9 205 -9 c 0,11,12
 158 -9 158 -9 119 1.5 c 128,-1,13
 80 12 80 12 60 27 c 1,14,-1
 60 717 l 1,0,-1
134 75 m 1,15,16
 148 67 148 67 169 62 c 128,-1,17
 190 57 190 57 214 57 c 0,18,19
 267 57 267 57 298.5 108 c 128,-1,20
 330 159 330 159 330 264 c 0,21,22
 330 308 330 308 324 343.5 c 128,-1,23
 318 379 318 379 306.5 404.5 c 128,-1,24
 295 430 295 430 276 444 c 128,-1,25
 257 458 257 458 230 458 c 0,26,27
 193 458 193 458 169 436 c 128,-1,28
 145 414 145 414 134 376 c 1,29,-1
 134 75 l 1,15,16
EndSplineSet
EndChar

StartChar: c
Encoding: 99 99 70
Width: 364
Flags: W
LayerCount: 2
Fore
SplineSet
343 26 m 1,0,1
 317 7 317 7 284.5 -2.5 c 128,-1,2
 252 -12 252 -12 216 -12 c 0,3,4
 167 -12 167 -12 133 7 c 128,-1,5
 99 26 99 26 78 61 c 128,-1,6
 57 96 57 96 47.5 146 c 128,-1,7
 38 196 38 196 38 256 c 0,8,9
 38 387 38 387 84.5 455.5 c 128,-1,10
 131 524 131 524 218 524 c 0,11,12
 258 524 258 524 286.5 517 c 128,-1,13
 315 510 315 510 336 499 c 1,14,-1
 315 434 l 1,15,16
 274 458 274 458 226 458 c 0,17,18
 171 458 171 458 143 409 c 128,-1,19
 115 360 115 360 115 256 c 0,20,21
 115 214 115 214 121 177 c 128,-1,22
 127 140 127 140 141.5 113 c 128,-1,23
 156 86 156 86 178.5 70 c 128,-1,24
 201 54 201 54 234 54 c 0,25,26
 261 54 261 54 284 63.5 c 128,-1,27
 307 73 307 73 322 85 c 1,28,-1
 343 26 l 1,0,1
EndSplineSet
EndChar

StartChar: d
Encoding: 100 100 71
Width: 443
Flags: W
LayerCount: 2
Fore
SplineSet
383 176 m 2,0,1
 383 124 383 124 384 81.5 c 128,-1,2
 385 39 385 39 391 -2 c 1,3,-1
 341 -2 l 1,4,-1
 325 59 l 1,5,-1
 321 59 l 1,6,7
 307 28 307 28 276 8 c 128,-1,8
 245 -12 245 -12 202 -12 c 0,9,10
 119 -12 119 -12 78.5 52.5 c 128,-1,11
 38 117 38 117 38 255 c 0,12,13
 38 386 38 386 87.5 453.5 c 128,-1,14
 137 521 137 521 224 521 c 0,15,16
 254 521 254 521 271.5 517.5 c 128,-1,17
 289 514 289 514 309 506 c 1,18,-1
 309 717 l 1,19,-1
 383 717 l 1,20,-1
 383 176 l 2,0,1
309 431 m 1,21,22
 295 443 295 443 277 449 c 128,-1,23
 259 455 259 455 229 455 c 0,24,25
 175 455 175 455 145 405.5 c 128,-1,26
 115 356 115 356 115 254 c 0,27,28
 115 209 115 209 120.5 172.5 c 128,-1,29
 126 136 126 136 138 109.5 c 128,-1,30
 150 83 150 83 168.5 68.5 c 128,-1,31
 187 54 187 54 215 54 c 0,32,33
 289 54 289 54 309 141 c 1,34,-1
 309 431 l 1,21,22
EndSplineSet
EndChar

StartChar: e
Encoding: 101 101 72
Width: 422
Flags: W
LayerCount: 2
Fore
SplineSet
367 35 m 5,0,1
 342 12 342 12 304 0 c 132,-1,2
 266 -12 266 -12 224 -12 c 4,3,4
 176 -12 176 -12 140.5 7 c 132,-1,5
 105 26 105 26 82 61 c 132,-1,6
 59 96 59 96 48.5 145.5 c 132,-1,7
 38 195 38 195 38 256 c 4,8,9
 38 387 38 387 86 455.5 c 132,-1,10
 134 524 134 524 222 524 c 4,11,12
 251 524 251 524 279 517 c 132,-1,13
 307 510 307 510 329.5 488.5 c 132,-1,14
 352 467 352 467 366 428 c 132,-1,15
 380 389 380 389 380 327 c 4,16,17
 380 310 380 310 378.5 289.5 c 132,-1,18
 377 269 377 269 375 248 c 5,19,-1
 115 248 l 5,20,21
 115 204 115 204 122 168 c 132,-1,22
 129 132 129 132 144.5 107 c 132,-1,23
 160 82 160 82 184 68 c 132,-1,24
 208 54 208 54 244 54 c 4,25,26
 272 54 272 54 299 64.5 c 132,-1,27
 326 75 326 75 340 89 c 5,28,-1
 367 35 l 5,0,1
309 309 m 5,29,30
 311 386 311 386 287.5 422 c 132,-1,31
 264 458 264 458 223 458 c 4,32,33
 176 458 176 458 148.5 422 c 132,-1,34
 121 386 121 386 116 309 c 5,35,-1
 309 309 l 5,29,30
EndSplineSet
EndChar

StartChar: f
Encoding: 102 102 73
Width: 263
Flags: W
LayerCount: 2
Fore
SplineSet
16 512 m 1,0,-1
 79 512 l 1,1,-1
 79 541 l 2,2,3
 79 637 79 637 106.5 680 c 128,-1,4
 134 723 134 723 201 723 c 0,5,6
 228 723 228 723 249 720 c 128,-1,7
 270 717 270 717 293 707 c 1,8,-1
 274 643 l 1,9,10
 256 651 256 651 240 653.5 c 128,-1,11
 224 656 224 656 210 656 c 0,12,13
 190 656 190 656 178.5 648 c 128,-1,14
 167 640 167 640 161.5 622.5 c 128,-1,15
 156 605 156 605 154.5 578 c 128,-1,16
 153 551 153 551 153 512 c 1,17,-1
 259 512 l 1,18,-1
 259 445 l 1,19,-1
 153 445 l 1,20,-1
 153 0 l 1,21,-1
 79 0 l 1,22,-1
 79 445 l 1,23,-1
 16 445 l 1,24,-1
 16 512 l 1,0,-1
EndSplineSet
EndChar

StartChar: g
Encoding: 103 103 74
Width: 442
Flags: W
LayerCount: 2
Fore
SplineSet
383 -24 m 2,0,1
 383 -123 383 -123 339 -170 c 128,-1,2
 295 -217 295 -217 211 -217 c 0,3,4
 160 -217 160 -217 127 -208.5 c 128,-1,5
 94 -200 94 -200 74 -188 c 1,6,-1
 95 -125 l 1,7,8
 115 -134 115 -134 140 -142.5 c 128,-1,9
 165 -151 165 -151 201 -151 c 0,10,11
 263 -151 263 -151 286 -116 c 128,-1,12
 309 -81 309 -81 309 1 c 2,13,-1
 309 39 l 1,14,-1
 306 39 l 1,15,16
 290 15 290 15 264.5 2 c 128,-1,17
 239 -11 239 -11 199 -11 c 0,18,19
 116 -11 116 -11 77 53 c 128,-1,20
 38 117 38 117 38 254 c 0,21,22
 38 386 38 386 88.5 453.5 c 128,-1,23
 139 521 139 521 239 521 c 0,24,25
 287 521 287 521 321.5 512 c 128,-1,26
 356 503 356 503 383 490 c 1,27,-1
 383 -24 l 2,0,1
309 438 m 1,28,29
 278 454 278 454 230 455 c 0,30,31
 178 455 178 455 146.5 407 c 128,-1,32
 115 359 115 359 115 255 c 0,33,34
 115 212 115 212 120 175.5 c 128,-1,35
 125 139 125 139 137.5 112 c 128,-1,36
 150 85 150 85 168.5 70 c 128,-1,37
 187 55 187 55 215 55 c 0,38,39
 254 55 254 55 276.5 75.5 c 128,-1,40
 299 96 299 96 309 137 c 1,41,-1
 309 438 l 1,28,29
EndSplineSet
EndChar

StartChar: h
Encoding: 104 104 75
Width: 450
Flags: W
LayerCount: 2
Fore
SplineSet
323 0 m 1,0,-1
 323 311 l 2,1,2
 323 383 323 383 306 420.5 c 128,-1,3
 289 458 289 458 239 458 c 0,4,5
 203 458 203 458 173.5 432.5 c 128,-1,6
 144 407 144 407 134 368 c 1,7,-1
 134 0 l 1,8,-1
 60 0 l 1,9,-1
 60 717 l 1,10,-1
 134 717 l 1,11,-1
 134 464 l 1,12,-1
 137 464 l 1,13,14
 157 491 157 491 187.5 507.5 c 128,-1,15
 218 524 218 524 263 524 c 0,16,17
 297 524 297 524 322 515 c 128,-1,18
 347 506 347 506 363.5 483.5 c 128,-1,19
 380 461 380 461 388 423.5 c 128,-1,20
 396 386 396 386 396 331 c 2,21,-1
 396 0 l 1,22,-1
 323 0 l 1,0,-1
EndSplineSet
EndChar

StartChar: i
Encoding: 105 105 76
Width: 222
Flags: W
LayerCount: 2
Fore
SplineSet
73 512 m 5,0,-1
 146 512 l 5,1,-1
 146 0 l 5,2,-1
 73 0 l 5,3,-1
 73 512 l 5,0,-1
59 668 m 4,4,5
 59 693 59 693 73 708 c 132,-1,6
 87 723 87 723 110 723 c 260,7,8
 133 723 133 723 147.5 708 c 132,-1,9
 162 693 162 693 162 668 c 260,10,11
 162 643 162 643 147 629 c 132,-1,12
 132 615 132 615 110 615 c 260,13,14
 87 615 87 615 73 629.5 c 132,-1,15
 59 644 59 644 59 668 c 4,4,5
EndSplineSet
EndChar

StartChar: j
Encoding: 106 106 77
Width: 220
Flags: W
LayerCount: 2
Fore
SplineSet
74 512 m 1,0,-1
 147 512 l 1,1,-1
 147 -28 l 2,2,3
 147 -133 147 -133 113.5 -179.5 c 128,-1,4
 80 -226 80 -226 4 -215 c 1,5,-1
 4 -148 l 1,6,7
 27 -148 27 -148 40.5 -139 c 128,-1,8
 54 -130 54 -130 62 -111 c 128,-1,9
 70 -92 70 -92 72 -64 c 128,-1,10
 74 -36 74 -36 74 2 c 2,11,-1
 74 512 l 1,0,-1
59 668 m 0,12,13
 59 693 59 693 73 708 c 128,-1,14
 87 723 87 723 110 723 c 256,15,16
 133 723 133 723 147.5 708 c 128,-1,17
 162 693 162 693 162 668 c 256,18,19
 162 643 162 643 147 629 c 128,-1,20
 132 615 132 615 110 615 c 256,21,22
 87 615 87 615 73 629.5 c 128,-1,23
 59 644 59 644 59 668 c 0,12,13
EndSplineSet
EndChar

StartChar: k
Encoding: 107 107 78
Width: 397
Flags: W
LayerCount: 2
Fore
SplineSet
172 230 m 1,0,-1
 134 230 l 1,1,-1
 134 0 l 1,2,-1
 60 0 l 1,3,-1
 60 717 l 1,4,-1
 134 717 l 1,5,-1
 134 281 l 1,6,-1
 168 295 l 1,7,-1
 288 512 l 1,8,-1
 373 512 l 1,9,-1
 252 305 l 1,10,-1
 216 272 l 1,11,-1
 258 232 l 1,12,-1
 390 0 l 1,13,-1
 301 0 l 1,14,-1
 172 230 l 1,0,-1
EndSplineSet
EndChar

StartChar: l
Encoding: 108 108 79
Width: 238
Flags: W
LayerCount: 2
Fore
SplineSet
139 122 m 2,0,1
 139 86 139 86 149 70.5 c 128,-1,2
 159 55 159 55 176 55 c 0,3,4
 198 55 198 55 226 67 c 1,5,-1
 233 7 l 1,6,7
 220 -1 220 -1 196 -6 c 128,-1,8
 172 -11 172 -11 153 -11 c 0,9,10
 114 -11 114 -11 90 13 c 128,-1,11
 66 37 66 37 66 97 c 2,12,-1
 66 717 l 1,13,-1
 139 717 l 1,14,-1
 139 122 l 2,0,1
EndSplineSet
Substitution2: "'aalt' Access All Alternates lookup 0 subtable" l.var
EndChar

StartChar: m
Encoding: 109 109 80
Width: 666
Flags: W
LayerCount: 2
Fore
SplineSet
300 0 m 1,0,-1
 300 304 l 2,1,2
 300 345 300 345 297.5 374 c 128,-1,3
 295 403 295 403 287 421.5 c 128,-1,4
 279 440 279 440 264.5 449 c 128,-1,5
 250 458 250 458 226 458 c 0,6,7
 191 458 191 458 167 430.5 c 128,-1,8
 143 403 143 403 134 369 c 1,9,-1
 134 0 l 1,10,-1
 60 0 l 1,11,-1
 60 512 l 1,12,-1
 113 512 l 1,13,-1
 126 458 l 1,14,-1
 129 458 l 1,15,16
 151 488 151 488 180.5 506 c 128,-1,17
 210 524 210 524 256 524 c 0,18,19
 295 524 295 524 320 507 c 128,-1,20
 345 490 345 490 359 447 c 1,21,22
 377 483 377 483 411.5 503.5 c 128,-1,23
 446 524 446 524 487 524 c 0,24,25
 521 524 521 524 545 515.5 c 128,-1,26
 569 507 569 507 584 485 c 128,-1,27
 599 463 599 463 606 426.5 c 128,-1,28
 613 390 613 390 613 335 c 2,29,-1
 613 0 l 1,30,-1
 540 0 l 1,31,-1
 540 326 l 2,32,33
 540 393 540 393 527 425.5 c 128,-1,34
 514 458 514 458 468 458 c 0,35,36
 429 458 429 458 406 434 c 128,-1,37
 383 410 383 410 374 369 c 1,38,-1
 374 0 l 1,39,-1
 300 0 l 1,0,-1
EndSplineSet
EndChar

StartChar: n
Encoding: 110 110 81
Width: 449
Flags: W
LayerCount: 2
Fore
SplineSet
323 0 m 1,0,-1
 323 312 l 2,1,2
 323 389 323 389 305 423.5 c 128,-1,3
 287 458 287 458 241 458 c 0,4,5
 200 458 200 458 173 433.5 c 128,-1,6
 146 409 146 409 134 373 c 1,7,-1
 134 0 l 1,8,-1
 60 0 l 1,9,-1
 60 512 l 1,10,-1
 114 512 l 1,11,-1
 127 458 l 1,12,-1
 130 458 l 1,13,14
 149 486 149 486 182.5 505 c 128,-1,15
 216 524 216 524 262 524 c 0,16,17
 295 524 295 524 320 515 c 128,-1,18
 345 506 345 506 362 484 c 128,-1,19
 379 462 379 462 387.5 425 c 128,-1,20
 396 388 396 388 396 332 c 2,21,-1
 396 0 l 1,22,-1
 323 0 l 1,0,-1
EndSplineSet
EndChar

StartChar: o
Encoding: 111 111 82
Width: 442
Flags: W
LayerCount: 2
Fore
SplineSet
38 256 m 4,0,1
 38 394 38 394 85.5 459 c 132,-1,2
 133 524 133 524 221 524 c 4,3,4
 315 524 315 524 359.5 457.5 c 132,-1,5
 404 391 404 391 404 256 c 4,6,7
 404 117 404 117 356 52.5 c 132,-1,8
 308 -12 308 -12 221 -12 c 4,9,10
 127 -12 127 -12 82.5 54.5 c 132,-1,11
 38 121 38 121 38 256 c 4,0,1
115 256 m 4,12,13
 115 211 115 211 120.5 174 c 132,-1,14
 126 137 126 137 139 110.5 c 132,-1,15
 152 84 152 84 172.5 69 c 132,-1,16
 193 54 193 54 221 54 c 4,17,18
 274 54 274 54 301 102 c 132,-1,19
 328 150 328 150 328 256 c 4,20,21
 328 300 328 300 322 337.5 c 132,-1,22
 316 375 316 375 303.5 401.5 c 132,-1,23
 291 428 291 428 270.5 443 c 132,-1,24
 250 458 250 458 221 458 c 4,25,26
 169 458 169 458 142 409.5 c 132,-1,27
 115 361 115 361 115 256 c 4,12,13
EndSplineSet
Substitution2: "Single Substitution lookup 13 subtable" ordmasculine
EndChar

StartChar: p
Encoding: 112 112 83
Width: 445
Flags: W
LayerCount: 2
Fore
SplineSet
60 512 m 1,0,-1
 113 512 l 1,1,-1
 124 457 l 1,2,-1
 128 457 l 1,3,4
 166 525 166 525 247 524 c 256,5,6
 328 524 328 524 368.5 463.5 c 128,-1,7
 409 403 409 403 409 266 c 0,8,9
 409 201 409 201 395.5 149.5 c 128,-1,10
 382 98 382 98 357.5 62 c 128,-1,11
 333 26 333 26 297.5 7 c 128,-1,12
 262 -12 262 -12 219 -12 c 0,13,14
 189 -12 189 -12 172 -8.5 c 128,-1,15
 155 -5 155 -5 134 6 c 1,16,-1
 134 -205 l 1,17,-1
 60 -205 l 1,18,-1
 60 512 l 1,0,-1
134 81 m 1,19,20
 148 69 148 69 166 61.5 c 128,-1,21
 184 54 184 54 214 54 c 0,22,23
 268 54 268 54 300 109.5 c 128,-1,24
 332 165 332 165 332 267 c 0,25,26
 332 310 332 310 326.5 345 c 128,-1,27
 321 380 321 380 308.5 405 c 128,-1,28
 296 430 296 430 277 444 c 128,-1,29
 258 458 258 458 230 458 c 0,30,31
 155 458 155 458 134 367 c 1,32,-1
 134 81 l 1,19,20
EndSplineSet
EndChar

StartChar: q
Encoding: 113 113 84
Width: 442
Flags: W
LayerCount: 2
Fore
SplineSet
383 -205 m 1,0,-1
 309 -205 l 1,1,-1
 309 42 l 1,2,-1
 305 42 l 1,3,4
 289 16 289 16 264 2 c 128,-1,5
 239 -12 239 -12 199 -12 c 0,6,7
 118 -12 118 -12 78 53 c 128,-1,8
 38 118 38 118 38 254 c 0,9,10
 38 386 38 386 90 453.5 c 128,-1,11
 142 521 142 521 242 521 c 0,12,13
 285 521 285 521 323.5 511 c 128,-1,14
 362 501 362 501 383 489 c 1,15,-1
 383 -205 l 1,0,-1
309 437 m 1,16,17
 280 454 280 454 228 455 c 0,18,19
 175 455 175 455 145 405.5 c 128,-1,20
 115 356 115 356 115 255 c 0,21,22
 115 212 115 212 120 175 c 128,-1,23
 125 138 125 138 136.5 111 c 128,-1,24
 148 84 148 84 167 69 c 128,-1,25
 186 54 186 54 214 54 c 0,26,27
 253 54 253 54 275.5 76.5 c 128,-1,28
 298 99 298 99 309 142 c 1,29,-1
 309 437 l 1,16,17
EndSplineSet
EndChar

StartChar: r
Encoding: 114 114 85
Width: 280
Flags: W
LayerCount: 2
Fore
SplineSet
60 512 m 1,0,-1
 113 512 l 1,1,-1
 126 458 l 1,2,-1
 129 458 l 1,3,4
 143 488 143 488 166 504.5 c 128,-1,5
 189 521 189 521 222 521 c 0,6,7
 246 521 246 521 275 512 c 1,8,-1
 261 437 l 1,9,10
 234 446 234 446 214 446 c 0,11,12
 181 446 181 446 160.5 427.5 c 128,-1,13
 140 409 140 409 134 377 c 1,14,-1
 134 0 l 1,15,-1
 60 0 l 1,16,-1
 60 512 l 1,0,-1
EndSplineSet
EndChar

StartChar: s
Encoding: 115 115 86
Width: 346
Flags: W
LayerCount: 2
Fore
SplineSet
52 84 m 1,0,1
 72 72 72 72 100.5 63 c 128,-1,2
 129 54 129 54 159 54 c 0,3,4
 193 54 193 54 216.5 71 c 128,-1,5
 240 88 240 88 240 126 c 0,6,7
 240 158 240 158 225.5 178.5 c 128,-1,8
 211 199 211 199 189 215 c 128,-1,9
 167 231 167 231 141.5 245 c 128,-1,10
 116 259 116 259 94 278.5 c 128,-1,11
 72 298 72 298 57.5 324.5 c 128,-1,12
 43 351 43 351 43 392 c 0,13,14
 43 458 43 458 78.5 491 c 128,-1,15
 114 524 114 524 178 524 c 0,16,17
 220 524 220 524 251 516.5 c 128,-1,18
 282 509 282 509 304 496 c 1,19,-1
 285 434 l 1,20,21
 266 444 266 444 240 451 c 128,-1,22
 214 458 214 458 187 458 c 0,23,24
 150 458 150 458 133.5 442.5 c 128,-1,25
 117 427 117 427 117 394 c 0,26,27
 117 368 117 368 131 350.5 c 128,-1,28
 145 333 145 333 167 318 c 128,-1,29
 189 303 189 303 215 287.5 c 128,-1,30
 241 272 241 272 263 251 c 128,-1,31
 285 230 285 230 299 201 c 128,-1,32
 313 172 313 172 313 128 c 0,33,34
 313 99 313 99 304 73.5 c 128,-1,35
 295 48 295 48 276 29 c 128,-1,36
 257 10 257 10 229 -1 c 128,-1,37
 201 -12 201 -12 163 -12 c 0,38,39
 118 -12 118 -12 85 -3.5 c 128,-1,40
 52 5 52 5 30 19 c 1,41,-1
 52 84 l 1,0,1
EndSplineSet
Substitution2: "'hist' Historical Forms lookup 10 subtable" longs
Substitution2: "'aalt' Access All Alternates lookup 0 subtable" longs
EndChar

StartChar: t
Encoding: 116 116 87
Width: 281
Flags: W
LayerCount: 2
Fore
SplineSet
9 512 m 1,0,-1
 72 512 l 1,1,-1
 72 613 l 1,2,-1
 145 637 l 1,3,-1
 145 512 l 1,4,-1
 256 512 l 1,5,-1
 256 445 l 1,6,-1
 145 445 l 1,7,-1
 145 140 l 2,8,9
 145 95 145 95 156 75 c 128,-1,10
 167 55 167 55 191 55 c 0,11,12
 211 55 211 55 226.5 60 c 128,-1,13
 242 65 242 65 259 72 c 1,14,-1
 273 13 l 1,15,16
 250 2 250 2 223.5 -4.5 c 128,-1,17
 197 -11 197 -11 167 -11 c 0,18,19
 116 -11 116 -11 94 22 c 128,-1,20
 72 55 72 55 72 130 c 2,21,-1
 72 445 l 1,22,-1
 9 445 l 1,23,-1
 9 512 l 1,0,-1
EndSplineSet
EndChar

StartChar: u
Encoding: 117 117 88
Width: 444
Flags: W
LayerCount: 2
Fore
SplineSet
127 512 m 5,0,-1
 127 199 l 6,1,2
 127 121 127 121 143 87.5 c 132,-1,3
 159 54 159 54 201 54 c 4,4,5
 223 54 223 54 239.5 63 c 132,-1,6
 256 72 256 72 269.5 86 c 132,-1,7
 283 100 283 100 293 118.5 c 132,-1,8
 303 137 303 137 309 157 c 5,9,-1
 309 512 l 5,10,-1
 383 512 l 5,11,-1
 383 145 l 6,12,13
 383 108 383 108 385.5 69 c 132,-1,14
 388 30 388 30 393 0 c 5,15,-1
 341 0 l 5,16,-1
 323 72 l 5,17,-1
 319 72 l 5,18,19
 302 38 302 38 269.5 13 c 132,-1,20
 237 -12 237 -12 187 -12 c 4,21,22
 154 -12 154 -12 129.5 -4 c 132,-1,23
 105 4 105 4 88 25.5 c 132,-1,24
 71 47 71 47 62 84.5 c 132,-1,25
 53 122 53 122 53 180 c 6,26,-1
 53 512 l 5,27,-1
 127 512 l 5,0,-1
EndSplineSet
EndChar

StartChar: v
Encoding: 118 118 89
Width: 397
Flags: W
LayerCount: 2
Fore
SplineSet
184 212 m 1,0,-1
 205 111 l 1,1,-1
 207 111 l 1,2,-1
 225 214 l 1,3,-1
 315 512 l 1,4,-1
 393 512 l 1,5,-1
 218 -11 l 1,6,-1
 182 -11 l 1,7,-1
 4 512 l 1,8,-1
 88 512 l 1,9,-1
 184 212 l 1,0,-1
EndSplineSet
EndChar

StartChar: w
Encoding: 119 119 90
Width: 604
Flags: W
LayerCount: 2
Fore
SplineSet
334 512 m 1,0,-1
 425 213 l 1,1,-1
 443 115 l 1,2,-1
 445 115 l 1,3,-1
 461 215 l 1,4,-1
 530 512 l 1,5,-1
 600 512 l 1,6,-1
 464 -11 l 1,7,-1
 422 -11 l 1,8,-1
 318 325 l 1,9,-1
 304 411 l 1,10,-1
 302 411 l 1,11,-1
 288 324 l 1,12,-1
 187 -11 l 1,13,-1
 145 -11 l 1,14,-1
 5 512 l 1,15,-1
 84 512 l 1,16,-1
 163 214 l 1,17,-1
 175 115 l 1,18,-1
 177 115 l 1,19,-1
 196 216 l 1,20,-1
 280 512 l 1,21,-1
 334 512 l 1,0,-1
EndSplineSet
EndChar

StartChar: x
Encoding: 120 120 91
Width: 421
Flags: W
LayerCount: 2
Fore
SplineSet
165 262 m 1,0,-1
 30 512 l 1,1,-1
 118 512 l 1,2,-1
 194 366 l 1,3,-1
 214 308 l 1,4,-1
 236 366 l 1,5,-1
 313 512 l 1,6,-1
 394 512 l 1,7,-1
 258 266 l 1,8,-1
 402 0 l 1,9,-1
 318 0 l 1,10,-1
 232 161 l 1,11,-1
 210 222 l 1,12,-1
 186 161 l 1,13,-1
 100 0 l 1,14,-1
 19 0 l 1,15,-1
 165 262 l 1,0,-1
EndSplineSet
EndChar

StartChar: y
Encoding: 121 121 92
Width: 385
Flags: W
LayerCount: 2
Fore
SplineSet
187 181 m 1,0,-1
 209 82 l 1,1,-1
 214 82 l 1,2,-1
 229 181 l 1,3,-1
 307 512 l 1,4,-1
 382 512 l 1,5,-1
 260 52 l 2,6,7
 246 -3 246 -3 231.5 -51 c 128,-1,8
 217 -99 217 -99 200 -134.5 c 128,-1,9
 183 -170 183 -170 162 -190 c 128,-1,10
 141 -210 141 -210 113 -210 c 256,11,12
 84 -210 84 -210 62 -201 c 1,13,-1
 75 -131 l 1,14,15
 89 -136 89 -136 103.5 -133 c 128,-1,16
 118 -130 118 -130 130.5 -115.5 c 128,-1,17
 143 -101 143 -101 154 -73 c 128,-1,18
 165 -45 165 -45 173 0 c 1,19,-1
 7 512 l 1,20,-1
 91 512 l 1,21,-1
 187 181 l 1,0,-1
EndSplineSet
EndChar

StartChar: z
Encoding: 122 122 93
Width: 368
Flags: W
LayerCount: 2
Fore
SplineSet
33 67 m 1,0,-1
 223 401 l 1,1,-1
 259 445 l 1,2,-1
 33 445 l 1,3,-1
 33 512 l 1,4,-1
 332 512 l 1,5,-1
 332 445 l 1,6,-1
 140 108 l 1,7,-1
 105 67 l 1,8,-1
 332 67 l 1,9,-1
 332 0 l 1,10,-1
 33 0 l 1,11,-1
 33 67 l 1,0,-1
EndSplineSet
EndChar

StartChar: braceleft
Encoding: 123 123 94
Width: 288
Flags: W
LayerCount: 2
Fore
SplineSet
110 117 m 2,0,1
 110 169 110 169 93 188.5 c 128,-1,2
 76 208 76 208 44 208 c 1,3,-1
 44 274 l 1,4,5
 76 274 76 274 93 294.5 c 128,-1,6
 110 315 110 315 110 360 c 2,7,-1
 110 613 l 2,8,9
 110 661 110 661 128.5 689.5 c 128,-1,10
 147 718 147 718 190 718 c 2,11,-1
 266 718 l 1,12,-1
 266 651 l 1,13,-1
 226 651 l 2,14,15
 202 651 202 651 192.5 638.5 c 128,-1,16
 183 626 183 626 183 593 c 2,17,-1
 183 343 l 2,18,19
 183 298 183 298 166.5 274.5 c 128,-1,20
 150 251 150 251 126 246 c 1,21,-1
 126 240 l 1,22,23
 150 236 150 236 166.5 208.5 c 128,-1,24
 183 181 183 181 183 138 c 2,25,-1
 183 -111 l 2,26,27
 183 -143 183 -143 193 -156 c 128,-1,28
 203 -169 203 -169 227 -169 c 2,29,-1
 266 -169 l 1,30,-1
 266 -236 l 1,31,-1
 190 -236 l 2,32,33
 109 -236 109 -236 110 -132 c 2,34,-1
 110 117 l 2,0,1
EndSplineSet
Position2: "'case' Case-Sensitive Forms lookup 1 per glyph data 3" dx=0 dy=102 dh=0 dv=0
EndChar

StartChar: bar
Encoding: 124 124 95
Width: 194
Flags: W
LayerCount: 2
Fore
SplineSet
67 717 m 1,0,-1
 129 717 l 1,1,-1
 129 -133 l 1,2,-1
 67 -133 l 1,3,-1
 67 717 l 1,0,-1
EndSplineSet
EndChar

StartChar: braceright
Encoding: 125 125 96
Width: 288
Flags: W
LayerCount: 2
Fore
SplineSet
179 -132 m 2,0,1
 179 -235 179 -235 98 -236 c 2,2,-1
 23 -236 l 1,3,-1
 23 -169 l 1,4,-1
 61 -169 l 2,5,6
 86 -169 86 -169 95.5 -155.5 c 128,-1,7
 105 -142 105 -142 105 -111 c 2,8,-1
 105 138 l 2,9,10
 105 181 105 181 122 208.5 c 128,-1,11
 139 236 139 236 163 240 c 1,12,-1
 163 246 l 1,13,14
 139 251 139 251 122 274.5 c 128,-1,15
 105 298 105 298 105 343 c 2,16,-1
 105 593 l 2,17,18
 105 626 105 626 95.5 638.5 c 128,-1,19
 86 651 86 651 62 651 c 2,20,-1
 23 651 l 1,21,-1
 23 718 l 1,22,-1
 98 718 l 2,23,24
 141 718 141 718 160 690 c 128,-1,25
 179 662 179 662 179 613 c 2,26,-1
 179 360 l 2,27,28
 179 315 179 315 196 294.5 c 128,-1,29
 213 274 213 274 245 274 c 1,30,-1
 245 208 l 1,31,32
 213 208 213 208 196 188.5 c 128,-1,33
 179 169 179 169 179 117 c 2,34,-1
 179 -132 l 2,0,1
EndSplineSet
Position2: "'case' Case-Sensitive Forms lookup 1 per glyph data 3" dx=0 dy=102 dh=0 dv=0
EndChar

StartChar: asciitilde
Encoding: 126 126 97
Width: 424
Flags: W
LayerCount: 2
Fore
SplineSet
24 370 m 1,0,1
 61 404 61 404 90.5 417 c 128,-1,2
 120 430 120 430 145 430 c 0,3,4
 169 430 169 430 189.5 421.5 c 128,-1,5
 210 413 210 413 228.5 403 c 128,-1,6
 247 393 247 393 265 384.5 c 128,-1,7
 283 376 283 376 301 376 c 0,8,9
 315 376 315 376 331.5 383 c 128,-1,10
 348 390 348 390 366 410 c 1,11,-1
 400 348 l 1,12,13
 367 320 367 320 341.5 309.5 c 128,-1,14
 316 299 316 299 295 299 c 0,15,16
 272 299 272 299 253 307.5 c 128,-1,17
 234 316 234 316 216.5 327 c 128,-1,18
 199 338 199 338 181 346.5 c 128,-1,19
 163 355 163 355 143 355 c 0,20,21
 125 355 125 355 104 345 c 128,-1,22
 83 335 83 335 57 309 c 1,23,-1
 24 370 l 1,0,1
EndSplineSet
EndChar

StartChar: cent
Encoding: 162 162 100
Width: 460
Flags: W
LayerCount: 2
Fore
SplineSet
391 28 m 1,0,1
 373 13 373 13 348 3.5 c 128,-1,2
 323 -6 323 -6 296 -9 c 1,3,-1
 296 -102 l 1,4,-1
 229 -102 l 1,5,-1
 229 -10 l 1,6,7
 187 -4 187 -4 158.5 17.5 c 128,-1,8
 130 39 130 39 112 73.5 c 128,-1,9
 94 108 94 108 86 154.5 c 128,-1,10
 78 201 78 201 78 256 c 0,11,12
 78 373 78 373 117 440.5 c 128,-1,13
 156 508 156 508 229 521 c 1,14,-1
 229 614 l 1,15,-1
 296 614 l 1,16,-1
 296 523 l 1,17,18
 324 521 324 521 345.5 515 c 128,-1,19
 367 509 367 509 384 499 c 1,20,-1
 364 434 l 1,21,22
 349 443 349 443 329.5 449 c 128,-1,23
 310 455 310 455 290 457 c 1,24,-1
 290 54 l 1,25,26
 316 56 316 56 336 65.5 c 128,-1,27
 356 75 356 75 370 86 c 1,28,-1
 391 28 l 1,0,1
152 256 m 1,29,30
 155 219 155 219 159.5 187 c 128,-1,31
 164 155 164 155 174 129 c 128,-1,32
 184 103 184 103 200.5 85 c 128,-1,33
 217 67 217 67 241 59 c 1,34,-1
 241 454 l 1,35,36
 197 443 197 443 176 394.5 c 128,-1,37
 155 346 155 346 152 256 c 1,29,30
EndSplineSet
EndChar

StartChar: sterling
Encoding: 163 163 101
Width: 460
Flags: W
LayerCount: 2
Fore
SplineSet
43 391 m 1,0,-1
 98 391 l 1,1,2
 88 421 88 421 81 454.5 c 128,-1,3
 74 488 74 488 74 535 c 0,4,5
 74 634 74 634 121 681.5 c 128,-1,6
 168 729 168 729 248 729 c 0,7,8
 298 729 298 729 335 721 c 128,-1,9
 372 713 372 713 397 700 c 1,10,-1
 373 635 l 1,11,12
 354 645 354 645 323.5 652.5 c 128,-1,13
 293 660 293 660 250 660 c 0,14,15
 203 660 203 660 177 627.5 c 128,-1,16
 151 595 151 595 151 531 c 0,17,18
 151 488 151 488 160 455.5 c 128,-1,19
 169 423 169 423 180 391 c 1,20,-1
 310 391 l 1,21,-1
 310 325 l 1,22,-1
 204 325 l 1,23,24
 211 301 211 301 215.5 274.5 c 128,-1,25
 220 248 220 248 220 215 c 0,26,27
 220 185 220 185 211.5 150.5 c 128,-1,28
 203 116 203 116 187 94 c 1,29,-1
 147 58 l 1,30,-1
 147 54 l 1,31,-1
 208 69 l 1,32,-1
 414 69 l 1,33,-1
 414 0 l 1,34,-1
 43 0 l 1,35,-1
 43 69 l 1,36,37
 69 70 69 70 87.5 82 c 128,-1,38
 106 94 106 94 118.5 114 c 128,-1,39
 131 134 131 134 137 159 c 128,-1,40
 143 184 143 184 143 209 c 0,41,42
 143 244 143 244 137 271.5 c 128,-1,43
 131 299 131 299 123 325 c 1,44,-1
 43 325 l 1,45,-1
 43 391 l 1,0,-1
EndSplineSet
EndChar

StartChar: currency
Encoding: 164 164 102
Width: 460
Flags: W
LayerCount: 2
Fore
SplineSet
47 593 m 1,0,-1
 118 524 l 1,1,-1
 137 493 l 1,2,3
 175 523 175 523 230 522 c 0,4,5
 257 522 257 522 281 514.5 c 128,-1,6
 305 507 305 507 324 493 c 1,7,-1
 343 524 l 1,8,-1
 415 593 l 1,9,-1
 458 549 l 1,10,-1
 389 478 l 1,11,-1
 357 459 l 1,12,13
 386 419 386 419 386 367 c 0,14,15
 386 310 386 310 357 273 c 1,16,-1
 389 254 l 1,17,-1
 458 183 l 1,18,-1
 415 139 l 1,19,-1
 343 209 l 1,20,-1
 325 240 l 1,21,22
 285 211 285 211 230 211 c 256,23,24
 175 211 175 211 137 240 c 1,25,-1
 118 209 l 1,26,-1
 47 139 l 1,27,-1
 3 183 l 1,28,-1
 73 254 l 1,29,-1
 103 273 l 1,30,31
 74 311 74 311 75 367 c 0,32,33
 75 394 75 394 82.5 416.5 c 128,-1,34
 90 439 90 439 103 459 c 1,35,-1
 73 478 l 1,36,-1
 3 549 l 1,37,-1
 47 593 l 1,0,-1
138 367 m 0,38,39
 138 325 138 325 163.5 297.5 c 128,-1,40
 189 270 189 270 230 270 c 256,41,42
 271 270 271 270 297.5 297.5 c 128,-1,43
 324 325 324 325 324 367 c 0,44,45
 324 407 324 407 297.5 434.5 c 128,-1,46
 271 462 271 462 230 462 c 256,47,48
 189 462 189 462 163.5 434.5 c 128,-1,49
 138 407 138 407 138 367 c 0,38,39
EndSplineSet
EndChar

StartChar: yen
Encoding: 165 165 103
Width: 460
Flags: W
LayerCount: 2
Fore
SplineSet
91 334 m 1,0,-1
 172 334 l 1,1,-1
 3 717 l 1,2,-1
 93 717 l 1,3,-1
 222 404 l 1,4,-1
 236 342 l 1,5,-1
 238 342 l 1,6,-1
 251 407 l 1,7,-1
 376 717 l 1,8,-1
 459 717 l 1,9,-1
 291 334 l 1,10,-1
 373 334 l 1,11,-1
 373 274 l 1,12,-1
 270 274 l 1,13,-1
 270 202 l 1,14,-1
 373 202 l 1,15,-1
 373 142 l 1,16,-1
 270 142 l 1,17,-1
 270 0 l 1,18,-1
 194 0 l 1,19,-1
 194 142 l 1,20,-1
 91 142 l 1,21,-1
 91 202 l 1,22,-1
 194 202 l 1,23,-1
 194 274 l 1,24,-1
 91 274 l 1,25,-1
 91 334 l 1,0,-1
EndSplineSet
EndChar

StartChar: brokenbar
Encoding: 166 166 104
Width: 193
Flags: W
LayerCount: 2
Fore
SplineSet
66 211 m 1,0,-1
 128 211 l 1,1,-1
 128 -133 l 1,2,-1
 66 -133 l 1,3,-1
 66 211 l 1,0,-1
128 373 m 1,4,-1
 66 373 l 1,5,-1
 66 717 l 1,6,-1
 128 717 l 1,7,-1
 128 373 l 1,4,-1
EndSplineSet
EndChar

StartChar: section
Encoding: 167 167 105
Width: 414
Flags: W
LayerCount: 2
Fore
SplineSet
46 361 m 0,0,1
 46 393 46 393 59.5 424.5 c 128,-1,2
 73 456 73 456 96 479 c 1,3,-1
 131 495 l 1,4,5
 108 512 108 512 92.5 536.5 c 128,-1,6
 77 561 77 561 77 604 c 0,7,8
 77 658 77 658 111 693.5 c 128,-1,9
 145 729 145 729 213 729 c 0,10,11
 256 729 256 729 287.5 721 c 128,-1,12
 319 713 319 713 342 701 c 1,13,-1
 324 638 l 1,14,15
 302 648 302 648 276 655.5 c 128,-1,16
 250 663 250 663 221 663 c 0,17,18
 184 663 184 663 167.5 645.5 c 128,-1,19
 151 628 151 628 151 602 c 0,20,21
 151 575 151 575 167 559 c 128,-1,22
 183 543 183 543 207 530 c 128,-1,23
 231 517 231 517 259.5 505 c 128,-1,24
 288 493 288 493 312 474.5 c 128,-1,25
 336 456 336 456 352.5 427.5 c 128,-1,26
 369 399 369 399 369 355 c 0,27,28
 369 323 369 323 356.5 291 c 128,-1,29
 344 259 344 259 321 236 c 1,30,-1
 284 221 l 1,31,32
 306 205 306 205 322 180 c 128,-1,33
 338 155 338 155 338 113 c 0,34,35
 338 52 338 52 299.5 20 c 128,-1,36
 261 -12 261 -12 199 -12 c 0,37,38
 156 -12 156 -12 125 -4.5 c 128,-1,39
 94 3 94 3 72 17 c 1,40,-1
 91 80 l 1,41,42
 110 69 110 69 136 61.5 c 128,-1,43
 162 54 162 54 190 54 c 0,44,45
 264 54 264 54 264 117 c 0,46,47
 264 142 264 142 247.5 157.5 c 128,-1,48
 231 173 231 173 207 186 c 128,-1,49
 183 199 183 199 155 211 c 128,-1,50
 127 223 127 223 103 242 c 128,-1,51
 79 261 79 261 62.5 289 c 128,-1,52
 46 317 46 317 46 361 c 0,0,1
295 353 m 0,53,54
 295 378 295 378 285 394.5 c 128,-1,55
 275 411 275 411 259 422.5 c 128,-1,56
 243 434 243 434 222 444 c 128,-1,57
 201 454 201 454 178 464 c 1,58,59
 153 450 153 450 136.5 425 c 128,-1,60
 120 400 120 400 120 364 c 0,61,62
 120 340 120 340 129.5 323 c 128,-1,63
 139 306 139 306 155.5 293.5 c 128,-1,64
 172 281 172 281 193 271 c 128,-1,65
 214 261 214 261 237 251 c 1,66,67
 260 265 260 265 277.5 292.5 c 128,-1,68
 295 320 295 320 295 353 c 0,53,54
EndSplineSet
EndChar

StartChar: dieresis
Encoding: 168 168 106
Width: 373
Flags: W
LayerCount: 2
Fore
SplineSet
61 669 m 0,0,1
 61 693 61 693 73 706 c 128,-1,2
 85 719 85 719 105 719 c 256,3,4
 125 719 125 719 137.5 705.5 c 128,-1,5
 150 692 150 692 150 669 c 0,6,7
 150 647 150 647 138 634 c 128,-1,8
 126 621 126 621 105 621 c 256,9,10
 85 621 85 621 73 634 c 128,-1,11
 61 647 61 647 61 669 c 0,0,1
224 669 m 0,12,13
 224 693 224 693 236 706 c 128,-1,14
 248 719 248 719 268 719 c 256,15,16
 288 719 288 719 300 705.5 c 128,-1,17
 312 692 312 692 312 669 c 0,18,19
 312 647 312 647 300.5 634 c 128,-1,20
 289 621 289 621 268 621 c 256,21,22
 248 621 248 621 236 634 c 128,-1,23
 224 647 224 647 224 669 c 0,12,13
EndSplineSet
EndChar

StartChar: copyright
Encoding: 169 169 107
Width: 709
Flags: W
LayerCount: 2
Fore
SplineSet
51 300 m 256,0,1
 51 372 51 372 75 428 c 128,-1,2
 99 484 99 484 140.5 523 c 128,-1,3
 182 562 182 562 237.5 583 c 128,-1,4
 293 604 293 604 355 604 c 256,5,6
 417 604 417 604 472.5 583 c 128,-1,7
 528 562 528 562 569.5 523 c 128,-1,8
 611 484 611 484 635 428 c 128,-1,9
 659 372 659 372 659 300 c 256,10,11
 659 228 659 228 635 172 c 128,-1,12
 611 116 611 116 569.5 76.5 c 128,-1,13
 528 37 528 37 473 16.5 c 128,-1,14
 418 -4 418 -4 355 -4 c 0,15,16
 285 -4 285 -4 229.5 16.5 c 128,-1,17
 174 37 174 37 134 76.5 c 128,-1,18
 94 116 94 116 72.5 172 c 128,-1,19
 51 228 51 228 51 300 c 256,0,1
113 300 m 256,20,21
 113 241 113 241 132 194.5 c 128,-1,22
 151 148 151 148 183.5 117 c 128,-1,23
 216 86 216 86 260 69.5 c 128,-1,24
 304 53 304 53 355 53 c 0,25,26
 405 53 405 53 450 69.5 c 128,-1,27
 495 86 495 86 527.5 117 c 128,-1,28
 560 148 560 148 579 194.5 c 128,-1,29
 598 241 598 241 598 300 c 256,30,31
 598 359 598 359 579 405.5 c 128,-1,32
 560 452 560 452 527.5 483 c 128,-1,33
 495 514 495 514 450.5 530.5 c 128,-1,34
 406 547 406 547 355 547 c 256,35,36
 304 547 304 547 260 530.5 c 128,-1,37
 216 514 216 514 183.5 483 c 128,-1,38
 151 452 151 452 132 405.5 c 128,-1,39
 113 359 113 359 113 300 c 256,20,21
457 159 m 1,40,41
 437 148 437 148 412 141.5 c 128,-1,42
 387 135 387 135 354 135 c 0,43,44
 284 135 284 135 247.5 179.5 c 128,-1,45
 211 224 211 224 211 300 c 0,46,47
 211 379 211 379 250.5 421.5 c 128,-1,48
 290 464 290 464 354 464 c 0,49,50
 386 464 386 464 405.5 458 c 128,-1,51
 425 452 425 452 451 440 c 1,52,-1
 428 384 l 1,53,54
 409 393 409 393 392 397 c 128,-1,55
 375 401 375 401 362 401 c 0,56,57
 326 401 326 401 305.5 378 c 128,-1,58
 285 355 285 355 285 300 c 0,59,60
 285 199 285 199 370 199 c 0,61,62
 409 199 409 199 438 215 c 1,63,-1
 457 159 l 1,40,41
EndSplineSet
EndChar

StartChar: ordfeminine
Encoding: 170 170 108
Width: 323
Flags: W
LayerCount: 2
Fore
SplineSet
53 697 m 1,0,1
 75 708 75 708 109 716.5 c 128,-1,2
 143 725 143 725 186 725 c 0,3,4
 240 725 240 725 260 698.5 c 128,-1,5
 280 672 280 672 281 622 c 1,6,7
 280 551 280 551 276.5 492.5 c 128,-1,8
 273 434 273 434 285 389 c 1,9,-1
 233 389 l 1,10,-1
 221 432 l 1,11,-1
 218 432 l 1,12,13
 208 415 208 415 188 400 c 128,-1,14
 168 385 168 385 134 385 c 0,15,16
 88 385 88 385 62.5 411 c 128,-1,17
 37 437 37 437 37 482 c 0,18,19
 37 516 37 516 51.5 538.5 c 128,-1,20
 66 561 66 561 90.5 574.5 c 128,-1,21
 115 588 115 588 147 592.5 c 128,-1,22
 179 597 179 597 217 595 c 1,23,24
 219 636 219 636 210.5 653.5 c 128,-1,25
 202 671 202 671 169 671 c 0,26,27
 139 671 139 671 113 664 c 128,-1,28
 87 657 87 657 70 649 c 1,29,-1
 53 697 l 1,0,1
146 440 m 0,30,31
 177 440 177 440 193 455 c 128,-1,32
 209 470 209 470 217 485 c 1,33,-1
 217 544 l 1,34,35
 195 545 195 545 175 544.5 c 128,-1,36
 155 544 155 544 138.5 539 c 128,-1,37
 122 534 122 534 111.5 522 c 128,-1,38
 101 510 101 510 101 488 c 0,39,40
 101 468 101 468 112 454 c 128,-1,41
 123 440 123 440 146 440 c 0,30,31
EndSplineSet
EndChar

StartChar: guillemotleft
Encoding: 171 171 109
Width: 395
Flags: W
LayerCount: 2
Fore
SplineSet
182 265 m 1,0,-1
 312 499 l 1,1,-1
 361 465 l 1,2,-1
 280 308 l 1,3,-1
 241 266 l 1,4,-1
 280 229 l 1,5,-1
 367 76 l 1,6,-1
 317 41 l 1,7,-1
 182 265 l 1,0,-1
30 265 m 1,8,-1
 162 501 l 1,9,-1
 213 466 l 1,10,-1
 129 308 l 1,11,-1
 90 266 l 1,12,-1
 129 229 l 1,13,-1
 219 75 l 1,14,-1
 167 39 l 1,15,-1
 30 265 l 1,8,-1
EndSplineSet
Position2: "'case' Case-Sensitive Forms lookup 1 per glyph data 3" dx=0 dy=102 dh=0 dv=0
EndChar

StartChar: logicalnot
Encoding: 172 172 110
Width: 424
Flags: W
LayerCount: 2
Fore
SplineSet
37 400 m 1,0,-1
 388 400 l 1,1,-1
 388 205 l 1,2,-1
 322 205 l 1,3,-1
 322 330 l 1,4,-1
 37 330 l 1,5,-1
 37 400 l 1,0,-1
EndSplineSet
EndChar

StartChar: uni00AD
Encoding: 173 173 111
Width: 297
Flags: W
LayerCount: 2
Fore
SplineSet
48 328 m 1,0,-1
 250 328 l 1,1,-1
 250 257 l 1,2,-1
 48 257 l 1,3,-1
 48 328 l 1,0,-1
EndSplineSet
EndChar

StartChar: registered
Encoding: 174 174 112
Width: 605
Flags: W
LayerCount: 2
Fore
SplineSet
74 502 m 256,0,1
 74 557 74 557 92.5 599.5 c 128,-1,2
 111 642 111 642 142 671 c 128,-1,3
 173 700 173 700 214.5 715 c 128,-1,4
 256 730 256 730 302 730 c 0,5,6
 350 730 350 730 392 715 c 128,-1,7
 434 700 434 700 465 671 c 128,-1,8
 496 642 496 642 513.5 599.5 c 128,-1,9
 531 557 531 557 531 502 c 256,10,11
 531 447 531 447 513 403.5 c 128,-1,12
 495 360 495 360 463.5 331 c 128,-1,13
 432 302 432 302 390.5 287 c 128,-1,14
 349 272 349 272 302 272 c 0,15,16
 254 272 254 272 212.5 287 c 128,-1,17
 171 302 171 302 140.5 331 c 128,-1,18
 110 360 110 360 92 403.5 c 128,-1,19
 74 447 74 447 74 502 c 256,0,1
129 502 m 0,20,21
 129 457 129 457 143 423.5 c 128,-1,22
 157 390 157 390 180.5 367.5 c 128,-1,23
 204 345 204 345 235 334.5 c 128,-1,24
 266 324 266 324 302 324 c 0,25,26
 340 324 340 324 371.5 334.5 c 128,-1,27
 403 345 403 345 426.5 367 c 128,-1,28
 450 389 450 389 463 422.5 c 128,-1,29
 476 456 476 456 476 502 c 0,30,31
 476 546 476 546 462.5 579 c 128,-1,32
 449 612 449 612 425 634.5 c 128,-1,33
 401 657 401 657 369.5 668 c 128,-1,34
 338 679 338 679 302 679 c 0,35,36
 264 679 264 679 232.5 668 c 128,-1,37
 201 657 201 657 178 634.5 c 128,-1,38
 155 612 155 612 142 579 c 128,-1,39
 129 546 129 546 129 502 c 0,20,21
213 613 m 1,40,41
 227 617 227 617 252.5 620 c 128,-1,42
 278 623 278 623 300 623 c 0,43,44
 336 623 336 623 362 607.5 c 128,-1,45
 388 592 388 592 388 555 c 0,46,47
 388 527 388 527 370.5 512.5 c 128,-1,48
 353 498 353 498 327 496 c 1,49,-1
 351 484 l 1,50,-1
 415 389 l 1,51,-1
 361 389 l 1,52,-1
 300 479 l 1,53,-1
 258 493 l 1,54,-1
 258 389 l 1,55,-1
 213 389 l 1,56,-1
 213 613 l 1,40,41
290 584 m 0,57,58
 282 584 282 584 272.5 583.5 c 128,-1,59
 263 583 263 583 258 580 c 1,60,-1
 258 518 l 1,61,-1
 288 518 l 2,62,63
 340 518 340 518 340 553 c 0,64,65
 340 584 340 584 290 584 c 0,57,58
EndSplineSet
EndChar

StartChar: macron
Encoding: 175 175 113
Width: 371
Flags: W
LayerCount: 2
Fore
SplineSet
61 658 m 1,0,-1
 310 658 l 1,1,-1
 310 598 l 1,2,-1
 61 598 l 1,3,-1
 61 658 l 1,0,-1
EndSplineSet
EndChar

StartChar: degree
Encoding: 176 176 114
Width: 350
Flags: W
LayerCount: 2
Fore
SplineSet
63 585 m 0,0,1
 63 650 63 650 96 689.5 c 128,-1,2
 129 729 129 729 183 729 c 0,3,4
 236 729 236 729 270 691.5 c 128,-1,5
 304 654 304 654 304 585 c 256,6,7
 304 515 304 515 270.5 477.5 c 128,-1,8
 237 440 237 440 183 440 c 256,9,10
 129 440 129 440 96 477.5 c 128,-1,11
 63 515 63 515 63 585 c 0,0,1
122 585 m 256,12,13
 122 545 122 545 139 520 c 128,-1,14
 156 495 156 495 183 495 c 256,15,16
 211 495 211 495 228.5 520 c 128,-1,17
 246 545 246 545 246 585 c 256,18,19
 246 625 246 625 228.5 650 c 128,-1,20
 211 675 211 675 183 675 c 256,21,22
 155 675 155 675 138.5 650 c 128,-1,23
 122 625 122 625 122 585 c 256,12,13
EndSplineSet
EndChar

StartChar: plusminus
Encoding: 177 177 115
Width: 424
Flags: W
LayerCount: 2
Fore
SplineSet
36 480 m 1,0,-1
 178 480 l 1,1,-1
 178 639 l 1,2,-1
 247 639 l 1,3,-1
 247 480 l 1,4,-1
 389 480 l 1,5,-1
 389 412 l 1,6,-1
 247 412 l 1,7,-1
 247 304 l 1,8,-1
 178 304 l 1,9,-1
 178 412 l 1,10,-1
 36 412 l 1,11,-1
 36 480 l 1,0,-1
36 253 m 1,12,-1
 389 253 l 1,13,-1
 389 184 l 1,14,-1
 36 184 l 1,15,-1
 36 253 l 1,12,-1
EndSplineSet
EndChar

StartChar: acute
Encoding: 180 180 118
Width: 250
Flags: W
LayerCount: 2
Fore
SplineSet
110 737 m 5,0,-1
 189 737 l 5,1,-1
 189 716 l 5,2,-1
 105 585 l 5,3,-1
 61 585 l 5,4,-1
 110 737 l 5,0,-1
EndSplineSet
EndChar

StartChar: mu
Encoding: 181 181 119
AltUni2: 0003bc.ffffffff.0
Width: 460
Flags: W
LayerCount: 2
Fore
SplineSet
128 512 m 1,0,-1
 128 203 l 2,1,2
 128 129 128 129 149 91.5 c 128,-1,3
 170 54 170 54 218 54 c 0,4,5
 261 54 261 54 289.5 79.5 c 128,-1,6
 318 105 318 105 332 148 c 1,7,-1
 332 512 l 1,8,-1
 406 512 l 1,9,-1
 406 167 l 2,10,11
 406 125 406 125 408 82.5 c 128,-1,12
 410 40 410 40 418 0 c 1,13,-1
 366 0 l 1,14,-1
 342 63 l 1,15,-1
 339 63 l 1,16,17
 323 30 323 30 290 9 c 128,-1,18
 257 -12 257 -12 210 -12 c 0,19,20
 172 -12 172 -12 151 1 c 128,-1,21
 130 14 130 14 116 35 c 1,22,-1
 111 35 l 1,23,-1
 129 -69 l 1,24,-1
 129 -205 l 1,25,-1
 54 -205 l 1,26,-1
 54 512 l 1,27,-1
 128 512 l 1,0,-1
EndSplineSet
EndChar

StartChar: paragraph
Encoding: 182 182 120
Width: 412
Flags: W
LayerCount: 2
Fore
SplineSet
285 717 m 1,0,-1
 347 717 l 1,1,-1
 347 -133 l 1,2,-1
 285 -133 l 1,3,-1
 285 717 l 1,0,-1
152 317 m 1,4,5
 124 317 124 317 102 333 c 128,-1,6
 80 349 80 349 63.5 376.5 c 128,-1,7
 47 404 47 404 38.5 440.5 c 128,-1,8
 30 477 30 477 30 518 c 0,9,10
 30 558 30 558 39.5 594.5 c 128,-1,11
 49 631 49 631 67.5 658 c 128,-1,12
 86 685 86 685 112 701 c 128,-1,13
 138 717 138 717 172 717 c 2,14,-1
 214 717 l 1,15,-1
 214 -133 l 1,16,-1
 152 -133 l 1,17,-1
 152 317 l 1,4,5
EndSplineSet
EndChar

StartChar: cedilla
Encoding: 184 184 122
Width: 268
Flags: W
LayerCount: 2
Fore
SplineSet
160 0 m 1,0,-1
 140 -44 l 1,1,2
 207 -59 207 -59 207 -121 c 0,3,4
 207 -161 207 -161 177.5 -187 c 128,-1,5
 148 -213 148 -213 99 -213 c 0,6,7
 79 -213 79 -213 61 -209 c 1,8,-1
 69 -169 l 1,9,10
 93 -171 93 -171 106.5 -168 c 128,-1,11
 120 -165 120 -165 127 -159 c 128,-1,12
 134 -153 134 -153 136 -145 c 128,-1,13
 138 -137 138 -137 138 -130 c 0,14,15
 138 -101 138 -101 68 -92 c 1,16,-1
 109 0 l 1,17,-1
 160 0 l 1,0,-1
EndSplineSet
EndChar

StartChar: ordmasculine
Encoding: 186 186 124
Width: 330
Flags: W
LayerCount: 2
Fore
SplineSet
35 555 m 0,0,1
 35 602 35 602 44.5 635.5 c 128,-1,2
 54 669 54 669 72 690 c 128,-1,3
 90 711 90 711 114 720 c 128,-1,4
 138 729 138 729 166 729 c 256,5,6
 194 729 194 729 218 720.5 c 128,-1,7
 242 712 242 712 260 692 c 128,-1,8
 278 672 278 672 287.5 638 c 128,-1,9
 297 604 297 604 297 555 c 256,10,11
 297 506 297 506 287.5 472 c 128,-1,12
 278 438 278 438 260 418 c 128,-1,13
 242 398 242 398 218 389.5 c 128,-1,14
 194 381 194 381 166 381 c 256,15,16
 138 381 138 381 114 389.5 c 128,-1,17
 90 398 90 398 72 418 c 128,-1,18
 54 438 54 438 44.5 472 c 128,-1,19
 35 506 35 506 35 555 c 0,0,1
101 555 m 0,20,21
 101 488 101 488 119 462.5 c 128,-1,22
 137 437 137 437 166 437 c 0,23,24
 180 437 180 437 192 442 c 128,-1,25
 204 447 204 447 212 460 c 128,-1,26
 220 473 220 473 224.5 496 c 128,-1,27
 229 519 229 519 229 555 c 0,28,29
 229 590 229 590 224.5 613 c 128,-1,30
 220 636 220 636 212 649.5 c 128,-1,31
 204 663 204 663 192 668 c 128,-1,32
 180 673 180 673 166 673 c 0,33,34
 151 673 151 673 139 668 c 128,-1,35
 127 663 127 663 119 649.5 c 128,-1,36
 111 636 111 636 106 613 c 128,-1,37
 101 590 101 590 101 555 c 0,20,21
EndSplineSet
EndChar

StartChar: guillemotright
Encoding: 187 187 125
Width: 395
Flags: W
LayerCount: 2
Fore
SplineSet
213 274 m 1,0,-1
 83 41 l 1,1,-1
 33 74 l 1,2,-1
 116 231 l 1,3,-1
 155 273 l 1,4,-1
 116 310 l 1,5,-1
 29 465 l 1,6,-1
 78 499 l 1,7,-1
 213 274 l 1,0,-1
366 274 m 1,8,-1
 233 39 l 1,9,-1
 181 73 l 1,10,-1
 266 231 l 1,11,-1
 305 273 l 1,12,-1
 266 310 l 1,13,-1
 176 466 l 1,14,-1
 228 501 l 1,15,-1
 366 274 l 1,8,-1
EndSplineSet
Position2: "'case' Case-Sensitive Forms lookup 1 per glyph data 3" dx=0 dy=102 dh=0 dv=0
EndChar

StartChar: Aring
Encoding: 197 197 135
Width: 484
Flags: W
LayerCount: 2
Fore
SplineSet
152 786 m 0,0,1
 152 824 152 824 173.5 848.5 c 128,-1,2
 195 873 195 873 244 872 c 1,3,4
 288 873 288 873 312 851 c 128,-1,5
 336 829 336 829 336 786 c 0,6,7
 336 754 336 754 319.5 732.5 c 128,-1,8
 303 711 303 711 270 703 c 1,9,-1
 479 0 l 1,10,-1
 399 0 l 1,11,-1
 341 201 l 1,12,-1
 138 201 l 1,13,-1
 81 0 l 1,14,-1
 5 0 l 1,15,-1
 214 703 l 1,16,17
 183 711 183 711 167.5 732 c 128,-1,18
 152 753 152 753 152 786 c 0,0,1
159 269 m 1,19,-1
 323 269 l 1,20,-1
 260 490 l 1,21,-1
 241 598 l 1,22,-1
 239 598 l 1,23,-1
 219 488 l 1,24,-1
 159 269 l 1,19,-1
207 786 m 0,25,26
 207 768 207 768 215.5 756 c 128,-1,27
 224 744 224 744 244 744 c 0,28,29
 281 744 281 744 281 786 c 0,30,31
 281 830 281 830 244 831 c 1,32,33
 207 830 207 830 207 786 c 0,25,26
EndSplineSet
Position2: "'cpsp' Capital Spacing lookup 0 subtable" dx=41 dy=0 dh=82 dv=0
EndChar

StartChar: Ccedilla
Encoding: 199 199 137
Width: 468
Flags: W
LayerCount: 2
Fore
SplineSet
440 28 m 1,0,1
 418 10 418 10 386.5 0.5 c 128,-1,2
 355 -9 355 -9 319 -11 c 1,3,-1
 305 -44 l 1,4,5
 372 -59 372 -59 372 -121 c 0,6,7
 372 -161 372 -161 342.5 -187 c 128,-1,8
 313 -213 313 -213 264 -213 c 0,9,10
 244 -213 244 -213 226 -209 c 1,11,-1
 233 -169 l 1,12,13
 257 -171 257 -171 271 -168 c 128,-1,14
 285 -165 285 -165 292 -159 c 128,-1,15
 299 -153 299 -153 301 -145 c 128,-1,16
 303 -137 303 -137 303 -130 c 0,17,18
 303 -101 303 -101 232 -92 c 1,19,-1
 268 -10 l 1,20,21
 219 -6 219 -6 177.5 17 c 128,-1,22
 136 40 136 40 106.5 84.5 c 128,-1,23
 77 129 77 129 60.5 196.5 c 128,-1,24
 44 264 44 264 44 358 c 0,25,26
 44 460 44 460 65 531 c 128,-1,27
 86 602 86 602 121 646 c 128,-1,28
 156 690 156 690 201.5 709.5 c 128,-1,29
 247 729 247 729 295 729 c 0,30,31
 344 729 344 729 376.5 722 c 128,-1,32
 409 715 409 715 432 705 c 1,33,-1
 414 635 l 1,34,35
 394 646 394 646 366 652 c 128,-1,36
 338 658 338 658 302 658 c 256,37,38
 266 658 266 658 234.5 642.5 c 128,-1,39
 203 627 203 627 178.5 591.5 c 128,-1,40
 154 556 154 556 139.5 498.5 c 128,-1,41
 125 441 125 441 125 358 c 0,42,43
 125 208 125 208 176 133.5 c 128,-1,44
 227 59 227 59 312 59 c 0,45,46
 347 59 347 59 374.5 69 c 128,-1,47
 402 79 402 79 422 92 c 1,48,-1
 440 28 l 1,0,1
EndSplineSet
Position2: "'cpsp' Capital Spacing lookup 0 subtable" dx=41 dy=0 dh=82 dv=0
EndChar

StartChar: Eth
Encoding: 208 208 146
Width: 543
Flags: W
LayerCount: 2
Fore
SplineSet
-1 402 m 1,0,-1
 72 402 l 1,1,-1
 72 717 l 1,2,3
 88 720 88 720 108 721.5 c 128,-1,4
 128 723 128 723 148.5 723.5 c 128,-1,5
 169 724 169 724 189 724.5 c 128,-1,6
 209 725 209 725 226 725 c 0,7,8
 301 725 301 725 353.5 699.5 c 128,-1,9
 406 674 406 674 438.5 626.5 c 128,-1,10
 471 579 471 579 485.5 512 c 128,-1,11
 500 445 500 445 500 364 c 0,12,13
 500 290 500 290 486 222.5 c 128,-1,14
 472 155 472 155 439.5 103.5 c 128,-1,15
 407 52 407 52 353 21.5 c 128,-1,16
 299 -9 299 -9 218 -9 c 0,17,18
 205 -9 205 -9 184.5 -8.5 c 128,-1,19
 164 -8 164 -8 142 -6.5 c 128,-1,20
 120 -5 120 -5 101 -4 c 128,-1,21
 82 -3 82 -3 72 -1 c 1,22,-1
 72 342 l 1,23,-1
 -1 342 l 1,24,-1
 -1 402 l 1,0,-1
230 654 m 0,25,26
 220 654 220 654 208.5 654 c 128,-1,27
 197 654 197 654 185.5 653 c 128,-1,28
 174 652 174 652 164.5 651 c 128,-1,29
 155 650 155 650 148 649 c 1,30,-1
 148 402 l 1,31,-1
 268 402 l 1,32,-1
 268 342 l 1,33,-1
 148 342 l 1,34,-1
 148 66 l 1,35,36
 152 65 152 65 163 64 c 128,-1,37
 174 63 174 63 186 62.5 c 128,-1,38
 198 62 198 62 208.5 61.5 c 128,-1,39
 219 61 219 61 224 61 c 0,40,41
 280 61 280 61 318 86 c 128,-1,42
 356 111 356 111 378 152.5 c 128,-1,43
 400 194 400 194 409.5 248.5 c 128,-1,44
 419 303 419 303 419 365 c 0,45,46
 419 419 419 419 410.5 471 c 128,-1,47
 402 523 402 523 381 563.5 c 128,-1,48
 360 604 360 604 323.5 629 c 128,-1,49
 287 654 287 654 230 654 c 0,25,26
EndSplineSet
Position2: "'cpsp' Capital Spacing lookup 0 subtable" dx=41 dy=0 dh=82 dv=0
EndChar

StartChar: multiply
Encoding: 215 215 153
Width: 424
Flags: W
LayerCount: 2
Fore
SplineSet
106 525 m 1,0,-1
 213 400 l 1,1,-1
 321 525 l 1,2,-1
 371 478 l 1,3,-1
 259 347 l 1,4,-1
 371 214 l 1,5,-1
 321 168 l 1,6,-1
 213 293 l 1,7,-1
 105 167 l 1,8,-1
 54 213 l 1,9,-1
 168 347 l 1,10,-1
 55 478 l 1,11,-1
 106 525 l 1,0,-1
EndSplineSet
EndChar

StartChar: Oslash
Encoding: 216 216 154
Width: 562
Flags: W
LayerCount: 2
Fore
SplineSet
44 358 m 0,0,1
 44 540 44 540 102.5 634.5 c 128,-1,2
 161 729 161 729 281 729 c 0,3,4
 327 729 327 729 363 715 c 128,-1,5
 399 701 399 701 426 676 c 1,6,-1
 457 730 l 1,7,-1
 506 702 l 1,8,-1
 464 628 l 1,9,10
 493 579 493 579 505.5 511 c 128,-1,11
 518 443 518 443 518 358 c 0,12,13
 518 176 518 176 459 82 c 128,-1,14
 400 -12 400 -12 281 -12 c 0,15,16
 192 -12 192 -12 137 39 c 1,17,-1
 110 -12 l 1,18,-1
 59 16 l 1,19,-1
 98 87 l 1,20,21
 69 136 69 136 56.5 204 c 128,-1,22
 44 272 44 272 44 358 c 0,0,1
125 358 m 0,23,24
 125 308 125 308 130.5 262.5 c 128,-1,25
 136 217 136 217 148 178 c 1,26,-1
 384 600 l 1,27,28
 366 628 366 628 340 643 c 128,-1,29
 314 658 314 658 281 658 c 0,30,31
 205 658 205 658 165 584.5 c 128,-1,32
 125 511 125 511 125 358 c 0,23,24
437 358 m 0,33,34
 437 407 437 407 431.5 452.5 c 128,-1,35
 426 498 426 498 414 536 c 1,36,-1
 179 114 l 1,37,38
 197 87 197 87 222.5 72.5 c 128,-1,39
 248 58 248 58 281 58 c 0,40,41
 358 58 358 58 397.5 131.5 c 128,-1,42
 437 205 437 205 437 358 c 0,33,34
EndSplineSet
Position2: "'cpsp' Capital Spacing lookup 0 subtable" dx=41 dy=0 dh=82 dv=0
EndChar

StartChar: Thorn
Encoding: 222 222 160
Width: 462
Flags: W
LayerCount: 2
Fore
SplineSet
67 717 m 1,0,-1
 143 717 l 1,1,-1
 143 637 l 1,2,3
 175 640 175 640 209 640 c 0,4,5
 250 640 250 640 290 630.5 c 128,-1,6
 330 621 330 621 362 596 c 128,-1,7
 394 571 394 571 414 528 c 128,-1,8
 434 485 434 485 434 419 c 0,9,10
 434 354 434 354 415 309 c 128,-1,11
 396 264 396 264 365 236.5 c 128,-1,12
 334 209 334 209 293.5 196 c 128,-1,13
 253 183 253 183 210 183 c 0,14,15
 206 183 206 183 196.5 183 c 128,-1,16
 187 183 187 183 177 183.5 c 128,-1,17
 167 184 167 184 157 185 c 128,-1,18
 147 186 147 186 143 187 c 1,19,-1
 143 0 l 1,20,-1
 67 0 l 1,21,-1
 67 717 l 1,0,-1
143 258 m 1,22,23
 147 256 147 256 156 255.5 c 128,-1,24
 165 255 165 255 174 254 c 128,-1,25
 183 253 183 253 192 253 c 128,-1,26
 201 253 201 253 205 253 c 0,27,28
 234 253 234 253 260.5 260 c 128,-1,29
 287 267 287 267 307.5 286 c 128,-1,30
 328 305 328 305 340.5 337.5 c 128,-1,31
 353 370 353 370 353 420 c 0,32,33
 353 462 353 462 341.5 490.5 c 128,-1,34
 330 519 330 519 311 537 c 128,-1,35
 292 555 292 555 266.5 562.5 c 128,-1,36
 241 570 241 570 213 570 c 0,37,38
 193 570 193 570 174 569 c 128,-1,39
 155 568 155 568 143 565 c 1,40,-1
 143 258 l 1,22,23
EndSplineSet
Position2: "'cpsp' Capital Spacing lookup 0 subtable" dx=41 dy=0 dh=82 dv=0
EndChar

StartChar: germandbls
Encoding: 223 223 161
Width: 499
Flags: W
LayerCount: 2
Fore
SplineSet
79 512 m 1,0,-1
 79 538 l 2,1,2
 79 639 79 639 121.5 681 c 128,-1,3
 164 723 164 723 237 723 c 0,4,5
 271 723 271 723 300 714 c 128,-1,6
 329 705 329 705 351 687 c 128,-1,7
 373 669 373 669 385 642.5 c 128,-1,8
 397 616 397 616 397 583 c 256,9,10
 397 549 397 549 381 525 c 128,-1,11
 365 501 365 501 346 481.5 c 128,-1,12
 327 462 327 462 310.5 442.5 c 128,-1,13
 294 423 294 423 294 398 c 0,14,15
 294 374 294 374 306.5 358 c 128,-1,16
 319 342 319 342 338 327.5 c 128,-1,17
 357 313 357 313 379.5 298.5 c 128,-1,18
 402 284 402 284 421 263.5 c 128,-1,19
 440 243 440 243 453 213.5 c 128,-1,20
 466 184 466 184 466 141 c 0,21,22
 466 112 466 112 455.5 84.5 c 128,-1,23
 445 57 445 57 426 35.5 c 128,-1,24
 407 14 407 14 378 1 c 128,-1,25
 349 -12 349 -12 311 -12 c 256,26,27
 273 -12 273 -12 249 -6 c 128,-1,28
 225 0 225 0 203 14 c 1,29,-1
 223 77 l 1,30,31
 245 65 245 65 260.5 59 c 128,-1,32
 276 53 276 53 305 53 c 0,33,34
 340 53 340 53 366 76.5 c 128,-1,35
 392 100 392 100 392 139 c 0,36,37
 392 171 392 171 379.5 192 c 128,-1,38
 367 213 367 213 347.5 229 c 128,-1,39
 328 245 328 245 306 258.5 c 128,-1,40
 284 272 284 272 264.5 290 c 128,-1,41
 245 308 245 308 232 332.5 c 128,-1,42
 219 357 219 357 219 395 c 0,43,44
 219 429 219 429 235.5 452.5 c 128,-1,45
 252 476 252 476 271.5 496 c 128,-1,46
 291 516 291 516 307.5 535.5 c 128,-1,47
 324 555 324 555 324 580 c 0,48,49
 324 597 324 597 316 611.5 c 128,-1,50
 308 626 308 626 296 635.5 c 128,-1,51
 284 645 284 645 269 650.5 c 128,-1,52
 254 656 254 656 239 656 c 0,53,54
 216 656 216 656 199.5 649.5 c 128,-1,55
 183 643 183 643 173 626.5 c 128,-1,56
 163 610 163 610 158 582 c 128,-1,57
 153 554 153 554 153 511 c 2,58,-1
 153 0 l 1,59,-1
 79 0 l 1,60,-1
 79 445 l 1,61,-1
 16 445 l 1,62,-1
 16 512 l 1,63,-1
 79 512 l 1,0,-1
EndSplineSet
EndChar

StartChar: ccedilla
Encoding: 231 231 169
Width: 364
Flags: W
LayerCount: 2
Fore
SplineSet
343 26 m 1,0,1
 323 11 323 11 298 2 c 128,-1,2
 273 -7 273 -7 247 -10 c 1,3,-1
 232 -44 l 1,4,5
 299 -59 299 -59 299 -121 c 0,6,7
 299 -161 299 -161 270 -187 c 128,-1,8
 241 -213 241 -213 191 -213 c 0,9,10
 171 -213 171 -213 154 -209 c 1,11,-1
 161 -169 l 1,12,13
 185 -171 185 -171 198.5 -168 c 128,-1,14
 212 -165 212 -165 219 -159 c 128,-1,15
 226 -153 226 -153 228 -145 c 128,-1,16
 230 -137 230 -137 230 -130 c 0,17,18
 230 -101 230 -101 160 -92 c 1,19,-1
 196 -11 l 1,20,21
 153 -7 153 -7 122.5 14 c 128,-1,22
 92 35 92 35 73.5 69 c 128,-1,23
 55 103 55 103 46.5 151 c 128,-1,24
 38 199 38 199 38 256 c 0,25,26
 38 387 38 387 84.5 455.5 c 128,-1,27
 131 524 131 524 218 524 c 0,28,29
 258 524 258 524 286.5 517 c 128,-1,30
 315 510 315 510 336 499 c 1,31,-1
 315 435 l 1,32,33
 276 458 276 458 226 458 c 0,34,35
 171 458 171 458 143 409 c 128,-1,36
 115 360 115 360 115 256 c 0,37,38
 115 214 115 214 121 177.5 c 128,-1,39
 127 141 127 141 141.5 114 c 128,-1,40
 156 87 156 87 178.5 71.5 c 128,-1,41
 201 56 201 56 234 56 c 0,42,43
 261 56 261 56 284 65 c 128,-1,44
 307 74 307 74 322 86 c 1,45,-1
 343 26 l 1,0,1
EndSplineSet
EndChar

StartChar: eth
Encoding: 240 240 178
Width: 460
Flags: W
LayerCount: 2
Fore
SplineSet
173 603 m 1,0,-1
 231 642 l 1,1,2
 198 669 198 669 163 684 c 1,3,-1
 196 729 l 1,4,5
 212 721 212 721 234.5 708.5 c 128,-1,6
 257 696 257 696 282 675 c 1,7,-1
 343 716 l 1,8,-1
 368 676 l 1,9,-1
 316 642 l 1,10,11
 336 618 336 618 355 586.5 c 128,-1,12
 374 555 374 555 388 513.5 c 128,-1,13
 402 472 402 472 410.5 420 c 128,-1,14
 419 368 419 368 419 303 c 0,15,16
 419 215 419 215 404 155 c 128,-1,17
 389 95 389 95 363.5 57.5 c 128,-1,18
 338 20 338 20 303.5 4 c 128,-1,19
 269 -12 269 -12 229 -12 c 0,20,21
 180 -12 180 -12 144.5 7.5 c 128,-1,22
 109 27 109 27 86 62 c 128,-1,23
 63 97 63 97 52.5 147 c 128,-1,24
 42 197 42 197 42 257 c 0,25,26
 42 315 42 315 54.5 364 c 128,-1,27
 67 413 67 413 91 448 c 128,-1,28
 115 483 115 483 149 502.5 c 128,-1,29
 183 522 183 522 227 522 c 0,30,31
 263 522 263 522 290.5 510 c 128,-1,32
 318 498 318 498 333 479 c 1,33,34
 322 518 322 518 305 550.5 c 128,-1,35
 288 583 288 583 266 608 c 1,36,-1
 199 564 l 1,37,-1
 173 603 l 1,0,-1
118 257 m 0,38,39
 118 149 118 149 150.5 102 c 128,-1,40
 183 55 183 55 234 55 c 0,41,42
 258 55 258 55 278.5 68.5 c 128,-1,43
 299 82 299 82 314 110.5 c 128,-1,44
 329 139 329 139 337.5 185 c 128,-1,45
 346 231 346 231 346 297 c 0,46,47
 346 307 346 307 345.5 322 c 128,-1,48
 345 337 345 337 344 352 c 128,-1,49
 343 367 343 367 341.5 380 c 128,-1,50
 340 393 340 393 339 401 c 1,51,52
 325 428 325 428 295 441.5 c 128,-1,53
 265 455 265 455 236 455 c 0,54,55
 205 455 205 455 183 440.5 c 128,-1,56
 161 426 161 426 146 400 c 128,-1,57
 131 374 131 374 124.5 337.5 c 128,-1,58
 118 301 118 301 118 257 c 0,38,39
EndSplineSet
EndChar

StartChar: divide
Encoding: 247 247 185
Width: 424
Flags: W
LayerCount: 2
Fore
SplineSet
36 382 m 1,0,-1
 388 382 l 1,1,-1
 388 313 l 1,2,-1
 36 313 l 1,3,-1
 36 382 l 1,0,-1
161 520 m 0,4,5
 161 549 161 549 174.5 563.5 c 128,-1,6
 188 578 188 578 212 578 c 256,7,8
 236 578 236 578 249.5 563.5 c 128,-1,9
 263 549 263 549 263 520 c 0,10,11
 263 490 263 490 249.5 476 c 128,-1,12
 236 462 236 462 212 462 c 256,13,14
 188 462 188 462 174.5 476 c 128,-1,15
 161 490 161 490 161 520 c 0,4,5
161 175 m 0,16,17
 161 204 161 204 174.5 218 c 128,-1,18
 188 232 188 232 212 232 c 256,19,20
 236 232 236 232 249.5 218 c 128,-1,21
 263 204 263 204 263 175 c 0,22,23
 263 145 263 145 249.5 131 c 128,-1,24
 236 117 236 117 212 117 c 256,25,26
 188 117 188 117 174.5 131 c 128,-1,27
 161 145 161 145 161 175 c 0,16,17
EndSplineSet
EndChar

StartChar: oslash
Encoding: 248 248 186
Width: 446
Flags: W
LayerCount: 2
Fore
SplineSet
41 256 m 0,0,1
 41 390 41 390 88.5 457 c 128,-1,2
 136 524 136 524 224 524 c 0,3,4
 283 524 283 524 325 495 c 1,5,-1
 344 527 l 1,6,-1
 394 497 l 1,7,-1
 367 447 l 1,8,9
 387 413 387 413 397.5 365 c 128,-1,10
 408 317 408 317 408 256 c 0,11,12
 408 120 408 120 360 54 c 128,-1,13
 312 -12 312 -12 224 -12 c 0,14,15
 161 -12 161 -12 119 20 c 1,16,-1
 97 -14 l 1,17,-1
 47 18 l 1,18,-1
 78 71 l 1,19,20
 41 138 41 138 41 256 c 0,0,1
331 256 m 0,21,22
 331 289 331 289 328.5 318 c 128,-1,23
 326 347 326 347 318 371 c 1,24,-1
 155 89 l 1,25,26
 182 54 182 54 224 54 c 0,27,28
 277 54 277 54 304 102.5 c 128,-1,29
 331 151 331 151 331 256 c 0,21,22
118 256 m 0,30,31
 118 225 118 225 120 197.5 c 128,-1,32
 122 170 122 170 128 146 c 1,33,-1
 289 428 l 1,34,35
 277 442 277 442 261 450 c 128,-1,36
 245 458 245 458 224 458 c 0,37,38
 172 458 172 458 145 409.5 c 128,-1,39
 118 361 118 361 118 256 c 0,30,31
EndSplineSet
EndChar

StartChar: thorn
Encoding: 254 254 192
Width: 445
Flags: W
LayerCount: 2
Fore
SplineSet
60 717 m 1,0,-1
 134 717 l 1,1,-1
 134 471 l 1,2,-1
 137 471 l 1,3,4
 153 496 153 496 180.5 510 c 128,-1,5
 208 524 208 524 247 524 c 0,6,7
 328 524 328 524 368 463.5 c 128,-1,8
 408 403 408 403 408 266 c 0,9,10
 408 201 408 201 394.5 149.5 c 128,-1,11
 381 98 381 98 356.5 62.5 c 128,-1,12
 332 27 332 27 297 7.5 c 128,-1,13
 262 -12 262 -12 219 -12 c 0,14,15
 189 -12 189 -12 170.5 -8 c 128,-1,16
 152 -4 152 -4 134 5 c 1,17,-1
 134 -205 l 1,18,-1
 60 -205 l 1,19,-1
 60 717 l 1,0,-1
229 458 m 0,20,21
 193 458 193 458 168.5 435 c 128,-1,22
 144 412 144 412 134 371 c 1,23,-1
 134 80 l 1,24,25
 148 68 148 68 166 61 c 128,-1,26
 184 54 184 54 214 54 c 0,27,28
 268 54 268 54 299.5 109.5 c 128,-1,29
 331 165 331 165 331 267 c 0,30,31
 331 310 331 310 325 345 c 128,-1,32
 319 380 319 380 307.5 405 c 128,-1,33
 296 430 296 430 276.5 444 c 128,-1,34
 257 458 257 458 229 458 c 0,20,21
EndSplineSet
EndChar

StartChar: Aogonek
Encoding: 260 260 198
Width: 484
Flags: W
LayerCount: 2
Fore
SplineSet
341 201 m 1,0,-1
 138 201 l 1,1,-1
 81 0 l 1,2,-1
 5 0 l 1,3,-1
 221 728 l 1,4,-1
 263 728 l 1,5,-1
 479 0 l 1,6,-1
 458 0 l 1,7,8
 435 -16 435 -16 422.5 -38.5 c 128,-1,9
 410 -61 410 -61 410 -90 c 0,10,11
 411 -120 411 -120 430 -136 c 128,-1,12
 449 -152 449 -152 486 -136 c 1,13,-1
 497 -177 l 1,14,15
 486 -188 486 -188 464.5 -194.5 c 128,-1,16
 443 -201 443 -201 424 -201 c 0,17,18
 383 -201 383 -201 359.5 -176.5 c 128,-1,19
 336 -152 336 -152 335 -113 c 1,20,21
 336 -74 336 -74 354.5 -45.5 c 128,-1,22
 373 -17 373 -17 404 0 c 1,23,-1
 399 0 l 1,24,-1
 341 201 l 1,0,-1
159 269 m 1,25,-1
 323 269 l 1,26,-1
 260 490 l 1,27,-1
 241 598 l 1,28,-1
 239 598 l 1,29,-1
 219 488 l 1,30,-1
 159 269 l 1,25,-1
EndSplineSet
Position2: "'cpsp' Capital Spacing lookup 0 subtable" dx=41 dy=0 dh=82 dv=0
EndChar

StartChar: aogonek
Encoding: 261 261 199
Width: 409
Flags: W
LayerCount: 2
Fore
SplineSet
55 481 m 1,0,1
 85 499 85 499 127.5 509.5 c 128,-1,2
 170 520 170 520 217 520 c 0,3,4
 260 520 260 520 286 507.5 c 128,-1,5
 312 495 312 495 327 473 c 128,-1,6
 342 451 342 451 346.5 422.5 c 128,-1,7
 351 394 351 394 351 364 c 0,8,9
 351 303 351 303 348.5 244 c 128,-1,10
 346 185 346 185 346 133 c 0,11,12
 346 94 346 94 348.5 61 c 128,-1,13
 351 28 351 28 358 -2 c 1,14,-1
 339 -2 l 1,15,16
 317 -18 317 -18 305 -40 c 128,-1,17
 293 -62 293 -62 293 -90 c 0,18,19
 294 -120 294 -120 313 -136 c 128,-1,20
 332 -152 332 -152 370 -136 c 1,21,-1
 380 -177 l 1,22,23
 369 -188 369 -188 348 -194.5 c 128,-1,24
 327 -201 327 -201 307 -201 c 0,25,26
 266 -201 266 -201 242 -176.5 c 128,-1,27
 218 -152 218 -152 218 -113 c 0,28,29
 218 -70 218 -70 240.5 -40.5 c 128,-1,30
 263 -11 263 -11 299 6 c 1,31,-1
 285 58 l 1,32,-1
 281 58 l 1,33,34
 266 31 266 31 236 12 c 128,-1,35
 206 -7 206 -7 156 -7 c 0,36,37
 101 -7 101 -7 65.5 31.5 c 128,-1,38
 30 70 30 70 30 137 c 0,39,40
 30 181 30 181 44.5 211 c 128,-1,41
 59 241 59 241 86.5 259.5 c 128,-1,42
 114 278 114 278 151 285.5 c 128,-1,43
 188 293 188 293 234 293 c 0,44,45
 244 293 244 293 254.5 293 c 128,-1,46
 265 293 265 293 276 292 c 1,47,48
 279 324 279 324 280 349 c 0,49,50
 280 407 280 407 262.5 430.5 c 128,-1,51
 245 454 245 454 199 454 c 0,52,53
 170 454 170 454 136 445 c 128,-1,54
 102 436 102 436 80 423 c 1,55,-1
 55 481 l 1,0,1
278 233 m 1,56,57
 268 234 268 234 257 235 c 128,-1,58
 246 236 246 236 236 236 c 0,59,60
 211 236 211 236 187.5 231.5 c 128,-1,61
 164 227 164 227 146 217 c 128,-1,62
 128 207 128 207 117 189.5 c 128,-1,63
 106 172 106 172 106 145 c 0,64,65
 106 104 106 104 125.5 81.5 c 128,-1,66
 145 59 145 59 177 59 c 0,67,68
 220 59 220 59 244 79.5 c 128,-1,69
 268 100 268 100 278 125 c 1,70,-1
 278 233 l 1,56,57
EndSplineSet
EndChar

StartChar: dcroat
Encoding: 273 273 209
Width: 444
Flags: W
LayerCount: 2
Fore
SplineSet
383 648 m 1,0,-1
 449 648 l 1,1,-1
 449 588 l 1,2,-1
 383 588 l 1,3,-1
 383 176 l 2,4,5
 383 124 383 124 384 81.5 c 128,-1,6
 385 39 385 39 391 -2 c 1,7,-1
 341 -2 l 1,8,-1
 325 59 l 1,9,-1
 321 59 l 1,10,11
 307 28 307 28 276 8 c 128,-1,12
 245 -12 245 -12 202 -12 c 0,13,14
 119 -12 119 -12 78.5 52.5 c 128,-1,15
 38 117 38 117 38 255 c 0,16,17
 38 386 38 386 87.5 453.5 c 128,-1,18
 137 521 137 521 224 521 c 0,19,20
 254 521 254 521 271.5 517.5 c 128,-1,21
 289 514 289 514 309 506 c 1,22,-1
 309 588 l 1,23,-1
 181 588 l 1,24,-1
 181 648 l 1,25,-1
 309 648 l 1,26,-1
 309 717 l 1,27,-1
 383 717 l 1,28,-1
 383 648 l 1,0,-1
309 431 m 1,29,30
 295 443 295 443 277 449 c 128,-1,31
 259 455 259 455 229 455 c 0,32,33
 175 455 175 455 145 405.5 c 128,-1,34
 115 356 115 356 115 254 c 0,35,36
 115 209 115 209 120.5 172.5 c 128,-1,37
 126 136 126 136 138 109.5 c 128,-1,38
 150 83 150 83 168.5 68.5 c 128,-1,39
 187 54 187 54 215 54 c 0,40,41
 289 54 289 54 309 141 c 1,42,-1
 309 431 l 1,29,30
EndSplineSet
EndChar

StartChar: Eogonek
Encoding: 280 280 214
Width: 439
Flags: W
LayerCount: 2
Fore
SplineSet
66 717 m 1,0,-1
 384 717 l 1,1,-1
 384 646 l 1,2,-1
 142 646 l 1,3,-1
 142 403 l 1,4,-1
 365 403 l 1,5,-1
 365 333 l 1,6,-1
 142 333 l 1,7,-1
 142 71 l 1,8,-1
 389 71 l 1,9,-1
 389 0 l 1,10,-1
 357 0 l 1,11,12
 334 -16 334 -16 321.5 -38.5 c 128,-1,13
 309 -61 309 -61 309 -90 c 0,14,15
 310 -120 310 -120 329 -136 c 128,-1,16
 348 -152 348 -152 386 -136 c 1,17,-1
 396 -177 l 1,18,19
 385 -188 385 -188 364 -194.5 c 128,-1,20
 343 -201 343 -201 324 -201 c 0,21,22
 283 -201 283 -201 258.5 -176.5 c 128,-1,23
 234 -152 234 -152 234 -113 c 256,24,25
 234 -74 234 -74 253 -45.5 c 128,-1,26
 272 -17 272 -17 304 0 c 1,27,-1
 66 0 l 1,28,-1
 66 717 l 1,0,-1
EndSplineSet
Position2: "'cpsp' Capital Spacing lookup 0 subtable" dx=41 dy=0 dh=82 dv=0
EndChar

StartChar: eogonek
Encoding: 281 281 215
Width: 418
Flags: W
LayerCount: 2
Fore
SplineSet
367 35 m 1,0,1
 348 17 348 17 318 5 c 1,2,3
 295 -10 295 -10 282 -31 c 0,4,5
 264 -57 264 -57 264 -90 c 0,6,7
 264 -119 264 -119 283 -135 c 128,-1,8
 302 -151 302 -151 341 -133 c 1,9,-1
 351 -177 l 1,10,11
 339 -189 339 -189 317.5 -195 c 128,-1,12
 296 -201 296 -201 275 -201 c 0,13,14
 236 -201 236 -201 213.5 -176.5 c 128,-1,15
 191 -152 191 -152 191 -110 c 0,16,17
 191 -66 191 -66 217 -35 c 0,18,19
 227 -23 227 -23 242 -11 c 1,20,21
 233 -12 233 -12 224 -12 c 0,22,23
 176 -12 176 -12 140.5 7 c 128,-1,24
 105 26 105 26 82 61 c 128,-1,25
 59 96 59 96 48.5 145.5 c 128,-1,26
 38 195 38 195 38 256 c 0,27,28
 38 387 38 387 86 455.5 c 128,-1,29
 134 524 134 524 222 524 c 0,30,31
 255 524 255 524 286.5 514.5 c 128,-1,32
 318 505 318 505 341.5 475 c 128,-1,33
 365 445 365 445 375 391 c 128,-1,34
 385 337 385 337 375 248 c 1,35,-1
 114 248 l 1,36,37
 114 204 114 204 121 168 c 128,-1,38
 128 132 128 132 143.5 106.5 c 128,-1,39
 159 81 159 81 183.5 67 c 128,-1,40
 208 53 208 53 244 53 c 0,41,42
 272 53 272 53 299 64 c 128,-1,43
 326 75 326 75 340 89 c 1,44,-1
 367 35 l 1,0,1
223 459 m 0,45,46
 176 459 176 459 148.5 422.5 c 128,-1,47
 121 386 121 386 116 309 c 1,48,-1
 309 309 l 1,49,50
 311 386 311 386 287.5 422.5 c 128,-1,51
 264 459 264 459 223 459 c 0,45,46
EndSplineSet
EndChar

StartChar: gcommaaccent
Encoding: 291 291 223
Width: 442
Flags: W
LayerCount: 2
Fore
SplineSet
383 -24 m 2,0,1
 383 -123 383 -123 339 -170 c 128,-1,2
 295 -217 295 -217 211 -217 c 0,3,4
 160 -217 160 -217 127 -208.5 c 128,-1,5
 94 -200 94 -200 74 -188 c 1,6,-1
 95 -125 l 1,7,8
 115 -134 115 -134 140 -142.5 c 128,-1,9
 165 -151 165 -151 201 -151 c 0,10,11
 263 -151 263 -151 286 -116 c 128,-1,12
 309 -81 309 -81 309 1 c 2,13,-1
 309 39 l 1,14,-1
 306 39 l 1,15,16
 290 15 290 15 264.5 2 c 128,-1,17
 239 -11 239 -11 199 -11 c 0,18,19
 116 -11 116 -11 77 53 c 128,-1,20
 38 117 38 117 38 254 c 0,21,22
 38 386 38 386 88.5 453.5 c 128,-1,23
 139 521 139 521 239 521 c 0,24,25
 287 521 287 521 321.5 512 c 128,-1,26
 356 503 356 503 383 490 c 1,27,-1
 383 -24 l 2,0,1
309 438 m 1,28,29
 278 454 278 454 230 455 c 0,30,31
 178 455 178 455 146.5 407 c 128,-1,32
 115 359 115 359 115 255 c 0,33,34
 115 212 115 212 120 175.5 c 128,-1,35
 125 139 125 139 137.5 112 c 128,-1,36
 150 85 150 85 168.5 70 c 128,-1,37
 187 55 187 55 215 55 c 0,38,39
 254 55 254 55 276.5 75.5 c 128,-1,40
 299 96 299 96 309 137 c 1,41,-1
 309 438 l 1,28,29
287 624 m 0,42,43
 287 602 287 602 274 588.5 c 128,-1,44
 261 575 261 575 243 575 c 0,45,46
 220 575 220 575 203.5 592.5 c 128,-1,47
 187 610 187 610 187 652 c 0,48,49
 187 677 187 677 195 697 c 128,-1,50
 203 717 203 717 213.5 731.5 c 128,-1,51
 224 746 224 746 236 756 c 128,-1,52
 248 766 248 766 257 770 c 1,53,-1
 284 739 l 1,54,55
 268 730 268 730 256 710 c 128,-1,56
 244 690 244 690 244 666 c 1,57,58
 261 671 261 671 274 659 c 128,-1,59
 287 647 287 647 287 624 c 0,42,43
EndSplineSet
EndChar

StartChar: Hbar
Encoding: 294 294 226
Width: 562
Flags: W
LayerCount: 2
Fore
SplineSet
8 599 m 1,0,-1
 73 599 l 1,1,-1
 73 717 l 1,2,-1
 150 717 l 1,3,-1
 150 599 l 1,4,-1
 414 599 l 1,5,-1
 414 717 l 1,6,-1
 490 717 l 1,7,-1
 490 599 l 1,8,-1
 555 599 l 1,9,-1
 555 539 l 1,10,-1
 490 539 l 1,11,-1
 490 0 l 1,12,-1
 414 0 l 1,13,-1
 414 331 l 1,14,-1
 150 331 l 1,15,-1
 150 0 l 1,16,-1
 73 0 l 1,17,-1
 73 539 l 1,18,-1
 8 539 l 1,19,-1
 8 599 l 1,0,-1
414 401 m 1,20,-1
 414 539 l 1,21,-1
 150 539 l 1,22,-1
 150 401 l 1,23,-1
 414 401 l 1,20,-1
EndSplineSet
Position2: "'cpsp' Capital Spacing lookup 0 subtable" dx=41 dy=0 dh=82 dv=0
EndChar

StartChar: hbar
Encoding: 295 295 227
Width: 451
Flags: W
LayerCount: 2
Fore
SplineSet
-4 648 m 1,0,-1
 61 648 l 1,1,-1
 61 717 l 1,2,-1
 135 717 l 1,3,-1
 135 648 l 1,4,-1
 267 648 l 1,5,-1
 267 588 l 1,6,-1
 135 588 l 1,7,-1
 135 464 l 1,8,-1
 138 464 l 1,9,10
 158 491 158 491 188.5 507.5 c 128,-1,11
 219 524 219 524 264 524 c 0,12,13
 298 524 298 524 323 515 c 128,-1,14
 348 506 348 506 364.5 483.5 c 128,-1,15
 381 461 381 461 389 423.5 c 128,-1,16
 397 386 397 386 397 331 c 2,17,-1
 397 0 l 1,18,-1
 324 0 l 1,19,-1
 324 311 l 2,20,21
 324 383 324 383 307 420.5 c 128,-1,22
 290 458 290 458 240 458 c 0,23,24
 204 458 204 458 174.5 432.5 c 128,-1,25
 145 407 145 407 135 368 c 1,26,-1
 135 0 l 1,27,-1
 61 0 l 1,28,-1
 61 588 l 1,29,-1
 -4 588 l 1,30,-1
 -4 648 l 1,0,-1
EndSplineSet
EndChar

StartChar: Iogonek
Encoding: 302 302 230
Width: 239
Flags: W
LayerCount: 2
Fore
SplineSet
81 717 m 1,0,-1
 158 717 l 1,1,-1
 158 0 l 1,2,-1
 144 0 l 1,3,4
 124 -15 124 -15 111 -37 c 128,-1,5
 98 -59 98 -59 99 -91 c 0,6,7
 99 -120 99 -120 117.5 -136.5 c 128,-1,8
 136 -153 136 -153 175 -137 c 1,9,-1
 185 -177 l 1,10,11
 173 -189 173 -189 152 -195 c 128,-1,12
 131 -201 131 -201 112 -201 c 0,13,14
 73 -201 73 -201 48.5 -177.5 c 128,-1,15
 24 -154 24 -154 24 -112 c 0,16,17
 24 -76 24 -76 42.5 -46.5 c 128,-1,18
 61 -17 61 -17 93 0 c 1,19,-1
 81 0 l 1,20,-1
 81 717 l 1,0,-1
EndSplineSet
Position2: "'cpsp' Capital Spacing lookup 0 subtable" dx=41 dy=0 dh=82 dv=0
EndChar

StartChar: iogonek
Encoding: 303 303 231
Width: 222
Flags: W
LayerCount: 2
Fore
SplineSet
74 512 m 1,0,-1
 147 512 l 1,1,-1
 147 0 l 1,2,-1
 133 0 l 1,3,4
 113 -16 113 -16 99.5 -39 c 128,-1,5
 86 -62 86 -62 87 -91 c 0,6,7
 87 -105 87 -105 92.5 -117 c 128,-1,8
 98 -129 98 -129 108 -136 c 128,-1,9
 118 -143 118 -143 132 -143 c 128,-1,10
 146 -143 146 -143 165 -133 c 1,11,-1
 174 -177 l 1,12,13
 162 -189 162 -189 140.5 -195 c 128,-1,14
 119 -201 119 -201 98 -201 c 0,15,16
 59 -201 59 -201 36.5 -177 c 128,-1,17
 14 -153 14 -153 14 -111 c 0,18,19
 14 -75 14 -75 32 -46 c 128,-1,20
 50 -17 50 -17 81 0 c 1,21,-1
 74 0 l 1,22,-1
 74 512 l 1,0,-1
59 668 m 0,23,24
 59 693 59 693 73 708 c 128,-1,25
 87 723 87 723 110 723 c 256,26,27
 133 723 133 723 147.5 708 c 128,-1,28
 162 693 162 693 162 668 c 256,29,30
 162 643 162 643 147 629 c 128,-1,31
 132 615 132 615 110 615 c 256,32,33
 87 615 87 615 73 629.5 c 128,-1,34
 59 644 59 644 59 668 c 0,23,24
EndSplineSet
EndChar

StartChar: dotlessi
Encoding: 305 305 233
Width: 222
Flags: W
LayerCount: 2
Fore
SplineSet
74 512 m 1,0,-1
 147 512 l 1,1,-1
 147 0 l 1,2,-1
 74 0 l 1,3,-1
 74 512 l 1,0,-1
EndSplineSet
EndChar

StartChar: Lslash
Encoding: 321 321 244
Width: 428
Flags: W
LayerCount: 2
Fore
SplineSet
15 297 m 1,0,-1
 69 346 l 1,1,-1
 69 717 l 1,2,-1
 145 717 l 1,3,-1
 145 417 l 1,4,-1
 238 503 l 1,5,-1
 238 418 l 1,6,-1
 145 334 l 1,7,-1
 145 71 l 1,8,-1
 414 71 l 1,9,-1
 414 0 l 1,10,-1
 69 0 l 1,11,-1
 69 264 l 1,12,-1
 15 216 l 1,13,-1
 15 297 l 1,0,-1
EndSplineSet
Position2: "'cpsp' Capital Spacing lookup 0 subtable" dx=41 dy=0 dh=82 dv=0
EndChar

StartChar: lslash
Encoding: 322 322 245
Width: 239
Flags: W
LayerCount: 2
Fore
SplineSet
8 295 m 1,0,-1
 70 351 l 1,1,-1
 70 717 l 1,2,-1
 143 717 l 1,3,-1
 143 420 l 1,4,-1
 230 501 l 1,5,-1
 230 416 l 1,6,-1
 143 337 l 1,7,-1
 143 122 l 2,8,9
 143 86 143 86 153 70.5 c 128,-1,10
 163 55 163 55 180 55 c 0,11,12
 202 55 202 55 230 67 c 1,13,-1
 238 7 l 1,14,15
 225 -1 225 -1 200.5 -6 c 128,-1,16
 176 -11 176 -11 157 -11 c 0,17,18
 118 -11 118 -11 94 13 c 128,-1,19
 70 37 70 37 70 97 c 2,20,-1
 70 269 l 1,21,-1
 8 214 l 1,22,-1
 8 295 l 1,0,-1
EndSplineSet
EndChar

StartChar: OE
Encoding: 338 338 256
Width: 765
Flags: W
LayerCount: 2
Fore
SplineSet
392 638 m 1,0,1
 369 649 369 649 340.5 653.5 c 128,-1,2
 312 658 312 658 282 658 c 0,3,4
 207 658 207 658 166 584.5 c 128,-1,5
 125 511 125 511 125 358 c 0,6,7
 125 298 125 298 133.5 243.5 c 128,-1,8
 142 189 142 189 161.5 148.5 c 128,-1,9
 181 108 181 108 212 83 c 128,-1,10
 243 58 243 58 287 58 c 0,11,12
 311 58 311 58 335 60 c 128,-1,13
 359 62 359 62 392 75 c 1,14,-1
 392 638 l 1,0,1
392 0 m 1,15,16
 372 -5 372 -5 343 -8.5 c 128,-1,17
 314 -12 314 -12 280 -12 c 0,18,19
 219 -12 219 -12 174 14 c 128,-1,20
 129 40 129 40 100.5 88.5 c 128,-1,21
 72 137 72 137 58 205 c 128,-1,22
 44 273 44 273 44 358 c 0,23,24
 44 539 44 539 104 634 c 128,-1,25
 164 729 164 729 280 729 c 0,26,27
 317 729 317 729 342 725.5 c 128,-1,28
 367 722 367 722 392 717 c 1,29,-1
 711 717 l 1,30,-1
 711 646 l 1,31,-1
 469 646 l 1,32,-1
 469 403 l 1,33,-1
 690 403 l 1,34,-1
 690 333 l 1,35,-1
 469 333 l 1,36,-1
 469 71 l 1,37,-1
 716 71 l 1,38,-1
 716 0 l 1,39,-1
 392 0 l 1,15,16
EndSplineSet
Position2: "'cpsp' Capital Spacing lookup 0 subtable" dx=41 dy=0 dh=82 dv=0
EndChar

StartChar: oe
Encoding: 339 339 257
Width: 708
Flags: W
LayerCount: 2
Fore
SplineSet
115 256 m 0,0,1
 115 216 115 216 120.5 179.5 c 128,-1,2
 126 143 126 143 139 115.5 c 128,-1,3
 152 88 152 88 172.5 71 c 128,-1,4
 193 54 193 54 221 54 c 0,5,6
 326 54 326 54 327 256 c 0,7,8
 327 296 327 296 321 332.5 c 128,-1,9
 315 369 315 369 303 397 c 128,-1,10
 291 425 291 425 270.5 441.5 c 128,-1,11
 250 458 250 458 221 458 c 0,12,13
 115 458 115 458 115 256 c 0,0,1
364 77 m 1,14,15
 320 -12 320 -12 220 -12 c 0,16,17
 127 -12 127 -12 82.5 57.5 c 128,-1,18
 38 127 38 127 38 256 c 0,19,20
 38 387 38 387 85.5 455.5 c 128,-1,21
 133 524 133 524 221 524 c 0,22,23
 273 524 273 524 308.5 501 c 128,-1,24
 344 478 344 478 365 436 c 1,25,26
 385 475 385 475 421.5 499.5 c 128,-1,27
 458 524 458 524 508 524 c 0,28,29
 537 524 537 524 565 516.5 c 128,-1,30
 593 509 593 509 615.5 487.5 c 128,-1,31
 638 466 638 466 652 427 c 128,-1,32
 666 388 666 388 666 326 c 0,33,34
 666 309 666 309 664.5 289 c 128,-1,35
 663 269 663 269 660 248 c 1,36,-1
 398 248 l 1,37,38
 399 159 399 159 429.5 106 c 128,-1,39
 460 53 460 53 529 53 c 0,40,41
 557 53 557 53 585.5 64.5 c 128,-1,42
 614 76 614 76 629 90 c 1,43,-1
 655 36 l 1,44,45
 630 12 630 12 591 0 c 128,-1,46
 552 -12 552 -12 509 -12 c 0,47,48
 458 -12 458 -12 421 12.5 c 128,-1,49
 384 37 384 37 364 77 c 1,14,15
508 459 m 0,50,51
 462 459 462 459 434 422 c 128,-1,52
 406 385 406 385 400 308 c 1,53,-1
 595 308 l 1,54,55
 597 385 597 385 573.5 422 c 128,-1,56
 550 459 550 459 508 459 c 0,50,51
EndSplineSet
EndChar

StartChar: Scedilla
Encoding: 350 350 268
Width: 438
Flags: W
LayerCount: 2
Fore
SplineSet
60 95 m 1,0,1
 79 82 79 82 115 70 c 128,-1,2
 151 58 151 58 196 58 c 0,3,4
 253 58 253 58 289 86.5 c 128,-1,5
 325 115 325 115 325 175 c 0,6,7
 325 215 325 215 304.5 244.5 c 128,-1,8
 284 274 284 274 253 299.5 c 128,-1,9
 222 325 222 325 187 349 c 128,-1,10
 152 373 152 373 121 402 c 128,-1,11
 90 431 90 431 69.5 469 c 128,-1,12
 49 507 49 507 49 560 c 0,13,14
 49 646 49 646 101 687.5 c 128,-1,15
 153 729 153 729 236 729 c 0,16,17
 287 729 287 729 327 720 c 128,-1,18
 367 711 367 711 391 696 c 1,19,-1
 367 629 l 1,20,21
 349 640 349 640 314.5 649 c 128,-1,22
 280 658 280 658 234 658 c 0,23,24
 179 658 179 658 152.5 631 c 128,-1,25
 126 604 126 604 126 563 c 0,26,27
 126 527 126 527 146.5 499.5 c 128,-1,28
 167 472 167 472 197.5 447.5 c 128,-1,29
 228 423 228 423 263.5 398 c 128,-1,30
 299 373 299 373 329.5 342 c 128,-1,31
 360 311 360 311 380.5 272 c 128,-1,32
 401 233 401 233 401 180 c 0,33,34
 401 100 401 100 358.5 51 c 128,-1,35
 316 2 316 2 240 -9 c 1,36,-1
 224 -44 l 1,37,38
 291 -59 291 -59 291 -121 c 0,39,40
 291 -161 291 -161 261.5 -187 c 128,-1,41
 232 -213 232 -213 183 -213 c 0,42,43
 163 -213 163 -213 145 -209 c 1,44,-1
 153 -169 l 1,45,46
 177 -171 177 -171 190.5 -168 c 128,-1,47
 204 -165 204 -165 211 -159 c 128,-1,48
 218 -153 218 -153 220 -145 c 128,-1,49
 222 -137 222 -137 222 -130 c 0,50,51
 222 -101 222 -101 152 -92 c 1,52,-1
 186 -12 l 1,53,54
 129 -10 129 -10 92 0 c 128,-1,55
 55 10 55 10 34 25 c 1,56,-1
 60 95 l 1,0,1
EndSplineSet
Substitution2: "'locl' Localized Forms in Latin lookup 4 subtable" Scommaaccent
Substitution2: "'locl' Localized Forms in Latin lookup 3 subtable" Scommaaccent
Substitution2: "'aalt' Access All Alternates lookup 0 subtable" Scommaaccent
Position2: "'cpsp' Capital Spacing lookup 0 subtable" dx=41 dy=0 dh=82 dv=0
EndChar

StartChar: scedilla
Encoding: 351 351 269
Width: 346
Flags: W
LayerCount: 2
Fore
SplineSet
52 84 m 1,0,1
 72 72 72 72 100.5 63.5 c 128,-1,2
 129 55 129 55 159 55 c 0,3,4
 193 55 193 55 216.5 71.5 c 128,-1,5
 240 88 240 88 240 126 c 0,6,7
 240 158 240 158 225.5 178.5 c 128,-1,8
 211 199 211 199 189 215 c 128,-1,9
 167 231 167 231 141.5 245 c 128,-1,10
 116 259 116 259 94 278.5 c 128,-1,11
 72 298 72 298 57.5 324.5 c 128,-1,12
 43 351 43 351 43 392 c 0,13,14
 43 458 43 458 78.5 491 c 128,-1,15
 114 524 114 524 178 524 c 0,16,17
 220 524 220 524 251 516.5 c 128,-1,18
 282 509 282 509 304 496 c 1,19,-1
 285 434 l 1,20,21
 266 444 266 444 240 451 c 128,-1,22
 214 458 214 458 187 458 c 0,23,24
 150 458 150 458 133.5 442.5 c 128,-1,25
 117 427 117 427 117 394 c 0,26,27
 117 368 117 368 131 350.5 c 128,-1,28
 145 333 145 333 167 318 c 128,-1,29
 189 303 189 303 215 287.5 c 128,-1,30
 241 272 241 272 263 251 c 128,-1,31
 285 230 285 230 299 201 c 128,-1,32
 313 172 313 172 313 128 c 0,33,34
 313 77 313 77 283.5 38 c 128,-1,35
 254 -1 254 -1 195 -9 c 1,36,-1
 179 -44 l 1,37,38
 246 -59 246 -59 246 -121 c 0,39,40
 246 -161 246 -161 216.5 -187 c 128,-1,41
 187 -213 187 -213 138 -213 c 0,42,43
 118 -213 118 -213 100 -209 c 1,44,-1
 108 -169 l 1,45,46
 132 -171 132 -171 145.5 -168 c 128,-1,47
 159 -165 159 -165 166 -159 c 128,-1,48
 173 -153 173 -153 175 -145 c 128,-1,49
 177 -137 177 -137 177 -130 c 0,50,51
 177 -101 177 -101 106 -92 c 1,52,-1
 142 -11 l 1,53,54
 105 -9 105 -9 77 -1 c 128,-1,55
 49 7 49 7 30 19 c 1,56,-1
 52 84 l 1,0,1
EndSplineSet
Substitution2: "'locl' Localized Forms in Latin lookup 4 subtable" scommaaccent
Substitution2: "'locl' Localized Forms in Latin lookup 3 subtable" scommaaccent
Substitution2: "'aalt' Access All Alternates lookup 0 subtable" scommaaccent
EndChar

StartChar: Tcedilla
Encoding: 354 354 272
Width: 457
Flags: W
LayerCount: 2
Fore
SplineSet
190 0 m 1,0,-1
 190 646 l 1,1,-1
 14 646 l 1,2,-1
 14 717 l 1,3,-1
 443 717 l 1,4,-1
 443 646 l 1,5,-1
 267 646 l 1,6,-1
 267 0 l 1,7,-1
 255 0 l 1,8,-1
 236 -44 l 1,9,10
 303 -59 303 -59 302 -121 c 0,11,12
 302 -161 302 -161 273 -187 c 128,-1,13
 244 -213 244 -213 195 -213 c 0,14,15
 175 -213 175 -213 157 -209 c 1,16,-1
 164 -169 l 1,17,18
 188 -171 188 -171 201.5 -168 c 128,-1,19
 215 -165 215 -165 222 -159 c 128,-1,20
 229 -153 229 -153 231 -145 c 128,-1,21
 233 -137 233 -137 233 -130 c 0,22,23
 233 -101 233 -101 163 -92 c 1,24,-1
 204 0 l 1,25,-1
 190 0 l 1,0,-1
EndSplineSet
Substitution2: "'locl' Localized Forms in Latin lookup 4 subtable" Tcommaaccent
Substitution2: "'locl' Localized Forms in Latin lookup 3 subtable" Tcommaaccent
Substitution2: "'aalt' Access All Alternates lookup 0 subtable" Tcommaaccent
EndChar

StartChar: tcedilla
Encoding: 355 355 273
Width: 281
Flags: W
LayerCount: 2
Fore
SplineSet
9 512 m 1,0,-1
 72 512 l 1,1,-1
 72 613 l 1,2,-1
 145 637 l 1,3,-1
 145 512 l 1,4,-1
 256 512 l 1,5,-1
 256 445 l 1,6,-1
 145 445 l 1,7,-1
 145 140 l 2,8,9
 145 95 145 95 156 75.5 c 128,-1,10
 167 56 167 56 191 56 c 0,11,12
 211 56 211 56 226.5 61 c 128,-1,13
 242 66 242 66 259 73 c 1,14,-1
 273 13 l 1,15,16
 242 -1 242 -1 209 -7 c 1,17,-1
 208 -7 l 1,18,-1
 191 -44 l 1,19,20
 258 -59 258 -59 258 -121 c 0,21,22
 258 -161 258 -161 229 -187 c 128,-1,23
 200 -213 200 -213 151 -213 c 0,24,25
 131 -213 131 -213 113 -209 c 1,26,-1
 120 -169 l 1,27,28
 144 -171 144 -171 157.5 -168 c 128,-1,29
 171 -165 171 -165 178 -159 c 128,-1,30
 185 -153 185 -153 187 -145 c 128,-1,31
 189 -137 189 -137 189 -130 c 0,32,33
 189 -101 189 -101 119 -92 c 1,34,-1
 155 -10 l 1,35,36
 111 -7 111 -7 91.5 26 c 128,-1,37
 72 59 72 59 72 130 c 2,38,-1
 72 445 l 1,39,-1
 9 445 l 1,40,-1
 9 512 l 1,0,-1
EndSplineSet
Substitution2: "'locl' Localized Forms in Latin lookup 4 subtable" tcommaaccent
Substitution2: "'locl' Localized Forms in Latin lookup 3 subtable" tcommaaccent
Substitution2: "'aalt' Access All Alternates lookup 0 subtable" tcommaaccent
EndChar

StartChar: Uogonek
Encoding: 370 370 284
Width: 533
Flags: W
LayerCount: 2
Fore
SplineSet
394 717 m 1,0,-1
 468 717 l 1,1,-1
 468 237 l 2,2,3
 468 138 468 138 438 81 c 128,-1,4
 408 24 408 24 352 3 c 1,5,6
 328 -14 328 -14 315.5 -36.5 c 128,-1,7
 303 -59 303 -59 303 -90 c 0,8,9
 303 -104 303 -104 308 -116 c 128,-1,10
 313 -128 313 -128 322.5 -135 c 128,-1,11
 332 -142 332 -142 345.5 -143 c 128,-1,12
 359 -144 359 -144 378 -137 c 1,13,-1
 389 -178 l 1,14,15
 378 -188 378 -188 356 -194.5 c 128,-1,16
 334 -201 334 -201 315 -201 c 0,17,18
 275 -201 275 -201 251.5 -176 c 128,-1,19
 228 -151 228 -151 227 -111 c 1,20,21
 228 -80 228 -80 242 -54 c 128,-1,22
 256 -28 256 -28 282 -9 c 1,23,-1
 273 -9 l 2,24,25
 164 -9 164 -9 115 47 c 128,-1,26
 66 103 66 103 66 220 c 2,27,-1
 66 717 l 1,28,-1
 142 717 l 1,29,-1
 142 260 l 2,30,31
 142 205 142 205 149.5 167 c 128,-1,32
 157 129 157 129 173 105.5 c 128,-1,33
 189 82 189 82 214 71.5 c 128,-1,34
 239 61 239 61 274 61 c 0,35,36
 342 61 342 61 368 108.5 c 128,-1,37
 394 156 394 156 394 260 c 2,38,-1
 394 717 l 1,0,-1
EndSplineSet
Position2: "'cpsp' Capital Spacing lookup 0 subtable" dx=41 dy=0 dh=82 dv=0
EndChar

StartChar: uogonek
Encoding: 371 371 285
Width: 444
Flags: W
LayerCount: 2
Fore
SplineSet
127 512 m 1,0,-1
 127 199 l 2,1,2
 127 121 127 121 143 87.5 c 128,-1,3
 159 54 159 54 201 54 c 0,4,5
 223 54 223 54 239.5 63 c 128,-1,6
 256 72 256 72 269.5 86 c 128,-1,7
 283 100 283 100 293 118.5 c 128,-1,8
 303 137 303 137 309 157 c 1,9,-1
 309 512 l 1,10,-1
 383 512 l 1,11,-1
 383 145 l 2,12,13
 383 108 383 108 385.5 69 c 128,-1,14
 388 30 388 30 393 0 c 1,15,-1
 380 0 l 1,16,17
 356 -16 356 -16 341 -37.5 c 128,-1,18
 326 -59 326 -59 327 -90 c 0,19,20
 327 -104 327 -104 332 -116 c 128,-1,21
 337 -128 337 -128 347 -135 c 128,-1,22
 357 -142 357 -142 371.5 -142 c 128,-1,23
 386 -142 386 -142 403 -132 c 1,24,-1
 415 -176 l 1,25,26
 403 -188 403 -188 380.5 -194.5 c 128,-1,27
 358 -201 358 -201 339 -201 c 0,28,29
 300 -201 300 -201 277 -176.5 c 128,-1,30
 254 -152 254 -152 254 -110 c 0,31,32
 254 -67 254 -67 277 -39 c 128,-1,33
 300 -11 300 -11 339 6 c 1,34,-1
 323 72 l 1,35,-1
 319 72 l 1,36,37
 302 38 302 38 269.5 13 c 128,-1,38
 237 -12 237 -12 187 -12 c 0,39,40
 154 -12 154 -12 129.5 -4 c 128,-1,41
 105 4 105 4 88 25.5 c 128,-1,42
 71 47 71 47 62 84.5 c 128,-1,43
 53 122 53 122 53 180 c 2,44,-1
 53 512 l 1,45,-1
 127 512 l 1,0,-1
EndSplineSet
EndChar

StartChar: longs
Encoding: 383 383 293
Width: 210
Flags: W
LayerCount: 2
Fore
SplineSet
16 512 m 1,0,-1
 79 512 l 1,1,-1
 79 541 l 2,2,3
 79 637 79 637 106.5 680 c 128,-1,4
 134 723 134 723 200 723 c 0,5,6
 229 723 229 723 250 719.5 c 128,-1,7
 271 716 271 716 294 706 c 1,8,-1
 275 644 l 1,9,10
 256 652 256 652 241 654 c 128,-1,11
 226 656 226 656 212 656 c 0,12,13
 192 656 192 656 180 648 c 128,-1,14
 168 640 168 640 162 622.5 c 128,-1,15
 156 605 156 605 154.5 578 c 128,-1,16
 153 551 153 551 153 512 c 2,17,-1
 153 0 l 1,18,-1
 79 0 l 1,19,-1
 79 445 l 1,20,-1
 16 445 l 1,21,-1
 16 512 l 1,0,-1
EndSplineSet
EndChar

StartChar: florin
Encoding: 402 402 294
Width: 460
Flags: W
LayerCount: 2
Fore
SplineSet
265 445 m 1,0,-1
 202 -35 l 2,1,2
 197 -73 197 -73 187.5 -105 c 128,-1,3
 178 -137 178 -137 162.5 -161 c 128,-1,4
 147 -185 147 -185 124.5 -199 c 128,-1,5
 102 -213 102 -213 71 -213 c 0,6,7
 46 -213 46 -213 17 -207.5 c 128,-1,8
 -12 -202 -12 -202 -33 -191 c 1,9,-1
 -12 -129 l 1,10,11
 6 -137 6 -137 23 -141.5 c 128,-1,12
 40 -146 40 -146 60 -146 c 0,13,14
 91 -146 91 -146 107.5 -109.5 c 128,-1,15
 124 -73 124 -73 134 8 c 2,16,-1
 188 445 l 1,17,-1
 120 445 l 1,18,-1
 120 512 l 1,19,-1
 199 512 l 1,20,-1
 208 581 l 2,21,22
 218 656 218 656 244 692.5 c 128,-1,23
 270 729 270 729 332 729 c 0,24,25
 360 729 360 729 388 723.5 c 128,-1,26
 416 718 416 718 437 708 c 1,27,-1
 417 646 l 1,28,29
 380 662 380 662 343 663 c 0,30,31
 312 663 312 663 300 636.5 c 128,-1,32
 288 610 288 610 281 554 c 2,33,-1
 275 512 l 1,34,-1
 375 512 l 1,35,-1
 375 445 l 1,36,-1
 265 445 l 1,0,-1
EndSplineSet
EndChar

StartChar: uni0237
Encoding: 567 567 301
Width: 220
Flags: W
LayerCount: 2
Fore
SplineSet
74 512 m 1,0,-1
 147 512 l 1,1,-1
 147 -28 l 2,2,3
 147 -133 147 -133 113.5 -179.5 c 128,-1,4
 80 -226 80 -226 4 -215 c 1,5,-1
 4 -148 l 1,6,7
 27 -148 27 -148 40.5 -139 c 128,-1,8
 54 -130 54 -130 62 -111 c 128,-1,9
 70 -92 70 -92 72 -64 c 128,-1,10
 74 -36 74 -36 74 2 c 2,11,-1
 74 512 l 1,0,-1
EndSplineSet
EndChar

StartChar: circumflex
Encoding: 710 710 303
Width: 351
Flags: W
LayerCount: 2
Fore
SplineSet
163 750 m 1,0,-1
 199 750 l 1,1,-1
 290 563 l 1,2,-1
 225 563 l 1,3,-1
 193 631 l 1,4,-1
 176 690 l 1,5,-1
 159 631 l 1,6,-1
 122 563 l 1,7,-1
 61 563 l 1,8,-1
 163 750 l 1,0,-1
EndSplineSet
EndChar

StartChar: caron
Encoding: 711 711 304
Width: 358
Flags: W
LayerCount: 2
Fore
SplineSet
196 563 m 1,0,-1
 157 563 l 1,1,-1
 61 750 l 1,2,-1
 131 750 l 1,3,-1
 163 682 l 1,4,-1
 180 623 l 1,5,-1
 198 682 l 1,6,-1
 234 750 l 1,7,-1
 297 750 l 1,8,-1
 196 563 l 1,0,-1
EndSplineSet
Substitution2: "'aalt' Access All Alternates lookup 0 subtable" caron.l
EndChar

StartChar: breve
Encoding: 728 728 305
Width: 379
Flags: W
LayerCount: 2
Fore
SplineSet
101 734 m 1,0,1
 115 697 115 697 140 675 c 128,-1,2
 165 653 165 653 195 653 c 0,3,4
 224 653 224 653 245.5 674.5 c 128,-1,5
 267 696 267 696 281 734 c 1,6,-1
 318 719 l 1,7,8
 316 692 316 692 305.5 668 c 128,-1,9
 295 644 295 644 278.5 626 c 128,-1,10
 262 608 262 608 240 597.5 c 128,-1,11
 218 587 218 587 194 587 c 0,12,13
 146 587 146 587 109.5 620.5 c 128,-1,14
 73 654 73 654 61 716 c 1,15,-1
 101 734 l 1,0,1
EndSplineSet
EndChar

StartChar: dotaccent
Encoding: 729 729 306
Width: 225
Flags: W
LayerCount: 2
Fore
SplineSet
61 668 m 0,0,1
 61 693 61 693 75 708 c 128,-1,2
 89 723 89 723 112 723 c 256,3,4
 135 723 135 723 149.5 708 c 128,-1,5
 164 693 164 693 164 668 c 256,6,7
 164 643 164 643 149 629 c 128,-1,8
 134 615 134 615 112 615 c 256,9,10
 89 615 89 615 75 629.5 c 128,-1,11
 61 644 61 644 61 668 c 0,0,1
EndSplineSet
EndChar

StartChar: ring
Encoding: 730 730 307
Width: 291
Flags: W
LayerCount: 2
Fore
SplineSet
61 658 m 0,0,1
 61 701 61 701 83.5 725.5 c 128,-1,2
 106 750 106 750 145 750 c 0,3,4
 182 750 182 750 206 728.5 c 128,-1,5
 230 707 230 707 230 658 c 0,6,7
 230 617 230 617 207 592.5 c 128,-1,8
 184 568 184 568 145 568 c 256,9,10
 106 568 106 568 83.5 591 c 128,-1,11
 61 614 61 614 61 658 c 0,0,1
111 658 m 0,12,13
 111 634 111 634 121 622.5 c 128,-1,14
 131 611 131 611 145 611 c 0,15,16
 161 611 161 611 171 622.5 c 128,-1,17
 181 634 181 634 181 658 c 256,18,19
 181 683 181 683 170.5 695 c 128,-1,20
 160 707 160 707 145 707 c 256,21,22
 131 707 131 707 121 695.5 c 128,-1,23
 111 684 111 684 111 658 c 0,12,13
EndSplineSet
EndChar

StartChar: ogonek
Encoding: 731 731 308
Width: 284
Flags: W
LayerCount: 2
Fore
SplineSet
200 10 m 1,0,1
 170 -6 170 -6 152.5 -31 c 128,-1,2
 135 -56 135 -56 135 -89 c 1,3,4
 136 -119 136 -119 155.5 -135 c 128,-1,5
 175 -151 175 -151 213 -135 c 1,6,-1
 223 -176 l 1,7,8
 212 -187 212 -187 191 -193.5 c 128,-1,9
 170 -200 170 -200 151 -200 c 0,10,11
 110 -200 110 -200 85.5 -175.5 c 128,-1,12
 61 -151 61 -151 61 -112 c 0,13,14
 61 -68 61 -68 86.5 -37.5 c 128,-1,15
 112 -7 112 -7 151 10 c 1,16,-1
 200 10 l 1,0,1
EndSplineSet
EndChar

StartChar: tilde
Encoding: 732 732 309
Width: 370
Flags: W
LayerCount: 2
Fore
SplineSet
61 669 m 1,0,1
 89 704 89 704 110.5 716.5 c 128,-1,2
 132 729 132 729 150 729 c 0,3,4
 164 729 164 729 176 723 c 128,-1,5
 188 717 188 717 200 710 c 128,-1,6
 212 703 212 703 222.5 697 c 128,-1,7
 233 691 233 691 246 691 c 0,8,9
 255 691 255 691 264.5 695.5 c 128,-1,10
 274 700 274 700 286 713 c 1,11,-1
 309 674 l 1,12,13
 284 644 284 644 265.5 633 c 128,-1,14
 247 622 247 622 230 622 c 0,15,16
 216 622 216 622 203.5 627.5 c 128,-1,17
 191 633 191 633 179.5 640 c 128,-1,18
 168 647 168 647 156.5 652.5 c 128,-1,19
 145 658 145 658 133 658 c 0,20,21
 122 658 122 658 110.5 652.5 c 128,-1,22
 99 647 99 647 86 633 c 1,23,-1
 61 669 l 1,0,1
EndSplineSet
EndChar

StartChar: hungarumlaut
Encoding: 733 733 310
Width: 354
Flags: W
LayerCount: 2
Fore
SplineSet
90 717 m 1,0,-1
 161 717 l 1,1,-1
 161 700 l 1,2,-1
 101 585 l 1,3,-1
 61 585 l 1,4,-1
 90 717 l 1,0,-1
216 717 m 1,5,-1
 293 717 l 1,6,-1
 293 700 l 1,7,-1
 199 585 l 1,8,-1
 156 585 l 1,9,-1
 216 717 l 1,5,-1
EndSplineSet
EndChar

StartChar: uni0394
Encoding: 916 916 312
AltUni2: 002206.ffffffff.0
Width: 470
Flags: W
LayerCount: 2
Fore
SplineSet
11 0 m 1,0,-1
 11 38 l 1,1,-1
 217 728 l 1,2,-1
 253 728 l 1,3,-1
 462 38 l 1,4,-1
 462 0 l 1,5,-1
 11 0 l 1,0,-1
93 67 m 1,6,-1
 377 67 l 1,7,-1
 253 478 l 1,8,-1
 234 595 l 1,9,-1
 231 595 l 1,10,-1
 210 476 l 1,11,-1
 93 67 l 1,6,-1
EndSplineSet
EndChar

StartChar: uni03A9
Encoding: 937 937 313
AltUni2: 002126.ffffffff.0
Width: 655
Flags: W
LayerCount: 2
Fore
SplineSet
59 67 m 1,0,-1
 153 67 l 1,1,-1
 229 56 l 1,2,-1
 229 84 l 1,3,-1
 185 94 l 1,4,5
 159 109 159 109 136.5 137 c 128,-1,6
 114 165 114 165 97 202.5 c 128,-1,7
 80 240 80 240 69.5 286 c 128,-1,8
 59 332 59 332 59 385 c 0,9,10
 59 466 59 466 78 529.5 c 128,-1,11
 97 593 97 593 132 637.5 c 128,-1,12
 167 682 167 682 216 705.5 c 128,-1,13
 265 729 265 729 327 729 c 0,14,15
 392 729 392 729 442 703.5 c 128,-1,16
 492 678 492 678 526 632 c 128,-1,17
 560 586 560 586 578 522 c 128,-1,18
 596 458 596 458 596 381 c 0,19,20
 596 326 596 326 584.5 280 c 128,-1,21
 573 234 573 234 555.5 198 c 128,-1,22
 538 162 538 162 515.5 136.5 c 128,-1,23
 493 111 493 111 471 95 c 1,24,-1
 425 84 l 1,25,-1
 425 56 l 1,26,-1
 503 67 l 1,27,-1
 596 67 l 1,28,-1
 596 0 l 1,29,-1
 357 0 l 1,30,-1
 357 119 l 1,31,32
 381 125 381 125 408.5 142.5 c 128,-1,33
 436 160 436 160 459.5 192 c 128,-1,34
 483 224 483 224 499 272.5 c 128,-1,35
 515 321 515 321 515 386 c 0,36,37
 515 435 515 435 504.5 484.5 c 128,-1,38
 494 534 494 534 470.5 572 c 128,-1,39
 447 610 447 610 412 634 c 128,-1,40
 377 658 377 658 327 658 c 0,41,42
 237 658 237 658 188.5 588 c 128,-1,43
 140 518 140 518 140 383 c 0,44,45
 140 318 140 318 155 271 c 128,-1,46
 170 224 170 224 192.5 192 c 128,-1,47
 215 160 215 160 242.5 142 c 128,-1,48
 270 124 270 124 297 119 c 1,49,-1
 297 0 l 1,50,-1
 59 0 l 1,51,-1
 59 67 l 1,0,-1
EndSplineSet
EndChar

StartChar: pi
Encoding: 960 960 314
Width: 547
Flags: W
LayerCount: 2
Fore
SplineSet
431 115 m 2,0,1
 431 86 431 86 438.5 74 c 128,-1,2
 446 62 446 62 458 62 c 0,3,4
 466 62 466 62 476 65 c 128,-1,5
 486 68 486 68 494 70 c 1,6,-1
 510 15 l 1,7,8
 496 9 496 9 475.5 2.5 c 128,-1,9
 455 -4 455 -4 428 -4 c 0,10,11
 386 -4 386 -4 371.5 25.5 c 128,-1,12
 357 55 357 55 357 109 c 2,13,-1
 357 445 l 1,14,-1
 209 445 l 1,15,-1
 209 0 l 1,16,-1
 135 0 l 1,17,-1
 135 445 l 1,18,-1
 122 445 l 2,19,20
 91 445 91 445 69 403 c 1,21,-1
 25 438 l 1,22,23
 41 475 41 475 66.5 493.5 c 128,-1,24
 92 512 92 512 136 512 c 2,25,-1
 500 512 l 1,26,-1
 500 445 l 1,27,-1
 431 445 l 1,28,-1
 431 115 l 2,0,1
EndSplineSet
EndChar

StartChar: afii10051
Encoding: 1026 1026 316
Width: 602
Flags: W
LayerCount: 2
Fore
SplineSet
268 0 m 1,0,-1
 191 0 l 1,1,-1
 191 646 l 1,2,-1
 14 646 l 1,3,-1
 14 717 l 1,4,-1
 445 717 l 1,5,-1
 445 646 l 1,6,-1
 268 646 l 1,7,-1
 268 425 l 1,8,9
 278 429 278 429 308 438 c 128,-1,10
 338 447 338 447 384 447 c 0,11,12
 418 447 418 447 449 437.5 c 128,-1,13
 480 428 480 428 504.5 403.5 c 128,-1,14
 529 379 529 379 544 337.5 c 128,-1,15
 559 296 559 296 559 231 c 0,16,17
 559 108 559 108 511.5 50 c 128,-1,18
 464 -8 464 -8 367 -8 c 0,19,20
 340 -8 340 -8 327 -7.5 c 128,-1,21
 314 -7 314 -7 308 -5 c 1,22,-1
 308 66 l 1,23,24
 319 64 319 64 331.5 63 c 128,-1,25
 344 62 344 62 367 62 c 0,26,27
 479 62 479 62 478 224 c 0,28,29
 478 268 478 268 469.5 298 c 128,-1,30
 461 328 461 328 444.5 345 c 128,-1,31
 428 362 428 362 406 369.5 c 128,-1,32
 384 377 384 377 358 377 c 0,33,34
 344 377 344 377 329.5 374.5 c 128,-1,35
 315 372 315 372 303 368 c 128,-1,36
 291 364 291 364 281.5 360 c 128,-1,37
 272 356 272 356 268 354 c 1,38,-1
 268 0 l 1,0,-1
EndSplineSet
Position2: "'cpsp' Capital Spacing lookup 0 subtable" dx=41 dy=0 dh=82 dv=0
EndChar

StartChar: afii10053
Encoding: 1028 1028 318
Width: 480
Flags: W
LayerCount: 2
Fore
SplineSet
442 28 m 1,0,1
 416 6 416 6 376.5 -3 c 128,-1,2
 337 -12 337 -12 294 -12 c 0,3,4
 240 -12 240 -12 193.5 8.5 c 128,-1,5
 147 29 147 29 114 73.5 c 128,-1,6
 81 118 81 118 62.5 188.5 c 128,-1,7
 44 259 44 259 44 358 c 0,8,9
 44 460 44 460 65 531 c 128,-1,10
 86 602 86 602 121 646 c 128,-1,11
 156 690 156 690 201.5 709.5 c 128,-1,12
 247 729 247 729 295 729 c 0,13,14
 344 729 344 729 378 722 c 128,-1,15
 412 715 412 715 435 705 c 1,16,-1
 416 635 l 1,17,18
 397 646 397 646 367.5 652 c 128,-1,19
 338 658 338 658 302 658 c 0,20,21
 269 658 269 658 239 645 c 128,-1,22
 209 632 209 632 185.5 601.5 c 128,-1,23
 162 571 162 571 146 523 c 128,-1,24
 130 475 130 475 126 406 c 1,25,-1
 374 406 l 1,26,-1
 374 335 l 1,27,-1
 125 335 l 1,28,29
 130 197 130 197 181 127.5 c 128,-1,30
 232 58 232 58 314 58 c 0,31,32
 350 58 350 58 378 68 c 128,-1,33
 406 78 406 78 424 91 c 1,34,-1
 442 28 l 1,0,1
EndSplineSet
Position2: "'cpsp' Capital Spacing lookup 0 subtable" dx=41 dy=0 dh=82 dv=0
EndChar

StartChar: afii10056
Encoding: 1031 1031 321
Width: 241
Flags: W
LayerCount: 2
Fore
SplineSet
19 812 m 256,0,1
 19 835 19 835 31.5 848 c 128,-1,2
 44 861 44 861 65 861 c 256,3,4
 85 861 85 861 97 848 c 128,-1,5
 109 835 109 835 109 812 c 256,6,7
 109 789 109 789 97 776.5 c 128,-1,8
 85 764 85 764 65 764 c 256,9,10
 45 764 45 764 32 776.5 c 128,-1,11
 19 789 19 789 19 812 c 256,0,1
133 812 m 256,12,13
 133 835 133 835 145 848 c 128,-1,14
 157 861 157 861 177 861 c 256,15,16
 197 861 197 861 209.5 848 c 128,-1,17
 222 835 222 835 222 812 c 256,18,19
 222 789 222 789 210 776.5 c 128,-1,20
 198 764 198 764 177 764 c 256,21,22
 157 764 157 764 145 776.5 c 128,-1,23
 133 789 133 789 133 812 c 256,12,13
82 717 m 1,24,-1
 159 717 l 1,25,-1
 159 0 l 1,26,-1
 82 0 l 1,27,-1
 82 717 l 1,24,-1
EndSplineSet
Position2: "'cpsp' Capital Spacing lookup 0 subtable" dx=41 dy=0 dh=82 dv=0
EndChar

StartChar: afii10058
Encoding: 1033 1033 323
Width: 764
Flags: W
LayerCount: 2
Fore
SplineSet
372 646 m 1,0,-1
 210 646 l 1,1,2
 202 440 202 440 188.5 302 c 128,-1,3
 175 164 175 164 147 89 c 0,4,5
 130 40 130 40 104.5 17.5 c 128,-1,6
 79 -5 79 -5 46 -5 c 0,7,8
 16 -5 16 -5 -4 5 c 1,9,-1
 7 75 l 1,10,11
 27 69 27 69 44.5 77.5 c 128,-1,12
 62 86 62 86 78 125 c 0,13,14
 89 153 89 153 99 199.5 c 128,-1,15
 109 246 109 246 116.5 317.5 c 128,-1,16
 124 389 124 389 129 487.5 c 128,-1,17
 134 586 134 586 136 717 c 1,18,-1
 449 717 l 1,19,-1
 449 438 l 1,20,21
 462 441 462 441 487 444 c 128,-1,22
 512 447 512 447 531 447 c 0,23,24
 572 447 572 447 609.5 437.5 c 128,-1,25
 647 428 647 428 676 403.5 c 128,-1,26
 705 379 705 379 721.5 337.5 c 128,-1,27
 738 296 738 296 738 232 c 0,28,29
 738 170 738 170 722.5 125 c 128,-1,30
 707 80 707 80 677 50 c 128,-1,31
 647 20 647 20 605 6 c 128,-1,32
 563 -8 563 -8 511 -8 c 0,33,34
 500 -8 500 -8 483 -7.5 c 128,-1,35
 466 -7 466 -7 447 -5.5 c 128,-1,36
 428 -4 428 -4 408 -1.5 c 128,-1,37
 388 1 388 1 372 6 c 1,38,-1
 372 646 l 1,0,-1
449 68 m 1,39,40
 461 65 461 65 480.5 63.5 c 128,-1,41
 500 62 500 62 519 62 c 0,42,43
 581 62 581 62 619 102 c 128,-1,44
 657 142 657 142 657 225 c 0,45,46
 657 269 657 269 646.5 298.5 c 128,-1,47
 636 328 636 328 617 345 c 128,-1,48
 598 362 598 362 572.5 369.5 c 128,-1,49
 547 377 547 377 518 377 c 0,50,51
 511 377 511 377 500.5 376 c 128,-1,52
 490 375 490 375 480.5 374 c 128,-1,53
 471 373 471 373 462 371 c 128,-1,54
 453 369 453 369 449 368 c 1,55,-1
 449 68 l 1,39,40
EndSplineSet
Position2: "'cpsp' Capital Spacing lookup 0 subtable" dx=41 dy=0 dh=82 dv=0
EndChar

StartChar: afii10059
Encoding: 1034 1034 324
Width: 799
Flags: W
LayerCount: 2
Fore
SplineSet
407 346 m 1,0,-1
 142 346 l 1,1,-1
 142 0 l 1,2,-1
 66 0 l 1,3,-1
 66 717 l 1,4,-1
 142 717 l 1,5,-1
 142 417 l 1,6,-1
 407 417 l 1,7,-1
 407 717 l 1,8,-1
 483 717 l 1,9,-1
 483 417 l 1,10,11
 487 418 487 418 497 419.5 c 128,-1,12
 507 421 507 421 519 422 c 128,-1,13
 531 423 531 423 544 424 c 128,-1,14
 557 425 557 425 566 425 c 0,15,16
 606 425 606 425 643.5 417 c 128,-1,17
 681 409 681 409 709.5 386.5 c 128,-1,18
 738 364 738 364 755.5 324 c 128,-1,19
 773 284 773 284 773 221 c 0,20,21
 773 160 773 160 756.5 116.5 c 128,-1,22
 740 73 740 73 710.5 45 c 128,-1,23
 681 17 681 17 639.5 4.5 c 128,-1,24
 598 -8 598 -8 547 -8 c 0,25,26
 536 -8 536 -8 518.5 -7.5 c 128,-1,27
 501 -7 501 -7 482 -5.5 c 128,-1,28
 463 -4 463 -4 443 -1 c 128,-1,29
 423 2 423 2 407 6 c 1,30,-1
 407 346 l 1,0,-1
483 69 m 1,31,32
 494 65 494 65 515 63.5 c 128,-1,33
 536 62 536 62 556 62 c 0,34,35
 617 62 617 62 654.5 98.5 c 128,-1,36
 692 135 692 135 692 215 c 0,37,38
 692 258 692 258 681.5 285 c 128,-1,39
 671 312 671 312 652 327.5 c 128,-1,40
 633 343 633 343 608 348.5 c 128,-1,41
 583 354 583 354 555 354 c 0,42,43
 548 354 548 354 537 353 c 128,-1,44
 526 352 526 352 515.5 351 c 128,-1,45
 505 350 505 350 496 348 c 128,-1,46
 487 346 487 346 483 345 c 1,47,-1
 483 69 l 1,31,32
EndSplineSet
Position2: "'cpsp' Capital Spacing lookup 0 subtable" dx=41 dy=0 dh=82 dv=0
EndChar

StartChar: afii10060
Encoding: 1035 1035 325
Width: 619
Flags: W
LayerCount: 2
Fore
SplineSet
267 0 m 1,0,-1
 190 0 l 1,1,-1
 190 646 l 1,2,-1
 14 646 l 1,3,-1
 14 717 l 1,4,-1
 443 717 l 1,5,-1
 443 646 l 1,6,-1
 267 646 l 1,7,-1
 267 407 l 1,8,9
 289 422 289 422 325.5 436.5 c 128,-1,10
 362 451 362 451 410 451 c 0,11,12
 446 451 446 451 475 441 c 128,-1,13
 504 431 504 431 524.5 408 c 128,-1,14
 545 385 545 385 556 346.5 c 128,-1,15
 567 308 567 308 567 251 c 2,16,-1
 567 0 l 1,17,-1
 490 0 l 1,18,-1
 490 239 l 2,19,20
 490 316 490 316 466.5 348 c 128,-1,21
 443 380 443 380 392 380 c 0,22,23
 355 380 355 380 321.5 367 c 128,-1,24
 288 354 288 354 267 334 c 1,25,-1
 267 0 l 1,0,-1
EndSplineSet
Position2: "'cpsp' Capital Spacing lookup 0 subtable" dx=41 dy=0 dh=82 dv=0
EndChar

StartChar: afii10145
Encoding: 1039 1039 328
Width: 538
Flags: W
LayerCount: 2
Fore
SplineSet
66 0 m 1,0,-1
 66 717 l 1,1,-1
 142 717 l 1,2,-1
 142 71 l 1,3,-1
 396 71 l 1,4,-1
 396 717 l 1,5,-1
 473 717 l 1,6,-1
 473 0 l 1,7,-1
 307 0 l 1,8,-1
 294 -183 l 1,9,-1
 246 -183 l 1,10,-1
 229 0 l 1,11,-1
 66 0 l 1,0,-1
EndSplineSet
Position2: "'cpsp' Capital Spacing lookup 0 subtable" dx=41 dy=0 dh=82 dv=0
EndChar

StartChar: afii10018
Encoding: 1041 1041 330
Width: 455
Flags: W
LayerCount: 2
Fore
SplineSet
66 717 m 1,0,-1
 386 717 l 1,1,-1
 386 646 l 1,2,-1
 142 646 l 1,3,-1
 142 426 l 1,4,5
 156 429 156 429 177.5 432 c 128,-1,6
 199 435 199 435 218 435 c 0,7,8
 261 435 261 435 299 425.5 c 128,-1,9
 337 416 337 416 365 392.5 c 128,-1,10
 393 369 393 369 409.5 328.5 c 128,-1,11
 426 288 426 288 426 226 c 256,12,13
 426 165 426 165 410 120.5 c 128,-1,14
 394 76 394 76 366 47.5 c 128,-1,15
 338 19 338 19 299 5.5 c 128,-1,16
 260 -8 260 -8 213 -8 c 0,17,18
 199 -8 199 -8 180 -7.5 c 128,-1,19
 161 -7 161 -7 141 -5.5 c 128,-1,20
 121 -4 121 -4 101 -1 c 128,-1,21
 81 2 81 2 66 6 c 1,22,-1
 66 717 l 1,0,-1
142 69 m 1,23,24
 153 65 153 65 176.5 63.5 c 128,-1,25
 200 62 200 62 220 62 c 0,26,27
 275 62 275 62 310 98 c 128,-1,28
 345 134 345 134 345 212 c 0,29,30
 345 261 345 261 334.5 291.5 c 128,-1,31
 324 322 324 322 305.5 338 c 128,-1,32
 287 354 287 354 262 359.5 c 128,-1,33
 237 365 237 365 208 365 c 0,34,35
 201 365 201 365 191.5 363.5 c 128,-1,36
 182 362 182 362 172.5 361 c 128,-1,37
 163 360 163 360 154.5 358 c 128,-1,38
 146 356 146 356 142 355 c 1,39,-1
 142 69 l 1,23,24
EndSplineSet
Position2: "'cpsp' Capital Spacing lookup 0 subtable" dx=41 dy=0 dh=82 dv=0
EndChar

StartChar: afii10020
Encoding: 1043 1043 332
Width: 365
Flags: W
LayerCount: 2
Fore
SplineSet
379 646 m 1,0,-1
 142 646 l 1,1,-1
 142 0 l 1,2,-1
 66 0 l 1,3,-1
 66 717 l 1,4,-1
 379 717 l 1,5,-1
 379 646 l 1,0,-1
EndSplineSet
Position2: "'cpsp' Capital Spacing lookup 0 subtable" dx=41 dy=0 dh=82 dv=0
EndChar

StartChar: afii10021
Encoding: 1044 1044 333
Width: 555
Flags: W
LayerCount: 2
Fore
SplineSet
534 -132 m 1,0,-1
 479 -132 l 1,1,-1
 467 0 l 1,2,-1
 70 0 l 1,3,-1
 57 -132 l 1,4,-1
 3 -132 l 1,5,-1
 3 71 l 1,6,-1
 62 71 l 1,7,8
 68 82 68 82 82 124 c 128,-1,9
 96 166 96 166 110 244.5 c 128,-1,10
 124 323 124 323 134 440 c 128,-1,11
 144 557 144 557 143 717 c 1,12,-1
 459 717 l 1,13,-1
 459 71 l 1,14,-1
 534 71 l 1,15,-1
 534 -132 l 1,0,-1
382 71 m 1,16,-1
 382 646 l 1,17,-1
 217 646 l 1,18,19
 212 420 212 420 190.5 279.5 c 128,-1,20
 169 139 169 139 143 71 c 1,21,-1
 382 71 l 1,16,-1
EndSplineSet
Position2: "'cpsp' Capital Spacing lookup 0 subtable" dx=41 dy=0 dh=82 dv=0
EndChar

StartChar: afii10024
Encoding: 1046 1046 335
Width: 669
Flags: W
LayerCount: 2
Fore
SplineSet
294 717 m 1,0,-1
 368 717 l 1,1,-1
 368 383 l 1,2,-1
 402 397 l 1,3,-1
 560 717 l 1,4,-1
 646 717 l 1,5,-1
 485 406 l 1,6,-1
 452 373 l 1,7,-1
 494 332 l 1,8,-1
 672 0 l 1,9,-1
 577 0 l 1,10,-1
 404 333 l 1,11,-1
 368 333 l 1,12,-1
 368 0 l 1,13,-1
 294 0 l 1,14,-1
 294 345 l 1,15,-1
 260 331 l 1,16,-1
 88 0 l 1,17,-1
 -2 0 l 1,18,-1
 174 322 l 1,19,-1
 214 359 l 1,20,-1
 176 395 l 1,21,-1
 10 717 l 1,22,-1
 100 717 l 1,23,-1
 258 395 l 1,24,-1
 294 395 l 1,25,-1
 294 717 l 1,0,-1
EndSplineSet
Position2: "'cpsp' Capital Spacing lookup 0 subtable" dx=41 dy=0 dh=82 dv=0
EndChar

StartChar: afii10025
Encoding: 1047 1047 336
Width: 444
Flags: W
LayerCount: 2
Fore
SplineSet
112 341 m 1,0,-1
 112 408 l 1,1,-1
 130 408 l 2,2,3
 145 408 145 408 167.5 409 c 128,-1,4
 190 410 190 410 204 413 c 0,5,6
 245 423 245 423 274 455 c 128,-1,7
 303 487 303 487 303 537 c 0,8,9
 303 605 303 605 270.5 631.5 c 128,-1,10
 238 658 238 658 187 658 c 0,11,12
 147 658 147 658 116.5 651 c 128,-1,13
 86 644 86 644 67 633 c 1,14,-1
 46 695 l 1,15,16
 64 706 64 706 107 717.5 c 128,-1,17
 150 729 150 729 203 729 c 0,18,19
 238 729 238 729 270.5 721 c 128,-1,20
 303 713 303 713 328 693 c 128,-1,21
 353 673 353 673 368.5 638.5 c 128,-1,22
 384 604 384 604 384 553 c 0,23,24
 384 501 384 501 358 455.5 c 128,-1,25
 332 410 332 410 278 387 c 1,26,-1
 278 383 l 1,27,28
 335 372 335 372 368 328.5 c 128,-1,29
 401 285 401 285 401 211 c 0,30,31
 401 152 401 152 383.5 110 c 128,-1,32
 366 68 366 68 335.5 40.5 c 128,-1,33
 305 13 305 13 265 0.5 c 128,-1,34
 225 -12 225 -12 182 -12 c 0,35,36
 128 -12 128 -12 91.5 -5 c 128,-1,37
 55 2 55 2 32 14 c 1,38,-1
 52 84 l 1,39,40
 72 73 72 73 105 65.5 c 128,-1,41
 138 58 138 58 185 58 c 0,42,43
 213 58 213 58 237.5 68 c 128,-1,44
 262 78 262 78 280.5 96.5 c 128,-1,45
 299 115 299 115 310 143 c 128,-1,46
 321 171 321 171 321 208 c 0,47,48
 321 275 321 275 285.5 305 c 128,-1,49
 250 335 250 335 190 340 c 0,50,51
 180 341 180 341 172.5 341 c 128,-1,52
 165 341 165 341 154 341 c 2,53,-1
 112 341 l 1,0,-1
EndSplineSet
Position2: "'cpsp' Capital Spacing lookup 0 subtable" dx=41 dy=0 dh=82 dv=0
EndChar

StartChar: afii10026
Encoding: 1048 1048 337
Width: 557
Flags: W
LayerCount: 2
Fore
SplineSet
415 469 m 1,0,-1
 421 563 l 1,1,-1
 418 563 l 1,2,-1
 382 467 l 1,3,-1
 117 0 l 1,4,-1
 66 0 l 1,5,-1
 66 717 l 1,6,-1
 142 717 l 1,7,-1
 142 241 l 1,8,-1
 135 148 l 1,9,-1
 139 148 l 1,10,-1
 175 245 l 1,11,-1
 441 717 l 1,12,-1
 492 717 l 1,13,-1
 492 0 l 1,14,-1
 415 0 l 1,15,-1
 415 469 l 1,0,-1
EndSplineSet
Position2: "'cpsp' Capital Spacing lookup 0 subtable" dx=41 dy=0 dh=82 dv=0
EndChar

StartChar: afii10029
Encoding: 1051 1051 340
Width: 514
Flags: W
LayerCount: 2
Fore
SplineSet
372 646 m 1,0,-1
 210 646 l 1,1,2
 202 440 202 440 188.5 302 c 128,-1,3
 175 164 175 164 147 89 c 0,4,5
 130 40 130 40 104.5 17.5 c 128,-1,6
 79 -5 79 -5 46 -5 c 0,7,8
 16 -5 16 -5 -4 5 c 1,9,-1
 7 76 l 1,10,11
 27 70 27 70 44.5 78 c 128,-1,12
 62 86 62 86 78 125 c 0,13,14
 89 153 89 153 99 199.5 c 128,-1,15
 109 246 109 246 116.5 317.5 c 128,-1,16
 124 389 124 389 129 487.5 c 128,-1,17
 134 586 134 586 136 717 c 1,18,-1
 449 717 l 1,19,-1
 449 0 l 1,20,-1
 372 0 l 1,21,-1
 372 646 l 1,0,-1
EndSplineSet
Position2: "'cpsp' Capital Spacing lookup 0 subtable" dx=41 dy=0 dh=82 dv=0
EndChar

StartChar: afii10033
Encoding: 1055 1055 344
Width: 538
Flags: W
LayerCount: 2
Fore
SplineSet
396 646 m 1,0,-1
 142 646 l 1,1,-1
 142 0 l 1,2,-1
 66 0 l 1,3,-1
 66 717 l 1,4,-1
 473 717 l 1,5,-1
 473 0 l 1,6,-1
 396 0 l 1,7,-1
 396 646 l 1,0,-1
EndSplineSet
Position2: "'cpsp' Capital Spacing lookup 0 subtable" dx=41 dy=0 dh=82 dv=0
EndChar

StartChar: afii10037
Encoding: 1059 1059 348
Width: 458
Flags: W
LayerCount: 2
Fore
SplineSet
233 349 m 1,0,-1
 253 258 l 1,1,-1
 258 258 l 1,2,-1
 274 352 l 1,3,-1
 381 717 l 1,4,-1
 460 717 l 1,5,-1
 313 251 l 2,6,7
 290 179 290 179 273.5 130 c 128,-1,8
 257 81 257 81 240 51.5 c 128,-1,9
 223 22 223 22 202.5 8.5 c 128,-1,10
 182 -5 182 -5 153 -5 c 0,11,12
 126 -5 126 -5 108.5 0 c 128,-1,13
 91 5 91 5 76 16 c 1,14,-1
 98 82 l 1,15,16
 114 71 114 71 127.5 68.5 c 128,-1,17
 141 66 141 66 153 66 c 0,18,19
 176 66 176 66 191 97 c 128,-1,20
 206 128 206 128 217 185 c 1,21,-1
 3 717 l 1,22,-1
 93 717 l 1,23,-1
 233 349 l 1,0,-1
EndSplineSet
Position2: "'cpsp' Capital Spacing lookup 0 subtable" dx=41 dy=0 dh=82 dv=0
EndChar

StartChar: afii10038
Encoding: 1060 1060 349
Width: 648
Flags: W
LayerCount: 2
Fore
SplineSet
286 80 m 1,0,1
 272 77 272 77 252 76 c 128,-1,2
 232 75 232 75 215 75 c 0,3,4
 175 75 175 75 142 90 c 128,-1,5
 109 105 109 105 84 139.5 c 128,-1,6
 59 174 59 174 45.5 228 c 128,-1,7
 32 282 32 282 32 358 c 0,8,9
 32 502 32 502 85.5 577.5 c 128,-1,10
 139 653 139 653 231 653 c 0,11,12
 242 653 242 653 259 652 c 128,-1,13
 276 651 276 651 286 649 c 1,14,-1
 286 737 l 1,15,-1
 362 737 l 1,16,-1
 362 646 l 1,17,18
 376 651 376 651 398 652 c 128,-1,19
 420 653 420 653 433 653 c 0,20,21
 473 653 473 653 507 636.5 c 128,-1,22
 541 620 541 620 565.5 585 c 128,-1,23
 590 550 590 550 603 496 c 128,-1,24
 616 442 616 442 616 369 c 0,25,26
 616 293 616 293 601 237.5 c 128,-1,27
 586 182 586 182 559 146.5 c 128,-1,28
 532 111 532 111 496 93 c 128,-1,29
 460 75 460 75 419 75 c 0,30,31
 410 75 410 75 391.5 76.5 c 128,-1,32
 373 78 373 78 362 82 c 1,33,-1
 362 -20 l 1,34,-1
 286 -20 l 1,35,-1
 286 80 l 1,0,1
420 587 m 0,36,37
 409 587 409 587 390.5 586 c 128,-1,38
 372 585 372 585 360 580 c 1,39,-1
 360 144 l 1,40,41
 368 142 368 142 382.5 141.5 c 128,-1,42
 397 141 397 141 409 141 c 0,43,44
 466 141 466 141 502 197 c 128,-1,45
 538 253 538 253 538 369 c 0,46,47
 538 418 538 418 530 458 c 128,-1,48
 522 498 522 498 507.5 526.5 c 128,-1,49
 493 555 493 555 471 571 c 128,-1,50
 449 587 449 587 420 587 c 0,36,37
231 141 m 0,51,52
 240 141 240 141 258 141.5 c 128,-1,53
 276 142 276 142 288 147 c 1,54,-1
 288 583 l 1,55,56
 278 585 278 585 263.5 586 c 128,-1,57
 249 587 249 587 238 587 c 0,58,59
 182 587 182 587 146.5 530.5 c 128,-1,60
 111 474 111 474 111 358 c 0,61,62
 111 257 111 257 142 199 c 128,-1,63
 173 141 173 141 231 141 c 0,51,52
EndSplineSet
Position2: "'cpsp' Capital Spacing lookup 0 subtable" dx=41 dy=0 dh=82 dv=0
EndChar

StartChar: afii10040
Encoding: 1062 1062 351
Width: 564
Flags: W
LayerCount: 2
Fore
SplineSet
543 -132 m 1,0,-1
 489 -132 l 1,1,-1
 476 0 l 1,2,-1
 66 0 l 1,3,-1
 66 717 l 1,4,-1
 142 717 l 1,5,-1
 142 71 l 1,6,-1
 390 71 l 1,7,-1
 390 717 l 1,8,-1
 467 717 l 1,9,-1
 467 71 l 1,10,-1
 543 71 l 1,11,-1
 543 -132 l 1,0,-1
EndSplineSet
Position2: "'cpsp' Capital Spacing lookup 0 subtable" dx=41 dy=0 dh=82 dv=0
EndChar

StartChar: afii10041
Encoding: 1063 1063 352
Width: 498
Flags: W
LayerCount: 2
Fore
SplineSet
133 717 m 1,0,-1
 133 467 l 2,1,2
 133 392 133 392 158.5 363 c 128,-1,3
 184 334 184 334 233 334 c 0,4,5
 269 334 269 334 302.5 347 c 128,-1,6
 336 360 336 360 356 382 c 1,7,-1
 356 717 l 1,8,-1
 433 717 l 1,9,-1
 433 0 l 1,10,-1
 356 0 l 1,11,-1
 356 307 l 1,12,13
 336 292 336 292 299 277.5 c 128,-1,14
 262 263 262 263 217 263 c 0,15,16
 184 263 184 263 155 271.5 c 128,-1,17
 126 280 126 280 104 301 c 128,-1,18
 82 322 82 322 69 357.5 c 128,-1,19
 56 393 56 393 56 450 c 2,20,-1
 56 717 l 1,21,-1
 133 717 l 1,0,-1
EndSplineSet
Position2: "'cpsp' Capital Spacing lookup 0 subtable" dx=41 dy=0 dh=82 dv=0
EndChar

StartChar: afii10042
Encoding: 1064 1064 353
Width: 715
Flags: W
LayerCount: 2
Fore
SplineSet
66 0 m 1,0,-1
 66 717 l 1,1,-1
 142 717 l 1,2,-1
 142 71 l 1,3,-1
 319 71 l 1,4,-1
 319 717 l 1,5,-1
 396 717 l 1,6,-1
 396 71 l 1,7,-1
 573 71 l 1,8,-1
 573 717 l 1,9,-1
 650 717 l 1,10,-1
 650 0 l 1,11,-1
 66 0 l 1,0,-1
EndSplineSet
Position2: "'cpsp' Capital Spacing lookup 0 subtable" dx=41 dy=0 dh=82 dv=0
EndChar

StartChar: afii10043
Encoding: 1065 1065 354
Width: 748
Flags: W
LayerCount: 2
Fore
SplineSet
66 0 m 1,0,-1
 66 717 l 1,1,-1
 142 717 l 1,2,-1
 142 71 l 1,3,-1
 319 71 l 1,4,-1
 319 717 l 1,5,-1
 396 717 l 1,6,-1
 396 71 l 1,7,-1
 573 71 l 1,8,-1
 573 717 l 1,9,-1
 650 717 l 1,10,-1
 650 71 l 1,11,-1
 727 71 l 1,12,-1
 727 -132 l 1,13,-1
 673 -132 l 1,14,-1
 660 0 l 1,15,-1
 66 0 l 1,0,-1
EndSplineSet
Position2: "'cpsp' Capital Spacing lookup 0 subtable" dx=41 dy=0 dh=82 dv=0
EndChar

StartChar: afii10044
Encoding: 1066 1066 355
Width: 525
Flags: W
LayerCount: 2
Fore
SplineSet
131 646 m 1,0,-1
 -1 646 l 1,1,-1
 -1 717 l 1,2,-1
 208 717 l 1,3,-1
 208 438 l 1,4,5
 214 439 214 439 224 441 c 128,-1,6
 234 443 234 443 246 444 c 128,-1,7
 258 445 258 445 270.5 446 c 128,-1,8
 283 447 283 447 292 447 c 0,9,10
 332 447 332 447 369.5 437.5 c 128,-1,11
 407 428 407 428 435.5 403.5 c 128,-1,12
 464 379 464 379 481.5 337.5 c 128,-1,13
 499 296 499 296 499 231 c 0,14,15
 499 168 499 168 482.5 123 c 128,-1,16
 466 78 466 78 436.5 48.5 c 128,-1,17
 407 19 407 19 365 5.5 c 128,-1,18
 323 -8 323 -8 271 -8 c 0,19,20
 260 -8 260 -8 242.5 -7.5 c 128,-1,21
 225 -7 225 -7 206 -5.5 c 128,-1,22
 187 -4 187 -4 167 -1.5 c 128,-1,23
 147 1 147 1 131 6 c 1,24,-1
 131 646 l 1,0,-1
280 62 m 0,25,26
 341 62 341 62 379.5 101 c 128,-1,27
 418 140 418 140 418 225 c 0,28,29
 418 270 418 270 406.5 300 c 128,-1,30
 395 330 395 330 376 347 c 128,-1,31
 357 364 357 364 331.5 370.5 c 128,-1,32
 306 377 306 377 279 377 c 0,33,34
 272 377 272 377 261 376 c 128,-1,35
 250 375 250 375 239.5 374 c 128,-1,36
 229 373 229 373 220.5 371 c 128,-1,37
 212 369 212 369 208 368 c 1,38,-1
 208 69 l 1,39,40
 219 66 219 66 240 64 c 128,-1,41
 261 62 261 62 280 62 c 0,25,26
EndSplineSet
Position2: "'cpsp' Capital Spacing lookup 0 subtable" dx=41 dy=0 dh=82 dv=0
EndChar

StartChar: afii10045
Encoding: 1067 1067 356
Width: 636
Flags: W
LayerCount: 2
Fore
SplineSet
495 717 m 1,0,-1
 571 717 l 1,1,-1
 571 0 l 1,2,-1
 495 0 l 1,3,-1
 495 717 l 1,0,-1
66 717 m 1,4,-1
 142 717 l 1,5,-1
 142 438 l 1,6,7
 151 440 151 440 173 443.5 c 128,-1,8
 195 447 195 447 215 447 c 0,9,10
 255 447 255 447 291.5 438 c 128,-1,11
 328 429 328 429 355.5 405 c 128,-1,12
 383 381 383 381 399.5 339 c 128,-1,13
 416 297 416 297 416 232 c 0,14,15
 416 107 416 107 358 49.5 c 128,-1,16
 300 -8 300 -8 197 -8 c 0,17,18
 173 -8 173 -8 135.5 -5.5 c 128,-1,19
 98 -3 98 -3 66 6 c 1,20,-1
 66 717 l 1,4,-1
204 62 m 0,21,22
 265 62 265 62 300 102 c 128,-1,23
 335 142 335 142 335 225 c 0,24,25
 335 270 335 270 324.5 299.5 c 128,-1,26
 314 329 314 329 296.5 346.5 c 128,-1,27
 279 364 279 364 254 370.5 c 128,-1,28
 229 377 229 377 201 377 c 0,29,30
 187 377 187 377 169 374 c 128,-1,31
 151 371 151 371 142 368 c 1,32,-1
 142 70 l 1,33,34
 163 62 163 62 204 62 c 0,21,22
EndSplineSet
Position2: "'cpsp' Capital Spacing lookup 0 subtable" dx=41 dy=0 dh=82 dv=0
EndChar

StartChar: afii10046
Encoding: 1068 1068 357
Width: 459
Flags: W
LayerCount: 2
Fore
SplineSet
66 717 m 1,0,-1
 142 717 l 1,1,-1
 142 438 l 1,2,3
 154 441 154 441 180.5 444 c 128,-1,4
 207 447 207 447 226 447 c 0,5,6
 267 447 267 447 304.5 437.5 c 128,-1,7
 342 428 342 428 370.5 403.5 c 128,-1,8
 399 379 399 379 416 337.5 c 128,-1,9
 433 296 433 296 433 232 c 0,10,11
 433 170 433 170 417 125 c 128,-1,12
 401 80 401 80 371.5 50 c 128,-1,13
 342 20 342 20 300 6 c 128,-1,14
 258 -8 258 -8 206 -8 c 0,15,16
 195 -8 195 -8 177.5 -7.5 c 128,-1,17
 160 -7 160 -7 141 -5.5 c 128,-1,18
 122 -4 122 -4 102 -1.5 c 128,-1,19
 82 1 82 1 66 6 c 1,20,-1
 66 717 l 1,0,-1
214 62 m 0,21,22
 276 62 276 62 314 102 c 128,-1,23
 352 142 352 142 352 225 c 0,24,25
 352 269 352 269 341.5 298.5 c 128,-1,26
 331 328 331 328 312 345 c 128,-1,27
 293 362 293 362 267.5 369.5 c 128,-1,28
 242 377 242 377 213 377 c 0,29,30
 206 377 206 377 195.5 376 c 128,-1,31
 185 375 185 375 174.5 374 c 128,-1,32
 164 373 164 373 155 371 c 128,-1,33
 146 369 146 369 142 368 c 1,34,-1
 142 69 l 1,35,36
 154 66 154 66 174.5 64 c 128,-1,37
 195 62 195 62 214 62 c 0,21,22
EndSplineSet
Position2: "'cpsp' Capital Spacing lookup 0 subtable" dx=41 dy=0 dh=82 dv=0
EndChar

StartChar: afii10047
Encoding: 1069 1069 358
Width: 476
Flags: W
LayerCount: 2
Fore
SplineSet
121 399 m 1,0,-1
 355 399 l 1,1,2
 350 529 350 529 300.5 593.5 c 128,-1,3
 251 658 251 658 173 658 c 0,4,5
 134 658 134 658 104.5 649 c 128,-1,6
 75 640 75 640 53 627 c 1,7,-1
 31 690 l 1,8,9
 60 708 60 708 99 718.5 c 128,-1,10
 138 729 138 729 181 729 c 0,11,12
 237 729 237 729 283.5 709 c 128,-1,13
 330 689 330 689 362.5 645 c 128,-1,14
 395 601 395 601 413.5 530.5 c 128,-1,15
 432 460 432 460 432 359 c 256,16,17
 432 258 432 258 411.5 187 c 128,-1,18
 391 116 391 116 355 72 c 128,-1,19
 319 28 319 28 271 8 c 128,-1,20
 223 -12 223 -12 167 -12 c 0,21,22
 125 -12 125 -12 90.5 -5 c 128,-1,23
 56 2 56 2 33 13 c 1,24,-1
 54 83 l 1,25,26
 73 73 73 73 105 65.5 c 128,-1,27
 137 58 137 58 171 58 c 0,28,29
 206 58 206 58 238 73 c 128,-1,30
 270 88 270 88 296 120.5 c 128,-1,31
 322 153 322 153 337.5 204.5 c 128,-1,32
 353 256 353 256 355 331 c 1,33,-1
 121 331 l 1,34,-1
 121 399 l 1,0,-1
EndSplineSet
Position2: "'cpsp' Capital Spacing lookup 0 subtable" dx=41 dy=0 dh=82 dv=0
EndChar

StartChar: afii10048
Encoding: 1070 1070 359
Width: 736
Flags: W
LayerCount: 2
Fore
SplineSet
142 401 m 1,0,-1
 240 401 l 1,1,2
 245 560 245 560 300 644.5 c 128,-1,3
 355 729 355 729 467 729 c 0,4,5
 529 729 529 729 572.5 703 c 128,-1,6
 616 677 616 677 642.5 629 c 128,-1,7
 669 581 669 581 680.5 512 c 128,-1,8
 692 443 692 443 692 358 c 0,9,10
 692 177 692 177 638.5 82.5 c 128,-1,11
 585 -12 585 -12 466 -12 c 0,12,13
 406 -12 406 -12 364 12 c 128,-1,14
 322 36 322 36 294 81 c 128,-1,15
 266 126 266 126 253 189 c 128,-1,16
 240 252 240 252 239 331 c 1,17,-1
 142 331 l 1,18,-1
 142 0 l 1,19,-1
 66 0 l 1,20,-1
 66 717 l 1,21,-1
 142 717 l 1,22,-1
 142 401 l 1,0,-1
317 358 m 0,23,24
 317 298 317 298 325 243.5 c 128,-1,25
 333 189 333 189 350.5 147.5 c 128,-1,26
 368 106 368 106 396.5 82 c 128,-1,27
 425 58 425 58 467 58 c 0,28,29
 544 58 544 58 577.5 131.5 c 128,-1,30
 611 205 611 205 611 358 c 0,31,32
 611 417 611 417 604.5 472 c 128,-1,33
 598 527 598 527 581.5 568 c 128,-1,34
 565 609 565 609 537.5 633.5 c 128,-1,35
 510 658 510 658 467 658 c 0,36,37
 390 658 390 658 353.5 584.5 c 128,-1,38
 317 511 317 511 317 358 c 0,23,24
EndSplineSet
Position2: "'cpsp' Capital Spacing lookup 0 subtable" dx=41 dy=0 dh=82 dv=0
EndChar

StartChar: afii10049
Encoding: 1071 1071 360
Width: 472
Flags: W
LayerCount: 2
Fore
SplineSet
407 0 m 1,0,-1
 330 0 l 1,1,-1
 330 314 l 1,2,-1
 248 293 l 1,3,-1
 109 0 l 1,4,-1
 19 0 l 1,5,-1
 145 259 l 1,6,-1
 195 302 l 1,7,8
 136 317 136 317 98 368 c 128,-1,9
 60 419 60 419 60 508 c 0,10,11
 60 571 60 571 77.5 613 c 128,-1,12
 95 655 95 655 125 680.5 c 128,-1,13
 155 706 155 706 194.5 715.5 c 128,-1,14
 234 725 234 725 280 725 c 0,15,16
 308 725 308 725 342 722 c 128,-1,17
 376 719 376 719 407 710 c 1,18,-1
 407 0 l 1,0,-1
273 654 m 0,19,20
 246 654 246 654 223 647.5 c 128,-1,21
 200 641 200 641 181.5 624 c 128,-1,22
 163 607 163 607 152 579 c 128,-1,23
 141 551 141 551 141 508 c 0,24,25
 141 429 141 429 179 394 c 128,-1,26
 217 359 217 359 274 359 c 2,27,-1
 330 359 l 1,28,-1
 330 648 l 1,29,30
 319 652 319 652 305 653 c 128,-1,31
 291 654 291 654 273 654 c 0,19,20
EndSplineSet
Position2: "'cpsp' Capital Spacing lookup 0 subtable" dx=41 dy=0 dh=82 dv=0
EndChar

StartChar: afii10066
Encoding: 1073 1073 362
Width: 442
Flags: W
LayerCount: 2
Fore
SplineSet
104 425 m 1,0,1
 131 473 131 473 164 491.5 c 128,-1,2
 197 510 197 510 246 510 c 0,3,4
 322 510 322 510 363 450.5 c 128,-1,5
 404 391 404 391 404 267 c 0,6,7
 404 125 404 125 356 56.5 c 128,-1,8
 308 -12 308 -12 222 -12 c 0,9,10
 176 -12 176 -12 142 6 c 128,-1,11
 108 24 108 24 84.5 62 c 128,-1,12
 61 100 61 100 49.5 161.5 c 128,-1,13
 38 223 38 223 38 310 c 0,14,15
 38 398 38 398 45.5 460.5 c 128,-1,16
 53 523 53 523 67 566 c 128,-1,17
 81 609 81 609 100.5 634.5 c 128,-1,18
 120 660 120 660 144.5 675 c 128,-1,19
 169 690 169 690 198 696 c 128,-1,20
 227 702 227 702 260 707 c 0,21,22
 303 712 303 712 328.5 719 c 128,-1,23
 354 726 354 726 370 743 c 1,24,-1
 375 671 l 1,25,26
 367 663 367 663 356.5 657 c 128,-1,27
 346 651 346 651 331.5 647 c 128,-1,28
 317 643 317 643 298.5 640.5 c 128,-1,29
 280 638 280 638 254 636 c 0,30,31
 219 633 219 633 193 622.5 c 128,-1,32
 167 612 167 612 148 589 c 128,-1,33
 129 566 129 566 117.5 526 c 128,-1,34
 106 486 106 486 102 425 c 1,35,-1
 104 425 l 1,0,1
115 255 m 0,36,37
 115 213 115 213 121 176.5 c 128,-1,38
 127 140 127 140 140.5 113 c 128,-1,39
 154 86 154 86 174 70 c 128,-1,40
 194 54 194 54 221 54 c 0,41,42
 274 54 274 54 301 104.5 c 128,-1,43
 328 155 328 155 328 260 c 0,44,45
 328 344 328 344 305.5 393.5 c 128,-1,46
 283 443 283 443 231 443 c 0,47,48
 171 443 171 443 143 394 c 128,-1,49
 115 345 115 345 115 255 c 0,36,37
EndSplineSet
EndChar

StartChar: afii10067
Encoding: 1074 1074 363
Width: 412
Flags: W
LayerCount: 2
Fore
SplineSet
60 511 m 1,0,1
 89 513 89 513 123 516 c 128,-1,2
 157 519 157 519 204 519 c 0,3,4
 287 519 287 519 322.5 488 c 128,-1,5
 358 457 358 457 358 393 c 0,6,7
 358 357 358 357 341.5 323.5 c 128,-1,8
 325 290 325 290 285 272 c 1,9,-1
 285 268 l 1,10,11
 334 257 334 257 354.5 227 c 128,-1,12
 375 197 375 197 375 144 c 0,13,14
 375 64 375 64 328 28.5 c 128,-1,15
 281 -7 281 -7 187 -7 c 0,16,17
 152 -7 152 -7 120.5 -4.5 c 128,-1,18
 89 -2 89 -2 60 1 c 1,19,-1
 60 511 l 1,0,1
134 63 m 1,20,21
 149 61 149 61 163 60 c 128,-1,22
 177 59 177 59 198 59 c 0,23,24
 250 59 250 59 274 80.5 c 128,-1,25
 298 102 298 102 298 151 c 0,26,27
 298 188 298 188 277.5 212 c 128,-1,28
 257 236 257 236 203 236 c 2,29,-1
 134 236 l 1,30,-1
 134 63 l 1,20,21
210 294 m 2,31,32
 224 294 224 294 237.5 300.5 c 128,-1,33
 251 307 251 307 261.5 318.5 c 128,-1,34
 272 330 272 330 278.5 344.5 c 128,-1,35
 285 359 285 359 285 376 c 0,36,37
 285 416 285 416 266 434.5 c 128,-1,38
 247 453 247 453 201 453 c 0,39,40
 176 453 176 453 161.5 452 c 128,-1,41
 147 451 147 451 134 450 c 1,42,-1
 134 294 l 1,43,-1
 210 294 l 2,31,32
EndSplineSet
EndChar

StartChar: afii10068
Encoding: 1075 1075 364
Width: 303
Flags: W
LayerCount: 2
Fore
SplineSet
304 445 m 1,0,-1
 134 445 l 1,1,-1
 134 0 l 1,2,-1
 60 0 l 1,3,-1
 60 512 l 1,4,-1
 304 512 l 1,5,-1
 304 445 l 1,0,-1
EndSplineSet
EndChar

StartChar: afii10069
Encoding: 1076 1076 365
Width: 449
Flags: W
LayerCount: 2
Fore
SplineSet
433 -130 m 1,0,-1
 382 -130 l 1,1,-1
 370 0 l 1,2,-1
 67 0 l 1,3,-1
 53 -130 l 1,4,-1
 3 -130 l 1,5,-1
 3 67 l 1,6,-1
 51 67 l 1,7,8
 57 78 57 78 68 108 c 128,-1,9
 79 138 79 138 89 192 c 128,-1,10
 99 246 99 246 107 324.5 c 128,-1,11
 115 403 115 403 116 512 c 1,12,-1
 373 512 l 1,13,-1
 373 67 l 1,14,-1
 433 67 l 1,15,-1
 433 -130 l 1,0,-1
299 67 m 1,16,-1
 299 445 l 1,17,-1
 183 445 l 1,18,19
 181 401 181 401 177.5 349 c 128,-1,20
 174 297 174 297 167 245.5 c 128,-1,21
 160 194 160 194 149.5 146.5 c 128,-1,22
 139 99 139 99 126 67 c 1,23,-1
 299 67 l 1,16,-1
EndSplineSet
EndChar

StartChar: afii10072
Encoding: 1078 1078 367
Width: 549
Flags: W
LayerCount: 2
Fore
SplineSet
198 226 m 1,0,-1
 83 0 l 1,1,-1
 0 0 l 1,2,-1
 126 234 l 1,3,-1
 154 265 l 1,4,-1
 112 304 l 1,5,-1
 9 512 l 1,6,-1
 87 512 l 1,7,-1
 194 291 l 1,8,-1
 236 291 l 1,9,-1
 236 512 l 1,10,-1
 309 512 l 1,11,-1
 309 281 l 1,12,-1
 347 295 l 1,13,-1
 454 512 l 1,14,-1
 530 512 l 1,15,-1
 423 304 l 1,16,-1
 390 271 l 1,17,-1
 432 230 l 1,18,-1
 550 0 l 1,19,-1
 465 0 l 1,20,-1
 350 230 l 1,21,-1
 309 230 l 1,22,-1
 309 0 l 1,23,-1
 236 0 l 1,24,-1
 236 241 l 1,25,-1
 198 226 l 1,0,-1
EndSplineSet
EndChar

StartChar: afii10073
Encoding: 1079 1079 368
Width: 359
Flags: W
LayerCount: 2
Fore
SplineSet
99 229 m 1,0,-1
 99 293 l 1,1,-1
 156 293 l 2,2,3
 170 293 170 293 184 299.5 c 128,-1,4
 198 306 198 306 208.5 317.5 c 128,-1,5
 219 329 219 329 225.5 343.5 c 128,-1,6
 232 358 232 358 232 375 c 0,7,8
 232 415 232 415 211 433.5 c 128,-1,9
 190 452 190 452 147 452 c 0,10,11
 115 452 115 452 89 442.5 c 128,-1,12
 63 433 63 433 49 423 c 1,13,-1
 28 481 l 1,14,15
 54 497 54 497 88 507.5 c 128,-1,16
 122 518 122 518 166 518 c 0,17,18
 234 518 234 518 270 487 c 128,-1,19
 306 456 306 456 306 393 c 0,20,21
 306 354 306 354 286.5 321.5 c 128,-1,22
 267 289 267 289 233 274 c 1,23,-1
 233 270 l 1,24,25
 280 259 280 259 301 227.5 c 128,-1,26
 322 196 322 196 322 143 c 0,27,28
 322 78 322 78 279 35 c 128,-1,29
 236 -8 236 -8 146 -8 c 0,30,31
 105 -8 105 -8 77 -0.5 c 128,-1,32
 49 7 49 7 27 19 c 1,33,-1
 46 83 l 1,34,35
 65 71 65 71 92 64.5 c 128,-1,36
 119 58 119 58 147 58 c 0,37,38
 197 58 197 58 222.5 81.5 c 128,-1,39
 248 105 248 105 248 150 c 0,40,41
 248 187 248 187 224.5 208 c 128,-1,42
 201 229 201 229 145 229 c 2,43,-1
 99 229 l 1,0,-1
EndSplineSet
EndChar

StartChar: afii10074
Encoding: 1080 1080 369
Width: 449
Flags: W
LayerCount: 2
Fore
SplineSet
315 295 m 1,0,-1
 322 373 l 1,1,-1
 317 373 l 1,2,-1
 282 287 l 1,3,-1
 109 0 l 1,4,-1
 60 0 l 1,5,-1
 60 512 l 1,6,-1
 134 512 l 1,7,-1
 134 208 l 1,8,-1
 128 133 l 1,9,-1
 132 133 l 1,10,-1
 166 217 l 1,11,-1
 341 512 l 1,12,-1
 389 512 l 1,13,-1
 389 0 l 1,14,-1
 315 0 l 1,15,-1
 315 295 l 1,0,-1
EndSplineSet
EndChar

StartChar: afii10076
Encoding: 1082 1082 371
Width: 396
Flags: W
LayerCount: 2
Fore
SplineSet
172 230 m 1,0,-1
 134 230 l 1,1,-1
 134 0 l 1,2,-1
 60 0 l 1,3,-1
 60 512 l 1,4,-1
 134 512 l 1,5,-1
 134 281 l 1,6,-1
 169 295 l 1,7,-1
 294 512 l 1,8,-1
 373 512 l 1,9,-1
 251 306 l 1,10,-1
 215 272 l 1,11,-1
 259 231 l 1,12,-1
 390 0 l 1,13,-1
 302 0 l 1,14,-1
 172 230 l 1,0,-1
EndSplineSet
EndChar

StartChar: afii10077
Encoding: 1083 1083 372
Width: 416
Flags: W
LayerCount: 2
Fore
SplineSet
283 445 m 1,0,-1
 171 445 l 1,1,2
 168 358 168 358 163 277 c 128,-1,3
 158 196 158 196 145 133.5 c 128,-1,4
 132 71 132 71 108.5 33.5 c 128,-1,5
 85 -4 85 -4 46 -4 c 0,6,7
 29 -4 29 -4 16.5 -2 c 128,-1,8
 4 0 4 0 -6 5 c 1,9,-1
 5 70 l 1,10,11
 27 64 27 64 43.5 72.5 c 128,-1,12
 60 81 60 81 72.5 125.5 c 128,-1,13
 85 170 85 170 92.5 261.5 c 128,-1,14
 100 353 100 353 103 512 c 1,15,-1
 356 512 l 1,16,-1
 356 0 l 1,17,-1
 283 0 l 1,18,-1
 283 445 l 1,0,-1
EndSplineSet
EndChar

StartChar: afii10078
Encoding: 1084 1084 373
Width: 534
Flags: W
LayerCount: 2
Fore
SplineSet
400 304 m 1,0,-1
 408 401 l 1,1,-1
 403 401 l 1,2,-1
 373 314 l 1,3,-1
 278 118 l 1,4,-1
 251 118 l 1,5,-1
 152 314 l 1,6,-1
 124 401 l 1,7,-1
 119 401 l 1,8,-1
 127 305 l 1,9,-1
 127 0 l 1,10,-1
 60 0 l 1,11,-1
 60 512 l 1,12,-1
 134 512 l 1,13,-1
 246 290 l 1,14,-1
 268 223 l 1,15,-1
 270 223 l 1,16,-1
 295 292 l 1,17,-1
 398 512 l 1,18,-1
 474 512 l 1,19,-1
 474 0 l 1,20,-1
 400 0 l 1,21,-1
 400 304 l 1,0,-1
EndSplineSet
EndChar

StartChar: afii10079
Encoding: 1085 1085 374
Width: 444
Flags: W
LayerCount: 2
Fore
SplineSet
311 228 m 1,0,-1
 134 228 l 1,1,-1
 134 0 l 1,2,-1
 60 0 l 1,3,-1
 60 512 l 1,4,-1
 134 512 l 1,5,-1
 134 295 l 1,6,-1
 311 295 l 1,7,-1
 311 512 l 1,8,-1
 385 512 l 1,9,-1
 385 0 l 1,10,-1
 311 0 l 1,11,-1
 311 228 l 1,0,-1
EndSplineSet
EndChar

StartChar: afii10081
Encoding: 1087 1087 376
Width: 440
Flags: W
LayerCount: 2
Fore
SplineSet
306 445 m 1,0,-1
 134 445 l 1,1,-1
 134 0 l 1,2,-1
 60 0 l 1,3,-1
 60 512 l 1,4,-1
 380 512 l 1,5,-1
 380 0 l 1,6,-1
 306 0 l 1,7,-1
 306 445 l 1,0,-1
EndSplineSet
EndChar

StartChar: afii10084
Encoding: 1090 1090 379
Width: 327
Flags: W
LayerCount: 2
Fore
SplineSet
327 445 m 1,0,-1
 201 445 l 1,1,-1
 201 0 l 1,2,-1
 127 0 l 1,3,-1
 127 445 l 1,4,-1
 1 445 l 1,5,-1
 1 512 l 1,6,-1
 327 512 l 1,7,-1
 327 445 l 1,0,-1
EndSplineSet
EndChar

StartChar: afii10086
Encoding: 1092 1092 381
Width: 563
Flags: W
LayerCount: 2
Fore
SplineSet
246 -4 m 1,0,1
 232 -10 232 -10 217 -11 c 128,-1,2
 202 -12 202 -12 189 -12 c 0,3,4
 113 -12 113 -12 73.5 52 c 128,-1,5
 34 116 34 116 34 256 c 0,6,7
 34 392 34 392 78.5 456 c 128,-1,8
 123 520 123 520 206 520 c 0,9,10
 230 520 230 520 246 516 c 1,11,-1
 246 717 l 1,12,-1
 317 717 l 1,13,-1
 317 515 l 1,14,15
 331 518 331 518 343 519 c 128,-1,16
 355 520 355 520 366 520 c 0,17,18
 407 520 407 520 437.5 507 c 128,-1,19
 468 494 468 494 488.5 464 c 128,-1,20
 509 434 509 434 519 385.5 c 128,-1,21
 529 337 529 337 529 266 c 0,22,23
 529 128 529 128 485.5 58 c 128,-1,24
 442 -12 442 -12 362 -12 c 0,25,26
 354 -12 354 -12 340 -10.5 c 128,-1,27
 326 -9 326 -9 317 -5 c 1,28,-1
 317 -205 l 1,29,-1
 246 -205 l 1,30,-1
 246 -4 l 1,0,1
351 457 m 0,31,32
 341 457 341 457 334 456.5 c 128,-1,33
 327 456 327 456 315 452 c 1,34,-1
 315 54 l 1,35,36
 323 52 323 52 333 51.5 c 128,-1,37
 343 51 343 51 355 51 c 0,38,39
 455 51 455 51 456 266 c 0,40,41
 456 360 456 360 432.5 408.5 c 128,-1,42
 409 457 409 457 351 457 c 0,31,32
208 51 m 0,43,44
 218 51 218 51 227.5 52 c 128,-1,45
 237 53 237 53 248 56 c 1,46,-1
 248 453 l 1,47,48
 231 457 231 457 210 457 c 0,49,50
 162 457 162 457 135 410.5 c 128,-1,51
 108 364 108 364 108 256 c 0,52,53
 108 162 108 162 132 106.5 c 128,-1,54
 156 51 156 51 208 51 c 0,43,44
EndSplineSet
EndChar

StartChar: afii10088
Encoding: 1094 1094 383
Width: 452
Flags: W
LayerCount: 2
Fore
SplineSet
436 -130 m 1,0,-1
 385 -130 l 1,1,-1
 373 0 l 1,2,-1
 60 0 l 1,3,-1
 60 512 l 1,4,-1
 134 512 l 1,5,-1
 134 67 l 1,6,-1
 303 67 l 1,7,-1
 303 512 l 1,8,-1
 377 512 l 1,9,-1
 377 67 l 1,10,-1
 436 67 l 1,11,-1
 436 -130 l 1,0,-1
EndSplineSet
EndChar

StartChar: afii10089
Encoding: 1095 1095 384
Width: 405
Flags: W
LayerCount: 2
Fore
SplineSet
111 512 m 1,0,-1
 111 362 l 2,1,2
 111 336 111 336 113.5 316 c 128,-1,3
 116 296 116 296 123 281 c 128,-1,4
 130 266 130 266 143.5 258.5 c 128,-1,5
 157 251 157 251 178 251 c 0,6,7
 214 251 214 251 236.5 260 c 128,-1,8
 259 269 259 269 271 281 c 1,9,-1
 271 512 l 1,10,-1
 345 512 l 1,11,-1
 345 0 l 1,12,-1
 271 0 l 1,13,-1
 271 215 l 1,14,15
 259 206 259 206 233 195 c 128,-1,16
 207 184 207 184 163 184 c 0,17,18
 133 184 133 184 109.5 192 c 128,-1,19
 86 200 86 200 70 217 c 128,-1,20
 54 234 54 234 45.5 264 c 128,-1,21
 37 294 37 294 37 339 c 2,22,-1
 37 512 l 1,23,-1
 111 512 l 1,0,-1
EndSplineSet
EndChar

StartChar: afii10090
Encoding: 1096 1096 385
Width: 608
Flags: W
LayerCount: 2
Fore
SplineSet
60 0 m 1,0,-1
 60 512 l 1,1,-1
 134 512 l 1,2,-1
 134 67 l 1,3,-1
 267 67 l 1,4,-1
 267 512 l 1,5,-1
 341 512 l 1,6,-1
 341 67 l 1,7,-1
 474 67 l 1,8,-1
 474 512 l 1,9,-1
 548 512 l 1,10,-1
 548 0 l 1,11,-1
 60 0 l 1,0,-1
EndSplineSet
EndChar

StartChar: afii10091
Encoding: 1097 1097 386
Width: 623
Flags: W
LayerCount: 2
Fore
SplineSet
607 -130 m 1,0,-1
 556 -130 l 1,1,-1
 544 0 l 1,2,-1
 60 0 l 1,3,-1
 60 512 l 1,4,-1
 134 512 l 1,5,-1
 134 67 l 1,6,-1
 267 67 l 1,7,-1
 267 512 l 1,8,-1
 341 512 l 1,9,-1
 341 67 l 1,10,-1
 474 67 l 1,11,-1
 474 512 l 1,12,-1
 548 512 l 1,13,-1
 548 67 l 1,14,-1
 607 67 l 1,15,-1
 607 -130 l 1,0,-1
EndSplineSet
EndChar

StartChar: afii10092
Encoding: 1098 1098 387
Width: 416
Flags: W
LayerCount: 2
Fore
SplineSet
164 67 m 1,0,1
 178 64 178 64 193 62 c 128,-1,2
 208 60 208 60 220 60 c 0,3,4
 270 60 270 60 293 85.5 c 128,-1,5
 316 111 316 111 316 162 c 0,6,7
 316 208 316 208 293.5 234 c 128,-1,8
 271 260 271 260 222 260 c 0,9,10
 209 260 209 260 193.5 258.5 c 128,-1,11
 178 257 178 257 164 253 c 1,12,-1
 164 67 l 1,0,1
164 316 m 1,13,14
 183 320 183 320 202 322 c 128,-1,15
 221 324 221 324 238 324 c 0,16,17
 281 324 281 324 310.5 312 c 128,-1,18
 340 300 340 300 358.5 279.5 c 128,-1,19
 377 259 377 259 385 231 c 128,-1,20
 393 203 393 203 393 171 c 0,21,22
 393 78 393 78 348.5 36 c 128,-1,23
 304 -6 304 -6 205 -6 c 0,24,25
 147 -6 147 -6 90 0 c 1,26,-1
 90 445 l 1,27,-1
 0 445 l 1,28,-1
 0 512 l 1,29,-1
 164 512 l 1,30,-1
 164 316 l 1,13,14
EndSplineSet
EndChar

StartChar: afii10093
Encoding: 1099 1099 388
Width: 550
Flags: W
LayerCount: 2
Fore
SplineSet
134 67 m 1,0,1
 165 61 165 61 190 60 c 0,2,3
 239 60 239 60 259 86.5 c 128,-1,4
 279 113 279 113 279 162 c 0,5,6
 279 208 279 208 260 234 c 128,-1,7
 241 260 241 260 193 260 c 0,8,9
 180 260 180 260 164 258.5 c 128,-1,10
 148 257 148 257 134 253 c 1,11,-1
 134 67 l 1,0,1
134 316 m 1,12,13
 154 320 154 320 172.5 322 c 128,-1,14
 191 324 191 324 208 324 c 0,15,16
 250 324 250 324 278.5 312 c 128,-1,17
 307 300 307 300 324 279.5 c 128,-1,18
 341 259 341 259 348 231 c 128,-1,19
 355 203 355 203 355 171 c 0,20,21
 355 78 355 78 313.5 36 c 128,-1,22
 272 -6 272 -6 176 -6 c 0,23,24
 117 -6 117 -6 60 0 c 1,25,-1
 60 512 l 1,26,-1
 134 512 l 1,27,-1
 134 316 l 1,12,13
417 512 m 1,28,-1
 490 512 l 1,29,-1
 490 0 l 1,30,-1
 417 0 l 1,31,-1
 417 512 l 1,28,-1
EndSplineSet
EndChar

StartChar: afii10094
Encoding: 1100 1100 389
Width: 386
Flags: W
LayerCount: 2
Fore
SplineSet
134 67 m 1,0,1
 165 61 165 61 190 60 c 0,2,3
 286 60 286 60 287 162 c 0,4,5
 287 208 287 208 264.5 234 c 128,-1,6
 242 260 242 260 193 260 c 0,7,8
 180 260 180 260 164 258.5 c 128,-1,9
 148 257 148 257 134 253 c 1,10,-1
 134 67 l 1,0,1
134 316 m 1,11,12
 154 320 154 320 172.5 322 c 128,-1,13
 191 324 191 324 208 324 c 0,14,15
 251 324 251 324 280.5 312 c 128,-1,16
 310 300 310 300 328.5 279.5 c 128,-1,17
 347 259 347 259 355.5 231 c 128,-1,18
 364 203 364 203 364 171 c 0,19,20
 364 78 364 78 318.5 36 c 128,-1,21
 273 -6 273 -6 177 -6 c 0,22,23
 117 -6 117 -6 60 0 c 1,24,-1
 60 512 l 1,25,-1
 134 512 l 1,26,-1
 134 316 l 1,11,12
EndSplineSet
EndChar

StartChar: afii10095
Encoding: 1101 1101 390
Width: 380
Flags: W
LayerCount: 2
Fore
SplineSet
96 290 m 1,0,-1
 266 290 l 1,1,2
 263 370 263 370 234 414 c 128,-1,3
 205 458 205 458 152 458 c 0,4,5
 119 458 119 458 94.5 448.5 c 128,-1,6
 70 439 70 439 54 428 c 1,7,-1
 29 486 l 1,8,9
 53 503 53 503 86.5 513.5 c 128,-1,10
 120 524 120 524 164 524 c 0,11,12
 256 524 256 524 299.5 457.5 c 128,-1,13
 343 391 343 391 343 256 c 0,14,15
 343 122 343 122 293.5 55 c 128,-1,16
 244 -12 244 -12 154 -12 c 0,17,18
 75 -12 75 -12 29 12 c 1,19,-1
 49 78 l 1,20,21
 68 67 68 67 95 60.5 c 128,-1,22
 122 54 122 54 146 54 c 0,23,24
 260 54 260 54 266 226 c 1,25,-1
 96 226 l 1,26,-1
 96 290 l 1,0,-1
EndSplineSet
EndChar

StartChar: afii10096
Encoding: 1102 1102 391
Width: 594
Flags: W
LayerCount: 2
Fore
SplineSet
386 -11 m 0,0,1
 296 -11 296 -11 257 51.5 c 128,-1,2
 218 114 218 114 213 230 c 1,3,-1
 134 230 l 1,4,-1
 134 0 l 1,5,-1
 60 0 l 1,6,-1
 60 512 l 1,7,-1
 134 512 l 1,8,-1
 134 297 l 1,9,-1
 214 297 l 1,10,11
 221 411 221 411 262.5 467 c 128,-1,12
 304 523 304 523 387 523 c 0,13,14
 478 523 478 523 517.5 453 c 128,-1,15
 557 383 557 383 557 256 c 0,16,17
 557 120 557 120 515 54.5 c 128,-1,18
 473 -11 473 -11 386 -11 c 0,0,1
286 256 m 0,19,20
 286 215 286 215 290.5 178.5 c 128,-1,21
 295 142 295 142 306.5 114.5 c 128,-1,22
 318 87 318 87 337.5 71 c 128,-1,23
 357 55 357 55 387 55 c 0,24,25
 437 55 437 55 458.5 101.5 c 128,-1,26
 480 148 480 148 480 256 c 0,27,28
 480 300 480 300 475.5 337 c 128,-1,29
 471 374 471 374 460.5 400.5 c 128,-1,30
 450 427 450 427 432 442 c 128,-1,31
 414 457 414 457 386 457 c 0,32,33
 333 457 333 457 309.5 407 c 128,-1,34
 286 357 286 357 286 256 c 0,19,20
EndSplineSet
EndChar

StartChar: afii10097
Encoding: 1103 1103 392
Width: 396
Flags: W
LayerCount: 2
Fore
SplineSet
268 212 m 1,0,-1
 206 200 l 1,1,-1
 102 0 l 1,2,-1
 15 0 l 1,3,-1
 111 176 l 1,4,-1
 143 213 l 1,5,6
 101 221 101 221 72 256 c 128,-1,7
 43 291 43 291 43 350 c 0,8,9
 43 442 43 442 92.5 483 c 128,-1,10
 142 524 142 524 228 524 c 0,11,12
 260 524 260 524 288 519.5 c 128,-1,13
 316 515 316 515 342 509 c 1,14,-1
 342 0 l 1,15,-1
 268 0 l 1,16,-1
 268 212 l 1,0,-1
268 259 m 1,17,-1
 268 449 l 1,18,19
 258 454 258 454 244.5 456 c 128,-1,20
 231 458 231 458 221 458 c 0,21,22
 172 458 172 458 146 432.5 c 128,-1,23
 120 407 120 407 120 354 c 0,24,25
 120 307 120 307 149.5 281 c 128,-1,26
 179 255 179 255 228 257 c 2,27,-1
 268 259 l 1,17,-1
EndSplineSet
EndChar

StartChar: afii10099
Encoding: 1106 1106 394
Width: 453
Flags: W
LayerCount: 2
Fore
SplineSet
-2 614 m 1,0,-1
 65 614 l 1,1,-1
 65 717 l 1,2,-1
 138 717 l 1,3,-1
 138 614 l 1,4,-1
 269 614 l 1,5,-1
 269 554 l 1,6,-1
 138 554 l 1,7,-1
 138 411 l 1,8,-1
 141 411 l 1,9,10
 161 439 161 439 191.5 455 c 128,-1,11
 222 471 222 471 267 471 c 0,12,13
 301 471 301 471 326 462 c 128,-1,14
 351 453 351 453 367.5 431.5 c 128,-1,15
 384 410 384 410 392 374 c 128,-1,16
 400 338 400 338 400 285 c 2,17,-1
 400 -30 l 2,18,19
 400 -133 400 -133 366.5 -177.5 c 128,-1,20
 333 -222 333 -222 257 -211 c 1,21,-1
 257 -144 l 1,22,23
 280 -144 280 -144 293.5 -136 c 128,-1,24
 307 -128 307 -128 315 -110 c 128,-1,25
 323 -92 323 -92 325 -64.5 c 128,-1,26
 327 -37 327 -37 327 0 c 2,27,-1
 327 256 l 2,28,29
 327 336 327 336 310 370 c 128,-1,30
 293 404 293 404 242 404 c 0,31,32
 206 404 206 404 178 380.5 c 128,-1,33
 150 357 150 357 138 319 c 1,34,-1
 138 0 l 1,35,-1
 65 0 l 1,36,-1
 65 554 l 1,37,-1
 -2 554 l 1,38,-1
 -2 614 l 1,0,-1
EndSplineSet
EndChar

StartChar: afii10101
Encoding: 1108 1108 396
Width: 385
Flags: W
LayerCount: 2
Fore
SplineSet
359 25 m 1,0,1
 335 8 335 8 300 -1.5 c 128,-1,2
 265 -11 265 -11 230 -11 c 0,3,4
 181 -11 181 -11 145 8 c 128,-1,5
 109 27 109 27 84.5 61.5 c 128,-1,6
 60 96 60 96 49 146 c 128,-1,7
 38 196 38 196 38 256 c 0,8,9
 38 386 38 386 91.5 454.5 c 128,-1,10
 145 523 145 523 236 523 c 0,11,12
 275 523 275 523 303 517 c 128,-1,13
 331 511 331 511 352 499 c 1,14,-1
 333 434 l 1,15,16
 313 445 313 445 289 451 c 128,-1,17
 265 457 265 457 241 457 c 0,18,19
 186 457 186 457 153.5 416 c 128,-1,20
 121 375 121 375 115 292 c 1,21,-1
 301 292 l 1,22,-1
 301 228 l 1,23,-1
 115 228 l 1,24,25
 117 193 117 193 125.5 162 c 128,-1,26
 134 131 134 131 150 107 c 128,-1,27
 166 83 166 83 189.5 69 c 128,-1,28
 213 55 213 55 247 55 c 0,29,30
 275 55 275 55 299.5 64 c 128,-1,31
 324 73 324 73 338 84 c 1,32,-1
 359 25 l 1,0,1
EndSplineSet
EndChar

StartChar: afii10104
Encoding: 1111 1111 399
Width: 236
Flags: W
LayerCount: 2
Fore
SplineSet
23 669 m 0,0,1
 23 693 23 693 33.5 705.5 c 128,-1,2
 44 718 44 718 65 718 c 256,3,4
 85 718 85 718 95.5 705 c 128,-1,5
 106 692 106 692 106 669 c 0,6,7
 106 647 106 647 95.5 634 c 128,-1,8
 85 621 85 621 65 621 c 256,9,10
 45 621 45 621 34 634 c 128,-1,11
 23 647 23 647 23 669 c 0,0,1
130 669 m 0,12,13
 130 693 130 693 141 705.5 c 128,-1,14
 152 718 152 718 172 718 c 256,15,16
 192 718 192 718 203 705 c 128,-1,17
 214 692 214 692 214 669 c 0,18,19
 214 647 214 647 203.5 634 c 128,-1,20
 193 621 193 621 172 621 c 256,21,22
 152 621 152 621 141 634 c 128,-1,23
 130 647 130 647 130 669 c 0,12,13
78 512 m 1,24,-1
 152 512 l 1,25,-1
 152 0 l 1,26,-1
 78 0 l 1,27,-1
 78 512 l 1,24,-1
EndSplineSet
EndChar

StartChar: afii10106
Encoding: 1113 1113 401
Width: 608
Flags: W
LayerCount: 2
Fore
SplineSet
356 316 m 1,0,1
 376 320 376 320 395 322 c 128,-1,2
 414 324 414 324 430 324 c 0,3,4
 473 324 473 324 502.5 312 c 128,-1,5
 532 300 532 300 550.5 279.5 c 128,-1,6
 569 259 569 259 577.5 231 c 128,-1,7
 586 203 586 203 586 171 c 0,8,9
 586 78 586 78 541 36 c 128,-1,10
 496 -6 496 -6 399 -6 c 0,11,12
 339 -6 339 -6 283 0 c 1,13,-1
 283 445 l 1,14,-1
 171 445 l 1,15,16
 168 358 168 358 163 277 c 128,-1,17
 158 196 158 196 145 133.5 c 128,-1,18
 132 71 132 71 108.5 33.5 c 128,-1,19
 85 -4 85 -4 46 -4 c 0,20,21
 29 -4 29 -4 16.5 -2 c 128,-1,22
 4 0 4 0 -6 5 c 1,23,-1
 5 70 l 1,24,25
 27 64 27 64 43.5 72.5 c 128,-1,26
 60 81 60 81 72.5 125.5 c 128,-1,27
 85 170 85 170 92.5 261.5 c 128,-1,28
 100 353 100 353 103 512 c 1,29,-1
 356 512 l 1,30,-1
 356 316 l 1,0,1
356 67 m 1,31,32
 387 61 387 61 413 60 c 0,33,34
 509 60 509 60 509 162 c 0,35,36
 509 208 509 208 486.5 234 c 128,-1,37
 464 260 464 260 415 260 c 0,38,39
 402 260 402 260 386.5 258.5 c 128,-1,40
 371 257 371 257 356 253 c 1,41,-1
 356 67 l 1,31,32
EndSplineSet
EndChar

StartChar: afii10107
Encoding: 1114 1114 402
Width: 635
Flags: W
LayerCount: 2
Fore
SplineSet
384 66 m 1,0,1
 399 63 399 63 413.5 61.5 c 128,-1,2
 428 60 428 60 440 60 c 0,3,4
 536 60 536 60 537 160 c 0,5,6
 537 255 537 255 442 255 c 0,7,8
 429 255 429 255 413.5 254 c 128,-1,9
 398 253 398 253 384 249 c 1,10,-1
 384 66 l 1,0,1
384 312 m 1,11,12
 404 316 404 316 422.5 317 c 128,-1,13
 441 318 441 318 458 318 c 0,14,15
 501 318 501 318 530.5 307.5 c 128,-1,16
 560 297 560 297 578.5 277 c 128,-1,17
 597 257 597 257 605 230 c 128,-1,18
 613 203 613 203 613 171 c 0,19,20
 613 78 613 78 568.5 36 c 128,-1,21
 524 -6 524 -6 427 -6 c 0,22,23
 367 -6 367 -6 310 0 c 1,24,-1
 310 231 l 1,25,-1
 134 231 l 1,26,-1
 134 0 l 1,27,-1
 60 0 l 1,28,-1
 60 512 l 1,29,-1
 134 512 l 1,30,-1
 134 298 l 1,31,-1
 310 298 l 1,32,-1
 310 512 l 1,33,-1
 384 512 l 1,34,-1
 384 312 l 1,11,12
EndSplineSet
EndChar

StartChar: afii10108
Encoding: 1115 1115 403
Width: 453
Flags: W
LayerCount: 2
Fore
SplineSet
-2 614 m 1,0,-1
 65 614 l 1,1,-1
 65 717 l 1,2,-1
 138 717 l 1,3,-1
 138 614 l 1,4,-1
 269 614 l 1,5,-1
 269 554 l 1,6,-1
 138 554 l 1,7,-1
 138 411 l 1,8,-1
 141 411 l 1,9,10
 161 439 161 439 191.5 455 c 128,-1,11
 222 471 222 471 267 471 c 0,12,13
 301 471 301 471 326 461.5 c 128,-1,14
 351 452 351 452 367.5 429.5 c 128,-1,15
 384 407 384 407 392 369.5 c 128,-1,16
 400 332 400 332 400 276 c 2,17,-1
 400 0 l 1,18,-1
 327 0 l 1,19,-1
 327 262 l 2,20,21
 327 334 327 334 310 369 c 128,-1,22
 293 404 293 404 242 404 c 0,23,24
 206 404 206 404 177 380 c 128,-1,25
 148 356 148 356 138 317 c 1,26,-1
 138 0 l 1,27,-1
 65 0 l 1,28,-1
 65 554 l 1,29,-1
 -2 554 l 1,30,-1
 -2 614 l 1,0,-1
EndSplineSet
EndChar

StartChar: afii10193
Encoding: 1119 1119 406
Width: 440
Flags: W
LayerCount: 2
Fore
SplineSet
60 0 m 1,0,-1
 60 512 l 1,1,-1
 134 512 l 1,2,-1
 134 71 l 1,3,-1
 306 71 l 1,4,-1
 306 512 l 1,5,-1
 380 512 l 1,6,-1
 380 0 l 1,7,-1
 259 0 l 1,8,-1
 246 -183 l 1,9,-1
 198 -183 l 1,10,-1
 181 0 l 1,11,-1
 60 0 l 1,0,-1
EndSplineSet
EndChar

StartChar: afii10146
Encoding: 1122 1122 407
Width: 516
Flags: W
LayerCount: 2
Fore
SplineSet
0 632 m 1,0,-1
 122 632 l 1,1,-1
 122 738 l 1,2,-1
 199 738 l 1,3,-1
 199 632 l 1,4,-1
 369 632 l 1,5,-1
 369 565 l 1,6,-1
 199 565 l 1,7,-1
 199 437 l 1,8,9
 203 438 203 438 213 439.5 c 128,-1,10
 223 441 223 441 235 442 c 128,-1,11
 247 443 247 443 259 444 c 128,-1,12
 271 445 271 445 282 445 c 0,13,14
 323 445 323 445 360 435.5 c 128,-1,15
 397 426 397 426 426 402 c 128,-1,16
 455 378 455 378 472 336.5 c 128,-1,17
 489 295 489 295 489 231 c 0,18,19
 489 108 489 108 428 50 c 128,-1,20
 367 -8 367 -8 262 -8 c 0,21,22
 251 -8 251 -8 233.5 -7.5 c 128,-1,23
 216 -7 216 -7 197 -5.5 c 128,-1,24
 178 -4 178 -4 158 -1.5 c 128,-1,25
 138 1 138 1 122 6 c 1,26,-1
 122 565 l 1,27,-1
 0 565 l 1,28,-1
 0 632 l 1,0,-1
270 62 m 0,29,30
 330 62 330 62 369.5 101 c 128,-1,31
 409 140 409 140 409 225 c 0,32,33
 409 270 409 270 397.5 299.5 c 128,-1,34
 386 329 386 329 367 345.5 c 128,-1,35
 348 362 348 362 322.5 368.5 c 128,-1,36
 297 375 297 375 269 375 c 0,37,38
 262 375 262 375 252 374 c 128,-1,39
 242 373 242 373 231 372 c 128,-1,40
 220 371 220 371 211.5 369 c 128,-1,41
 203 367 203 367 199 366 c 1,42,-1
 199 69 l 1,43,44
 210 66 210 66 230 64 c 128,-1,45
 250 62 250 62 270 62 c 0,29,30
EndSplineSet
Position2: "'cpsp' Capital Spacing lookup 0 subtable" dx=41 dy=0 dh=82 dv=0
EndChar

StartChar: afii10194
Encoding: 1123 1123 408
Width: 416
Flags: W
LayerCount: 2
Fore
SplineSet
0 512 m 1,0,-1
 90 512 l 1,1,-1
 90 717 l 1,2,-1
 164 717 l 1,3,-1
 164 512 l 1,4,-1
 296 512 l 1,5,-1
 296 449 l 1,6,-1
 164 449 l 1,7,-1
 164 316 l 1,8,9
 183 320 183 320 202 322 c 128,-1,10
 221 324 221 324 238 324 c 0,11,12
 281 324 281 324 310.5 312 c 128,-1,13
 340 300 340 300 358.5 279.5 c 128,-1,14
 377 259 377 259 385 231 c 128,-1,15
 393 203 393 203 393 171 c 0,16,17
 393 78 393 78 348.5 36 c 128,-1,18
 304 -6 304 -6 206 -6 c 0,19,20
 147 -6 147 -6 90 0 c 1,21,-1
 90 449 l 1,22,-1
 0 449 l 1,23,-1
 0 512 l 1,0,-1
164 66 m 1,24,25
 178 63 178 63 192.5 61.5 c 128,-1,26
 207 60 207 60 220 60 c 0,27,28
 270 60 270 60 293 88 c 128,-1,29
 316 116 316 116 316 162 c 0,30,31
 316 203 316 203 293.5 231.5 c 128,-1,32
 271 260 271 260 222 260 c 0,33,34
 209 260 209 260 193.5 258.5 c 128,-1,35
 178 257 178 257 164 253 c 1,36,-1
 164 66 l 1,24,25
EndSplineSet
EndChar

StartChar: afii10147
Encoding: 1138 1138 409
Width: 562
Flags: W
LayerCount: 2
Fore
SplineSet
44 358 m 0,0,1
 44 540 44 540 102.5 634.5 c 128,-1,2
 161 729 161 729 281 729 c 0,3,4
 346 729 346 729 390.5 703 c 128,-1,5
 435 677 435 677 463.5 629 c 128,-1,6
 492 581 492 581 505 512 c 128,-1,7
 518 443 518 443 518 358 c 0,8,9
 518 176 518 176 459 82 c 128,-1,10
 400 -12 400 -12 281 -12 c 0,11,12
 218 -12 218 -12 172.5 14 c 128,-1,13
 127 40 127 40 98.5 88 c 128,-1,14
 70 136 70 136 57 204.5 c 128,-1,15
 44 273 44 273 44 358 c 0,0,1
281 58 m 0,16,17
 354 58 354 58 393.5 124.5 c 128,-1,18
 433 191 433 191 437 330 c 1,19,-1
 125 330 l 1,20,21
 127 275 127 275 136.5 225.5 c 128,-1,22
 146 176 146 176 165 138.5 c 128,-1,23
 184 101 184 101 212.5 79.5 c 128,-1,24
 241 58 241 58 281 58 c 0,16,17
281 658 m 0,25,26
 210 658 210 658 170 593.5 c 128,-1,27
 130 529 130 529 125 398 c 1,28,-1
 437 398 l 1,29,30
 434 451 434 451 424 498.5 c 128,-1,31
 414 546 414 546 395 581 c 128,-1,32
 376 616 376 616 348 637 c 128,-1,33
 320 658 320 658 281 658 c 0,25,26
EndSplineSet
Position2: "'cpsp' Capital Spacing lookup 0 subtable" dx=41 dy=0 dh=82 dv=0
EndChar

StartChar: afii10195
Encoding: 1139 1139 410
Width: 442
Flags: W
LayerCount: 2
Fore
SplineSet
38 256 m 0,0,1
 38 390 38 390 85.5 457 c 128,-1,2
 133 524 133 524 221 524 c 0,3,4
 315 524 315 524 359.5 454 c 128,-1,5
 404 384 404 384 404 256 c 0,6,7
 404 120 404 120 356.5 54 c 128,-1,8
 309 -12 309 -12 221 -12 c 0,9,10
 127 -12 127 -12 82.5 58 c 128,-1,11
 38 128 38 128 38 256 c 0,0,1
328 286 m 1,12,13
 323 379 323 379 294 418.5 c 128,-1,14
 265 458 265 458 221 458 c 0,15,16
 201 458 201 458 182.5 449 c 128,-1,17
 164 440 164 440 149.5 420 c 128,-1,18
 135 400 135 400 126 367.5 c 128,-1,19
 117 335 117 335 115 286 c 1,20,-1
 328 286 l 1,12,13
115 225 m 1,21,22
 118 137 118 137 148 95.5 c 128,-1,23
 178 54 178 54 221 54 c 0,24,25
 240 54 240 54 259.5 62.5 c 128,-1,26
 279 71 279 71 293 91 c 128,-1,27
 307 111 307 111 316.5 143 c 128,-1,28
 326 175 326 175 328 225 c 1,29,-1
 115 225 l 1,21,22
EndSplineSet
EndChar

StartChar: afii10148
Encoding: 1140 1140 411
Width: 498
Flags: W
LayerCount: 2
Fore
SplineSet
258 -11 m 1,0,-1
 218 -11 l 1,1,-1
 -3 717 l 1,2,-1
 83 717 l 1,3,-1
 222 226 l 1,4,-1
 242 117 l 1,5,-1
 243 117 l 1,6,-1
 256 228 l 1,7,-1
 317 487 l 2,8,9
 334 563 334 563 350 609.5 c 128,-1,10
 366 656 366 656 382.5 681.5 c 128,-1,11
 399 707 399 707 420 715.5 c 128,-1,12
 441 724 441 724 470 724 c 0,13,14
 498 724 498 724 515 718.5 c 128,-1,15
 532 713 532 713 547 703 c 1,16,-1
 525 637 l 1,17,18
 510 646 510 646 497 649.5 c 128,-1,19
 484 653 484 653 473 653 c 0,20,21
 449 653 449 653 433.5 621 c 128,-1,22
 418 589 418 589 402 532 c 2,23,-1
 258 -11 l 1,0,-1
EndSplineSet
Position2: "'cpsp' Capital Spacing lookup 0 subtable" dx=41 dy=0 dh=82 dv=0
EndChar

StartChar: afii10196
Encoding: 1141 1141 412
Width: 419
Flags: W
LayerCount: 2
Fore
SplineSet
90 512 m 1,0,-1
 185 216 l 1,1,-1
 206 115 l 1,2,-1
 208 115 l 1,3,-1
 226 218 l 1,4,-1
 252 307 l 2,5,6
 266 357 266 357 279 396.5 c 128,-1,7
 292 436 292 436 307 463 c 128,-1,8
 322 490 322 490 340.5 504.5 c 128,-1,9
 359 519 359 519 386 519 c 0,10,11
 402 519 402 519 415 517 c 128,-1,12
 428 515 428 515 438 510 c 1,13,-1
 428 441 l 1,14,15
 417 445 417 445 406.5 448 c 128,-1,16
 396 451 396 451 386 444 c 128,-1,17
 376 437 376 437 365 418.5 c 128,-1,18
 354 400 354 400 342 365 c 2,19,-1
 219 -11 l 1,20,-1
 184 -11 l 1,21,-1
 5 512 l 1,22,-1
 90 512 l 1,0,-1
EndSplineSet
EndChar

StartChar: uni048A
Encoding: 1162 1162 413
Width: 571
Flags: W
LayerCount: 2
Fore
SplineSet
415 469 m 1,0,-1
 421 563 l 1,1,-1
 418 563 l 1,2,-1
 382 467 l 1,3,-1
 117 0 l 1,4,-1
 66 0 l 1,5,-1
 66 717 l 1,6,-1
 142 717 l 1,7,-1
 142 241 l 1,8,-1
 135 148 l 1,9,-1
 139 148 l 1,10,-1
 175 245 l 1,11,-1
 441 717 l 1,12,-1
 492 717 l 1,13,-1
 492 67 l 1,14,-1
 577 67 l 1,15,-1
 577 45 l 1,16,-1
 501 -133 l 1,17,-1
 450 -133 l 1,18,-1
 486 0 l 1,19,-1
 415 0 l 1,20,-1
 415 469 l 1,0,-1
212 891 m 1,21,22
 214 853 214 853 233 830.5 c 128,-1,23
 252 808 252 808 285 808 c 256,24,25
 318 808 318 808 335.5 830.5 c 128,-1,26
 353 853 353 853 356 890 c 1,27,-1
 422 874 l 1,28,29
 414 816 414 816 380 784.5 c 128,-1,30
 346 753 346 753 284 753 c 0,31,32
 224 753 224 753 184 781.5 c 128,-1,33
 144 810 144 810 138 873 c 1,34,-1
 212 891 l 1,21,22
EndSplineSet
Position2: "'cpsp' Capital Spacing lookup 0 subtable" dx=41 dy=0 dh=82 dv=0
EndChar

StartChar: uni048B
Encoding: 1163 1163 414
Width: 466
Flags: W
LayerCount: 2
Fore
SplineSet
315 295 m 1,0,-1
 322 373 l 1,1,-1
 317 373 l 1,2,-1
 282 287 l 1,3,-1
 109 0 l 1,4,-1
 60 0 l 1,5,-1
 60 512 l 1,6,-1
 134 512 l 1,7,-1
 134 208 l 1,8,-1
 128 133 l 1,9,-1
 132 133 l 1,10,-1
 166 217 l 1,11,-1
 341 512 l 1,12,-1
 389 512 l 1,13,-1
 389 67 l 1,14,-1
 471 67 l 1,15,-1
 471 45 l 1,16,-1
 395 -130 l 1,17,-1
 344 -130 l 1,18,-1
 381 0 l 1,19,-1
 315 0 l 1,20,-1
 315 295 l 1,0,-1
162 719 m 1,21,22
 167 672 167 672 187 652 c 128,-1,23
 207 632 207 632 233 632 c 256,24,25
 260 632 260 632 280 653.5 c 128,-1,26
 300 675 300 675 305 718 c 1,27,-1
 361 701 l 1,28,29
 353 640 353 640 317 607.5 c 128,-1,30
 281 575 281 575 231 575 c 0,31,32
 207 575 207 575 185.5 582 c 128,-1,33
 164 589 164 589 146 603.5 c 128,-1,34
 128 618 128 618 115.5 642 c 128,-1,35
 103 666 103 666 99 699 c 1,36,-1
 162 719 l 1,21,22
EndSplineSet
EndChar

StartChar: uni048E
Encoding: 1166 1166 417
Width: 461
Flags: W
LayerCount: 2
Fore
SplineSet
66 710 m 1,0,1
 99 719 99 719 135.5 722 c 128,-1,2
 172 725 172 725 208 725 c 0,3,4
 249 725 249 725 289 716 c 128,-1,5
 329 707 329 707 361 682 c 128,-1,6
 393 657 393 657 413 614 c 128,-1,7
 433 571 433 571 433 505 c 0,8,9
 433 431 433 431 408.5 382.5 c 128,-1,10
 384 334 384 334 345 307 c 1,11,-1
 406 212 l 1,12,-1
 357 179 l 1,13,-1
 292 281 l 1,14,15
 253 269 253 269 209 268 c 0,16,17
 205 268 205 268 195.5 268 c 128,-1,18
 186 268 186 268 176 268.5 c 128,-1,19
 166 269 166 269 156 270 c 128,-1,20
 146 271 146 271 142 272 c 1,21,-1
 142 0 l 1,22,-1
 66 0 l 1,23,-1
 66 710 l 1,0,1
237 473 m 1,24,-1
 301 368 l 1,25,26
 325 386 325 386 338.5 419 c 128,-1,27
 352 452 352 452 352 505 c 0,28,29
 352 548 352 548 340.5 576.5 c 128,-1,30
 329 605 329 605 310 622.5 c 128,-1,31
 291 640 291 640 265.5 647 c 128,-1,32
 240 654 240 654 212 654 c 0,33,34
 192 654 192 654 173 652.5 c 128,-1,35
 154 651 154 651 142 648 c 1,36,-1
 142 344 l 1,37,38
 146 342 146 342 155 341.5 c 128,-1,39
 164 341 164 341 173 340 c 128,-1,40
 182 339 182 339 191 339 c 128,-1,41
 200 339 200 339 204 339 c 0,42,43
 218 339 218 339 232.5 340 c 128,-1,44
 247 341 247 341 260 346 c 1,45,-1
 200 444 l 1,46,-1
 237 473 l 1,24,-1
EndSplineSet
Position2: "'cpsp' Capital Spacing lookup 0 subtable" dx=41 dy=0 dh=82 dv=0
EndChar

StartChar: uni048F
Encoding: 1167 1167 418
Width: 445
Flags: W
LayerCount: 2
Fore
SplineSet
60 512 m 1,0,-1
 113 512 l 1,1,-1
 124 457 l 1,2,-1
 128 457 l 1,3,4
 166 525 166 525 247 524 c 256,5,6
 328 524 328 524 368.5 463.5 c 128,-1,7
 409 403 409 403 409 266 c 0,8,9
 409 189 409 189 390 131.5 c 128,-1,10
 371 74 371 74 337 38 c 1,11,-1
 384 -27 l 1,12,-1
 339 -62 l 1,13,-1
 291 3 l 1,14,15
 258 -12 258 -12 219 -12 c 0,16,17
 189 -12 189 -12 172 -8.5 c 128,-1,18
 155 -5 155 -5 134 6 c 1,19,-1
 134 -205 l 1,20,-1
 60 -205 l 1,21,-1
 60 512 l 1,0,-1
240 164 m 1,22,-1
 290 94 l 1,23,24
 310 121 310 121 321 164.5 c 128,-1,25
 332 208 332 208 332 267 c 0,26,27
 332 310 332 310 326.5 345 c 128,-1,28
 321 380 321 380 308.5 405 c 128,-1,29
 296 430 296 430 277 444 c 128,-1,30
 258 458 258 458 230 458 c 0,31,32
 155 458 155 458 134 367 c 1,33,-1
 134 81 l 1,34,35
 148 69 148 69 166 61.5 c 128,-1,36
 184 54 184 54 214 54 c 0,37,38
 237 54 237 54 255 63 c 1,39,-1
 205 135 l 1,40,-1
 240 164 l 1,22,-1
EndSplineSet
EndChar

StartChar: afii10050
Encoding: 1168 1168 419
Width: 365
Flags: W
LayerCount: 2
Fore
SplineSet
313 717 m 1,0,-1
 328 854 l 1,1,-1
 379 854 l 1,2,-1
 379 646 l 1,3,-1
 142 646 l 1,4,-1
 142 0 l 1,5,-1
 66 0 l 1,6,-1
 66 717 l 1,7,-1
 313 717 l 1,0,-1
EndSplineSet
Position2: "'cpsp' Capital Spacing lookup 0 subtable" dx=41 dy=0 dh=82 dv=0
EndChar

StartChar: afii10098
Encoding: 1169 1169 420
Width: 303
Flags: W
LayerCount: 2
Fore
SplineSet
304 445 m 1,0,-1
 134 445 l 1,1,-1
 134 0 l 1,2,-1
 60 0 l 1,3,-1
 60 512 l 1,4,-1
 239 512 l 1,5,-1
 253 649 l 1,6,-1
 304 649 l 1,7,-1
 304 445 l 1,0,-1
EndSplineSet
EndChar

StartChar: uni0492
Encoding: 1170 1170 421
Width: 399
Flags: W
LayerCount: 2
Fore
SplineSet
401 646 m 1,0,-1
 165 646 l 1,1,-1
 165 392 l 1,2,-1
 341 392 l 1,3,-1
 341 328 l 1,4,-1
 165 328 l 1,5,-1
 165 0 l 1,6,-1
 88 0 l 1,7,-1
 88 328 l 1,8,-1
 7 328 l 1,9,-1
 7 392 l 1,10,-1
 88 392 l 1,11,-1
 88 717 l 1,12,-1
 401 717 l 1,13,-1
 401 646 l 1,0,-1
EndSplineSet
Substitution2: "'locl' Localized Forms in Cyrillic lookup 5 subtable" uni0492.alt
Substitution2: "'aalt' Access All Alternates lookup 0 subtable" uni0492.alt
Position2: "'cpsp' Capital Spacing lookup 0 subtable" dx=41 dy=0 dh=82 dv=0
EndChar

StartChar: uni0493
Encoding: 1171 1171 422
Width: 313
Flags: W
LayerCount: 2
Fore
SplineSet
313 445 m 1,0,-1
 143 445 l 1,1,-1
 143 287 l 1,2,-1
 285 287 l 1,3,-1
 285 226 l 1,4,-1
 143 226 l 1,5,-1
 143 0 l 1,6,-1
 70 0 l 1,7,-1
 70 226 l 1,8,-1
 0 226 l 1,9,-1
 0 287 l 1,10,-1
 70 287 l 1,11,-1
 70 512 l 1,12,-1
 313 512 l 1,13,-1
 313 445 l 1,0,-1
EndSplineSet
Substitution2: "'locl' Localized Forms in Cyrillic lookup 5 subtable" uni0493.alt
Substitution2: "'aalt' Access All Alternates lookup 0 subtable" uni0493.alt
EndChar

